<?xml version="1.0" encoding="UTF-8"?>
<svg id="Layer_1" data-name="Layer 1" xmlns="http://www.w3.org/2000/svg" xmlns:xlink="http://www.w3.org/1999/xlink" viewBox="0 0 73 86">
  <defs>
    <style>
      .cls-1 {
        fill: url(#linear-gradient);
      }
    </style>
    <linearGradient id="linear-gradient" x1="36.5" y1="2.0234" x2="36.5" y2="83.9766" gradientUnits="userSpaceOnUse">
      <stop offset="0" stop-color="#c30044"/>
      <stop offset="1" stop-color="#c5cbd5"/>
    </linearGradient>
  </defs>
  <path class="cls-1" d="M62.4277,23.2325h-3.0956c3.5207-5.4852,3.0115-12.8852-1.5255-17.8174l-.2451-.2598c-2.7319-2.8252-6.364-4.2314-9.9902-4.2314-3.5135.0001-7.031,1.3235-9.7305,3.9707l-.2578.2598c-.399.412-.7565.8497-1.0791,1.3066-.2357-.3335-.4884-.657-.7627-.9668l-.3115-.3379-.002-.001-.2588-.2607c-2.7001-2.6509-6.2177-3.9707-9.7304-3.9707h-.0069c-3.5134,0-7.0309,1.3235-9.7304,3.9707l-.2588.2598v.001c-4.7664,4.9297-5.3541,12.4946-1.7705,18.0771h-3.0957c-5.3192.0001-9.6757,4.3811-9.6758,9.6972v42.4561c0,5.3175,4.3577,9.6904,9.6758,9.6904h51.8515c5.3188-.0002,9.6719-4.3775,9.6719-9.6904v-42.4561c-.0001-5.3154-4.3523-9.697-9.6719-9.6972ZM20.4941,10.0255c1.3657-1.411,3.0799-2.1124,4.7911-2.1505h.1464c1.7607,0,3.5371.7039,4.9375,2.1544v.0009c.1144.1184.3275.4485.5899,1.0694.2484.588.5017,1.3402.7402,2.2031.4773,1.7264.8746,3.8237,1.0528,5.7969l.0791.9541c.1056,1.4185.1127,2.3171.1044,3.124-.7613.0083-1.6.0003-2.9179-.1045l-.9014-.0791h-.001c-1.8963-.1829-3.8928-.5795-5.5312-1.0586-.8194-.2396-1.5304-.4941-2.085-.7441-.4385-.1977-.721-.3674-.8818-.4883l-.1211-.1045-.001-.001-.2549-.2773c-2.547-2.92-2.4619-7.4834.2549-10.2939l-.001-.0009ZM32.9834,78.0557H10.5762c-1.5057,0-2.6531-1.145-2.6533-2.671v-42.456c0-1.4922,1.0972-2.6177,2.5538-2.667h22.5048v-.001h.002v47.7949ZM40.2451,19.1035l.0772-.7451c.2019-1.7466.5585-3.5412.9765-5.0518.2389-.8631.4928-1.6157.7411-2.2041.2608-.6175.4722-.948.587-1.0684,1.4048-1.4517,3.1785-2.1552,4.9384-2.1552h.168c1.7063.0426,3.4157.7453,4.7725,2.1505l.2548.2773c2.465,2.8258,2.465,7.1916,0,10.0176l-.2548.2773c-.1127.1163-.4216.3296-1.0059.5928-.5551.25-1.2667.5046-2.0859.7441-1.4337.4193-3.141.7755-4.8145.9805l-.7148.0781c-1.8658.1803-2.9037.1946-3.8272.1846-.0089-.9736.0068-2.0826.1875-4.0781ZM65.0811,75.3886c0,1.5262-1.1475,2.6709-2.6534,2.6709h-22.4247V30.2657c.0153-.0004.0306.0004.0459,0l.1465-.0039h22.2324c1.5058,0,2.6533,1.1448,2.6534,2.6709v42.456Z"/>
</svg>