<svg width="72" height="84" viewBox="0 0 72 84" fill="none" xmlns="http://www.w3.org/2000/svg">
<path fill-rule="evenodd" clip-rule="evenodd" d="M59.941 0.30979C60.877 0.146754 61.8087 0.347419 62.5712 0.820754L62.5756 0.824029L62.8562 1.01728C63.4867 1.49519 63.9695 2.16901 64.2013 2.97051L68.0761 15.7937L68.1274 15.9804C68.5908 17.8519 67.559 19.7759 65.744 20.4263L65.5605 20.4874C63.5697 21.089 61.4674 19.9627 60.8658 17.9719V17.9697L59.3493 12.9048C47.4316 31.0897 28.9051 44.2201 7.53125 49.2389V75.5819H68.2344C70.3139 75.5821 71.9999 77.2691 72 79.3486C71.9998 81.4281 70.3138 83.1141 68.2344 83.1143H3.76563C1.68615 83.1141 0.000222503 81.4281 0 79.3486V16.1289C0.000302629 14.0495 1.6862 12.3635 3.76563 12.3633C5.84522 12.3633 7.53095 14.0494 7.53125 16.1289V41.4827C26.1683 36.6513 42.3091 25.0109 52.8607 9.06495L47.9225 9.88162L47.9203 9.88271C45.9314 10.2043 44.0544 8.90471 43.6372 6.95668L43.6011 6.76562C43.2695 4.71275 44.6653 2.77952 46.7182 2.44754L59.9323 0.310882L59.9334 0.30979H59.941ZM68.539 82.3162L68.7988 82.2779C68.8073 82.2763 68.8155 82.2731 68.8239 82.2714C68.7304 82.2902 68.6355 82.3064 68.539 82.3162ZM0.836321 79.9131C0.837866 79.9212 0.840169 79.9291 0.84178 79.9371C0.823117 79.8439 0.807867 79.7494 0.798108 79.6533L0.836321 79.9131ZM71.2172 79.3486L71.2041 79.0626C71.2037 79.0582 71.2023 79.0539 71.2019 79.0495C71.2117 79.1478 71.2172 79.2478 71.2172 79.3486ZM68.8349 76.4259C68.9271 76.4447 69.0178 76.4675 69.1067 76.4947C68.9243 76.4389 68.7344 76.3999 68.539 76.38L68.8349 76.4259ZM9.82076 47.86C9.48197 47.9505 9.14243 48.0389 8.80211 48.1253L9.82076 47.86C10.1596 47.7695 10.4989 47.6773 10.8361 47.5826L9.82076 47.86ZM13.8517 46.6743C13.1864 46.8882 12.5179 47.0946 11.8461 47.2922L12.8516 46.9898C13.5199 46.7841 14.1847 46.5697 14.8463 46.3478L13.8517 46.6743ZM20.706 44.1358C20.0659 44.4051 19.4222 44.6671 18.7746 44.9208L19.7442 44.5343C20.3878 44.2729 21.0275 44.0033 21.6635 43.7264L20.706 44.1358ZM6.73424 15.8309C6.74397 15.9289 6.74951 16.0283 6.74952 16.1289L6.73642 15.8429C6.73604 15.8388 6.73464 15.8349 6.73424 15.8309ZM27.282 41.0286C26.364 41.5118 25.4367 41.9786 24.5 42.4282L25.4346 41.973C26.3648 41.5122 27.2857 41.0346 28.1969 40.5405L27.282 41.0286ZM33.5467 37.3798C33.2564 37.566 32.9649 37.7506 32.6722 37.9333L33.5467 37.3798C33.837 37.1936 34.1257 37.0061 34.4136 36.8164L33.5467 37.3798ZM38.6422 33.8412C37.8152 34.4615 36.9771 35.0671 36.1277 35.6569L36.9739 35.0619C37.816 34.4617 38.647 33.8461 39.4665 33.2156L38.6422 33.8412ZM65.3335 19.7384L65.6031 19.6423C65.6063 19.6411 65.6087 19.6382 65.6119 19.6369C65.5216 19.6741 65.4289 19.7096 65.3335 19.7384ZM62.5908 1.8132C62.7637 1.97024 62.9157 2.14929 63.0483 2.34382C62.8646 2.07431 62.6413 1.83615 62.3834 1.6407L62.5908 1.8132Z" fill="url(#paint0_linear_2005_344)"/>
<path fill-rule="evenodd" clip-rule="evenodd" d="M25.2556 52.8135C27.3352 52.8136 29.0211 54.5006 29.0212 56.5802V69.2211C29.0209 71.3005 27.3351 72.9866 25.2556 72.9867C23.176 72.9867 21.4902 71.3006 21.4899 69.2211V60.3338H17.6446V69.2211C17.6443 71.3005 15.9584 72.9865 13.879 72.9867C11.7994 72.9867 10.1136 71.3006 10.1134 69.2211V56.5802C10.1135 54.5005 11.7993 52.8135 13.879 52.8135H25.2556ZM16.8007 69.8216C16.7818 69.9139 16.758 70.0044 16.7308 70.0934C16.7866 69.9109 16.8266 69.7212 16.8465 69.5257L16.8007 69.8216ZM10.9486 69.7855C10.9501 69.7936 10.9524 69.8015 10.9541 69.8096C10.9354 69.7164 10.9201 69.6218 10.9104 69.5257L10.9486 69.7855ZM22.3263 69.7855C22.3268 69.7885 22.3279 69.7913 22.3285 69.7943C22.3113 69.706 22.2973 69.6165 22.2881 69.5257L22.3263 69.7855ZM28.2384 56.5802L28.2253 56.2941C28.2249 56.2897 28.2235 56.2854 28.2231 56.281C28.2329 56.3793 28.2384 56.4793 28.2384 56.5802ZM13.2949 53.6531C13.1962 53.6726 13.0993 53.6972 13.0045 53.7262C13.1872 53.6703 13.3775 53.6315 13.5733 53.6116L13.2949 53.6531ZM25.8561 53.6574C25.9483 53.6763 26.039 53.6991 26.1279 53.7262C25.9455 53.6705 25.7556 53.6314 25.5602 53.6116L25.8561 53.6574Z" fill="url(#paint1_linear_2005_344)"/>
<path fill-rule="evenodd" clip-rule="evenodd" d="M46.7444 42.7012C48.824 42.7012 50.5098 44.3873 50.5101 46.4668V69.2211C50.5098 71.3006 48.824 72.9867 46.7444 72.9867C44.6649 72.9866 42.9791 71.3005 42.9788 69.2211V50.2641L39.1335 50.2401V69.2211C39.1332 71.3006 37.4474 72.9867 35.3678 72.9867C33.2883 72.9866 31.6025 71.3006 31.6022 69.2211V46.4668C31.6025 44.3873 33.2883 42.7013 35.3678 42.7012H46.7444ZM32.4385 69.7855C32.4391 69.7885 32.4402 69.7913 32.4407 69.7943C32.4235 69.706 32.4096 69.6165 32.4003 69.5257L32.4385 69.7855ZM43.8151 69.7855C43.8157 69.7885 43.8167 69.7913 43.8173 69.7943C43.8001 69.706 43.7861 69.6165 43.7769 69.5257L43.8151 69.7855ZM32.3992 46.1688L32.4003 46.1622C32.4009 46.1567 32.403 46.1513 32.4036 46.1458C32.4028 46.1535 32.4 46.161 32.3992 46.1688ZM49.6683 45.8773C49.7065 46.0679 49.7283 46.2649 49.7283 46.4668L49.7152 46.1808C49.7054 46.0779 49.6883 45.9768 49.6683 45.8773Z" fill="url(#paint2_linear_2005_344)"/>
<path fill-rule="evenodd" clip-rule="evenodd" d="M68.2344 23.7399C70.3138 23.7401 71.9996 25.4262 72 27.5055V69.2211C71.9997 71.3005 70.3138 72.9865 68.2344 72.9867C66.1548 72.9867 64.469 71.3006 64.4688 69.2211V31.2722H60.6234V69.2211C60.6231 71.3005 58.9372 72.9864 56.8578 72.9867C54.7782 72.9867 53.0914 71.3006 53.0911 69.2211V27.5055C53.0914 25.426 54.7782 23.7399 56.8578 23.7399H68.2344ZM59.7795 69.8216C59.7606 69.9139 59.7368 70.0044 59.7096 70.0934C59.7654 69.9109 59.8055 69.7212 59.8253 69.5257L59.7795 69.8216ZM71.156 69.8216C71.1371 69.9139 71.1134 70.0044 71.0862 70.0934C71.1419 69.9109 71.182 69.7212 71.2019 69.5257L71.156 69.8216ZM53.9274 69.7855C53.9289 69.7936 53.9312 69.8015 53.9329 69.8096C53.9142 69.7164 53.8989 69.6218 53.8892 69.5257L53.9274 69.7855ZM65.304 69.7855C65.3055 69.7936 65.3078 69.8015 65.3094 69.8096C65.2908 69.7164 65.2755 69.6218 65.2658 69.5257L65.304 69.7855ZM56.2737 24.5795C56.175 24.599 56.0781 24.6236 55.9833 24.6526C56.166 24.5967 56.3563 24.5579 56.5521 24.538L56.2737 24.5795ZM68.8349 24.5838C68.9271 24.6027 69.0178 24.6255 69.1067 24.6526C68.9243 24.5969 68.7344 24.5578 68.539 24.538L68.8349 24.5838ZM53.8892 27.2009C53.8913 27.1796 53.8953 27.1587 53.8979 27.1376C53.8952 27.1598 53.8903 27.1818 53.8881 27.2042L53.8892 27.2009ZM71.2172 27.5055L71.2041 27.2194C71.2036 27.2147 71.2024 27.21 71.2019 27.2052C71.2118 27.304 71.2172 27.4041 71.2172 27.5055Z" fill="url(#paint3_linear_2005_344)"/>
<defs>
<linearGradient id="paint0_linear_2005_344" x1="36" y1="0.253906" x2="36" y2="83.1143" gradientUnits="userSpaceOnUse">
<stop stop-color="#C30044"/>
<stop offset="1" stop-color="#C5CBD5"/>
</linearGradient>
<linearGradient id="paint1_linear_2005_344" x1="36" y1="0.253906" x2="36" y2="83.1143" gradientUnits="userSpaceOnUse">
<stop stop-color="#C30044"/>
<stop offset="1" stop-color="#C5CBD5"/>
</linearGradient>
<linearGradient id="paint2_linear_2005_344" x1="36" y1="0.253906" x2="36" y2="83.1143" gradientUnits="userSpaceOnUse">
<stop stop-color="#C30044"/>
<stop offset="1" stop-color="#C5CBD5"/>
</linearGradient>
<linearGradient id="paint3_linear_2005_344" x1="36" y1="0.253906" x2="36" y2="83.1143" gradientUnits="userSpaceOnUse">
<stop stop-color="#C30044"/>
<stop offset="1" stop-color="#C5CBD5"/>
</linearGradient>
</defs>
</svg>
