<svg width="78" height="75" viewBox="0 0 78 75" fill="none" xmlns="http://www.w3.org/2000/svg">
<path fill-rule="evenodd" clip-rule="evenodd" d="M38.6996 0C42.1242 6.87191e-06 45.2576 1.94287 46.7738 5.01562L53.8558 19.3418L69.6898 21.6396L70.0062 21.6924C73.2533 22.2841 75.9331 24.6064 76.9594 27.7637C77.9857 30.9176 77.1868 34.3714 74.9056 36.7559L74.6801 36.9834L63.223 48.1289L65.9281 63.876L65.9769 64.1924C66.4212 67.4641 65.0318 70.7263 62.3451 72.6748C59.658 74.6232 56.1217 74.9317 53.1459 73.5029L52.8597 73.3584L38.6996 65.9248L24.5385 73.3564L24.5394 73.3574C23.2458 74.0406 21.8043 74.3994 20.3383 74.3994H20.3275C17.6857 74.3744 15.1817 73.198 13.4789 71.1777C11.7761 69.1571 11.0418 66.4921 11.4691 63.8848L11.4711 63.875L14.1752 48.1309L2.71913 36.9795C0.266334 34.5906 -0.618482 31.015 0.440805 27.7598C1.49988 24.5053 4.31968 22.1312 7.70936 21.6396L23.5433 19.3408L30.6244 5.0127C32.1409 1.94158 35.2725 0.000152624 38.6996 0ZM19.9096 73.1836L20.3383 73.1992C20.1623 73.1975 19.9872 73.1881 19.8129 73.1748C19.8451 73.1773 19.8772 73.1815 19.9096 73.1836ZM56.0883 68.084C56.1198 68.0949 56.1521 68.1035 56.184 68.1133C56.1445 68.1011 56.1049 68.0891 56.0658 68.0752L56.0883 68.084ZM59.1693 67.292C59.0364 67.4395 58.8866 67.5745 58.7221 67.6943L58.5541 67.8076C58.5299 67.8227 58.5044 67.8353 58.4799 67.8496C58.5623 67.8016 58.6438 67.751 58.7221 67.6943C58.9415 67.5346 59.1338 67.3479 59.2963 67.1406L59.1693 67.292ZM38.6859 7.33691C38.0562 7.33001 37.4851 7.68703 37.2181 8.24609L37.2142 8.25391L37.2103 8.26074L29.2758 24.3184L29.2748 24.3203C28.7387 25.3999 27.7069 26.1521 26.5092 26.3262L8.77479 28.8975C8.15272 28.9952 7.63764 29.4351 7.4408 30.0352C7.24929 30.6313 7.40489 31.2818 7.8451 31.7266L20.684 44.2236L20.6849 44.2256L20.8412 44.3877C21.5942 45.2192 21.9298 46.3525 21.7406 47.4688L21.7396 47.4717L18.7084 65.1152C18.6129 65.7351 18.8734 66.3565 19.3783 66.7236C19.887 67.0915 20.5589 67.1448 21.1185 66.8633L37.2504 58.3945H37.2894C38.2921 57.9763 39.434 58.021 40.4056 58.5322L56.2767 66.8633C56.8013 67.127 57.4253 67.097 57.9203 66.7891L58.018 66.7227C58.527 66.3509 58.7839 65.7321 58.6889 65.1152L55.6576 47.4678L55.6566 47.4688C55.4679 46.3553 55.7986 45.2198 56.557 44.3857L56.7142 44.2227L69.2728 31.999L69.5433 31.7324C69.9903 31.2914 70.1505 30.6336 69.9555 30.0312C69.7617 29.4376 69.248 28.9972 68.6254 28.8984L50.889 26.3262C49.7687 26.1631 48.7893 25.4959 48.2289 24.5186L48.1224 24.3184L40.1869 8.26074L40.183 8.25391L40.1801 8.24609C39.9132 7.6869 39.3413 7.32982 38.7113 7.33691L38.7035 6.69336L38.6859 7.33691ZM59.8588 65.9023C59.8222 66.0955 59.7656 66.284 59.6908 66.4648L59.7601 66.2822C59.8016 66.1586 59.8344 66.031 59.8588 65.9023ZM59.8969 65.1113C59.915 65.312 59.9124 65.5119 59.889 65.708L59.9056 65.5117C59.9122 65.3795 59.9089 65.2451 59.8969 65.1113ZM56.8402 47.2676L59.8715 64.9111L56.8402 47.2646V47.2676ZM38.1 59.3848C37.9592 59.4201 37.8203 59.4677 37.6859 59.5283L37.5492 59.5947C37.7255 59.5019 37.9111 59.4321 38.1 59.3848ZM20.0502 45.3076C20.144 45.4248 20.2269 45.5492 20.2973 45.6797L20.2221 45.5508C20.1438 45.4244 20.0539 45.3043 19.9525 45.1924L20.0502 45.3076ZM6.3578 31.5967C6.50069 31.9617 6.7196 32.2999 7.00819 32.5869L6.87049 32.4395C6.60528 32.136 6.41096 31.7855 6.29334 31.4121L6.3578 31.5967ZM71.2357 30.6436C71.2234 31.0177 71.1373 31.3856 70.9838 31.7266C71.1643 31.3257 71.2515 30.8877 71.2357 30.4463V30.6436ZM6.16151 30.6426C6.16365 30.7082 6.16857 30.7737 6.17518 30.8389L6.16151 30.6426C6.15937 30.5773 6.16015 30.5118 6.16248 30.4463L6.16151 30.6426ZM70.8539 29.1152C70.9528 29.2866 71.0345 29.4696 71.0971 29.6621C71.1596 29.8552 71.2014 30.0519 71.2221 30.249L71.1947 30.0518C71.1717 29.9209 71.1387 29.7907 71.0971 29.6621C71.0136 29.4053 70.8962 29.1652 70.7494 28.9473L70.8539 29.1152ZM75.9701 28.667C75.9942 28.7638 76.0163 28.8608 76.0365 28.958C76.0157 28.8579 75.993 28.7579 75.9681 28.6582L75.9701 28.667ZM6.891 28.6367C6.84743 28.6855 6.80625 28.7364 6.766 28.7881L6.891 28.6367C6.93462 28.5879 6.97998 28.5417 7.02674 28.4961L6.891 28.6367ZM70.5082 28.6377C70.5517 28.6864 70.5939 28.7364 70.6342 28.7881L70.5082 28.6377C70.4647 28.5891 70.4191 28.5416 70.3724 28.4961L70.5082 28.6377ZM1.58143 28.1309L1.51209 28.3584C1.53428 28.2824 1.55683 28.2064 1.58143 28.1309ZM49.9633 24.6934C50.2829 24.925 50.6581 25.08 51.0609 25.1387L68.8041 27.7119C69.1393 27.764 69.4568 27.8737 69.7445 28.0312L69.5687 27.9424C69.3296 27.832 69.0722 27.7536 68.8041 27.7119L51.0609 25.1387C50.6074 25.0727 50.1897 24.8844 49.8461 24.6025L49.9633 24.6934ZM8.20057 27.8008C8.07324 27.8394 7.9498 27.8873 7.83045 27.9424L8.01307 27.8652C8.13656 27.8183 8.26415 27.7798 8.39491 27.75L8.20057 27.8008ZM75.1478 26.6338C75.1932 26.7119 75.2369 26.7912 75.2797 26.8711L75.1478 26.6338C75.1025 26.5556 75.0552 26.4777 75.0072 26.4014L75.1478 26.6338ZM73.6273 24.7598C73.6937 24.8196 73.7593 24.8803 73.8236 24.9424L73.6273 24.7598C73.561 24.6999 73.4935 24.6405 73.4252 24.583L73.6273 24.7598ZM49.6283 24.4014C49.6624 24.437 49.6977 24.4714 49.7338 24.5049L49.6283 24.4014C49.5941 24.3656 49.5608 24.3279 49.5287 24.29L49.6283 24.4014ZM28.0492 24.0488C28.0234 24.0879 27.9959 24.1257 27.9681 24.1631C28.0256 24.0857 28.0797 24.0053 28.1283 23.9209L28.0492 24.0488ZM72.5609 23.9512C72.6363 23.9987 72.7109 24.0476 72.7846 24.0977L72.5599 23.9502C72.4844 23.9025 72.4077 23.8566 72.3305 23.8115L72.5609 23.9512ZM49.1976 23.7871C49.2428 23.8784 49.2939 23.9659 49.349 24.0498L49.2699 23.9209C49.2449 23.8772 49.2201 23.8326 49.1976 23.7871ZM71.8568 23.5566C71.9373 23.5964 72.0172 23.6372 72.0961 23.6797L71.8568 23.5566C71.7762 23.5168 71.6948 23.4776 71.6127 23.4404L71.8568 23.5566ZM7.6078 22.8711C7.2485 22.9363 6.89729 23.0261 6.55604 23.1387C6.98363 22.9976 7.42707 22.8931 7.88221 22.8271L7.6078 22.8711ZM37.3539 6.46191C37.2961 6.49242 37.2395 6.52514 37.184 6.55957C37.2953 6.49052 37.4114 6.42895 37.5316 6.37598L37.3539 6.46191ZM37.9037 6.24219C37.84 6.26011 37.7772 6.28047 37.7152 6.30273L37.9037 6.24219C37.9674 6.22424 38.0318 6.20878 38.0971 6.19531L37.9037 6.24219ZM32.1058 4.8252C32.0668 4.88679 32.0299 4.94981 31.9926 5.0127C32.0769 4.87084 32.1648 4.73192 32.2572 4.59668L32.1058 4.8252ZM32.7514 3.94824C32.6929 4.01707 32.6357 4.08718 32.5795 4.1582L32.7514 3.94824C32.8098 3.87944 32.8703 3.81168 32.931 3.74512L32.7514 3.94824ZM33.307 3.35938C33.2421 3.42131 33.1784 3.48457 33.1156 3.54883L33.307 3.35938C33.3719 3.29746 33.4384 3.23632 33.5053 3.17676L33.307 3.35938ZM36.5365 1.50488C36.45 1.52979 36.3641 1.55616 36.2787 1.58398L36.5365 1.50488C36.6229 1.48001 36.7108 1.4565 36.7982 1.43457L36.5365 1.50488Z" fill="url(#paint0_linear_2005_348)"/>
<defs>
<linearGradient id="paint0_linear_2005_348" x1="38.7001" y1="0" x2="38.7001" y2="74.3994" gradientUnits="userSpaceOnUse">
<stop stop-color="#C30044"/>
<stop offset="1" stop-color="#C5CBD5"/>
</linearGradient>
</defs>
</svg>
