<svg width="80" height="66" viewBox="0 0 80 66" fill="none" xmlns="http://www.w3.org/2000/svg">
<path fill-rule="evenodd" clip-rule="evenodd" d="M39.9956 0C41.2065 0 42.3354 0.60156 43.0151 1.6094L56.7651 22.1094L73.6441 3.0974C74.7339 1.8669 76.5035 1.5271 77.9722 2.24584C79.441 2.97631 80.2417 4.58564 79.9331 6.19504L70.1636 56.617C69.1753 61.7459 64.6753 65.4451 59.4526 65.4451L20.5346 65.4491C15.3158 65.4491 10.8158 61.7498 9.82363 56.6209L0.0658261 6.21095C-0.242764 4.60155 0.554106 2.98045 2.02673 2.26175C3.49553 1.53128 5.26503 1.88284 6.35483 3.11331L23.2338 22.1253L36.9838 1.62531C37.6635 0.613605 38.7924 0.0159054 40.0033 0.0159054L39.9956 0ZM39.9956 10.172L26.6556 30.07C26.0267 30.9997 25.0072 31.6012 23.8861 31.6716C22.765 31.7497 21.6673 31.3005 20.9173 30.4607L9.72633 17.8587L16.9646 55.2377C17.2927 56.9486 18.7927 58.1791 20.5349 58.1791H59.4449C61.1832 58.1791 62.6832 56.9486 63.0152 55.2377L70.2535 17.8587L59.0625 30.4607C58.3125 31.3005 57.2227 31.7498 56.0937 31.6716C54.9726 31.5935 53.9453 30.9997 53.3242 30.07L39.9842 10.172H39.9956Z" fill="url(#paint0_linear_2005_343)"/>
<defs>
<linearGradient id="paint0_linear_2005_343" x1="39.9994" y1="0" x2="39.9994" y2="65.4491" gradientUnits="userSpaceOnUse">
<stop stop-color="#C30044"/>
<stop offset="1" stop-color="#C5CBD5"/>
</linearGradient>
</defs>
</svg>
