<svg width="73" height="86" viewBox="0 0 73 86" fill="none" xmlns="http://www.w3.org/2000/svg">
<path d="M25.4319 2C22.0902 2 18.7483 3.29882 16.233 5.89636C11.3241 10.9735 11.2096 19.0879 15.886 24.3088H10.5763C5.86778 24.3088 2 28.1944 2 32.9065V75.3626C2 80.0747 5.86778 83.9532 10.5763 83.9532H62.4273C67.1358 83.9532 71 80.0711 71 75.3626V32.9065C71 28.1944 67.1358 24.3088 62.4273 24.3088H57.1176C61.794 19.0886 61.6759 10.9735 56.7705 5.89636C54.2552 3.29524 50.9135 2 47.5717 2C44.2299 2 40.8881 3.29882 38.3728 5.89636C37.6035 6.69066 36.9953 7.5959 36.5051 8.58338C36.0149 7.5959 35.4031 6.69067 34.6374 5.89636C32.1221 3.29524 28.7803 2 25.4385 2H25.4319ZM25.4319 6.75149C27.4928 6.75149 29.5537 7.57798 31.1602 9.24177C32.212 10.3295 33.4786 14.8949 33.8472 18.9774C34.1012 21.7825 34.0332 22.9024 34.0225 24.2405C32.7201 24.2513 31.6718 24.3228 29.0098 24.0652C25.0776 23.6859 20.752 22.4265 19.7038 21.3388C16.4872 18.0113 16.4872 12.5657 19.7038 9.23819C21.3138 7.57446 23.3711 6.7479 25.432 6.7479L25.4319 6.75149ZM47.5686 6.75149C49.6295 6.75149 51.6903 7.57798 53.2968 9.24177C56.5134 12.5692 56.5134 18.0148 53.2968 21.3424C52.2449 22.4301 47.9192 23.6895 43.9908 24.0688C41.3252 24.3264 40.2733 24.2548 38.9709 24.2441C38.9602 22.906 38.8958 21.7861 39.1498 18.981C39.5183 14.8986 40.7885 10.3331 41.8368 9.24535C43.4469 7.58162 45.5042 6.75507 47.5651 6.75507L47.5686 6.75149ZM10.5761 29.1382H32.9812C33.3747 29.1489 33.7397 29.1525 34.0831 29.1561V79.1321H10.5762C8.45809 79.1321 6.82294 77.4898 6.82294 75.361V32.9049C6.82294 30.776 8.45809 29.1337 10.5762 29.1337L10.5761 29.1382ZM40.0193 29.1382H62.428C64.5461 29.1382 66.1813 30.7805 66.1813 32.9093V75.3654C66.1813 77.4943 64.5461 79.1366 62.428 79.1366H38.9028V29.1605C39.2498 29.157 39.6219 29.1534 40.0191 29.1427L40.0193 29.1382Z" fill="url(#paint0_linear_2005_210)"/>
<path d="M0.900391 75.3623V32.9062C0.900529 27.5901 5.25701 23.2091 10.5762 23.209V24.3086L10.1377 24.3203C5.63005 24.5526 2.00013 28.3414 2 32.9062V75.3623L2.01172 75.8018C2.23557 80.1678 5.77535 83.7181 10.1377 83.9424L10.5762 83.9531H62.4277C66.9888 83.9529 70.758 80.3099 70.9893 75.8018L71 75.3623V32.9062C70.9999 28.3415 67.3735 24.5527 62.8662 24.3203L62.4277 24.3086V23.209C67.7473 23.2092 72.0995 27.5908 72.0996 32.9062V75.3623C72.0996 80.6752 67.7465 85.0525 62.4277 85.0527H10.5762C5.25811 85.0527 0.900391 80.6798 0.900391 75.3623ZM65.0811 75.3652V32.9092C65.081 31.3831 63.9335 30.2383 62.4277 30.2383H40.1953L40.0488 30.2422C40.0335 30.2426 40.0182 30.2418 40.0029 30.2422V78.0361H62.4277V79.1367H38.9023V29.1602C39.2494 29.1566 39.6223 29.1533 40.0195 29.1426V29.1387H62.4277L62.625 29.1426C64.6466 29.2408 66.1816 30.8469 66.1816 32.9092V75.3652L66.1768 75.5635C66.082 77.5298 64.5815 79.0367 62.625 79.1318L62.4277 79.1367V78.0361C63.9336 78.0361 65.0811 76.8914 65.0811 75.3652ZM6.82324 75.3613V32.9053C6.82324 30.7764 8.45807 29.1338 10.5762 29.1338V29.1387H32.9814C33.3749 29.1494 33.7397 29.1527 34.083 29.1562V79.1318H10.5762V78.0322H32.9834V30.2373H32.9814V30.2383H10.4766C9.02011 30.2876 7.92285 31.413 7.92285 32.9053V75.3613C7.92304 76.8873 9.0705 78.0322 10.5762 78.0322V79.1318L10.3789 79.127C8.42246 79.0317 6.92267 77.525 6.82812 75.5586L6.82324 75.3613ZM47.5713 0.900391C51.1975 0.900391 54.8296 2.30667 57.5615 5.13184L57.8066 5.3916C62.3435 10.3238 62.8527 17.7238 59.332 23.209H62.4277V24.3086H57.1172C61.7205 19.17 61.6784 11.2265 56.9971 6.13672L56.7705 5.89648C54.3338 3.37661 51.1214 2.0823 47.8848 2.00391L47.5713 2C44.2297 2.0001 40.8882 3.29908 38.373 5.89648L38.0918 6.19922C37.4534 6.91807 36.9338 7.71901 36.5049 8.58301C36.0148 7.59577 35.4032 6.69064 34.6377 5.89648C32.2011 3.37671 28.9885 2.08239 25.752 2.00391L25.4385 2V0.900391C28.9512 0.900391 32.4688 2.22021 35.1689 4.87109L35.4277 5.13184L35.4297 5.13281L35.7412 5.4707C36.0155 5.78046 36.2682 6.104 36.5039 6.4375C36.8265 5.98051 37.184 5.54282 37.583 5.13086L37.8408 4.87109C40.5403 2.22389 44.0578 0.900485 47.5713 0.900391ZM25.4316 2C22.09 2.00007 18.7486 3.29909 16.2334 5.89648L16.0068 6.13672C11.3221 11.2264 11.2826 19.1692 15.8857 24.3086H10.5762V23.209H13.6719C10.0883 17.6264 10.676 10.0615 15.4424 5.13184V5.13086L15.7012 4.87109C18.4007 2.2239 21.9182 0.900458 25.4316 0.900391V2ZM47.5684 6.75195C49.6292 6.75195 51.6904 7.5784 53.2969 9.24219C56.5132 12.5697 56.5133 18.0153 53.2969 21.3428L53.1885 21.4443C51.9749 22.5074 47.7968 23.7009 43.9912 24.0684L43.0635 24.1504C41.0584 24.3092 40.1104 24.2535 38.9707 24.2441C38.9613 23.0734 38.9107 22.0696 39.0684 19.958L39.1494 18.9814C39.5179 14.8991 40.7886 10.3329 41.8369 9.24512C43.4469 7.58149 45.5046 6.75488 47.5654 6.75488L47.5684 6.75195ZM25.4316 6.75195C27.4925 6.75195 29.5537 7.5784 31.1602 9.24219C32.212 10.3303 33.4791 14.8953 33.8477 18.9775C34.1016 21.7823 34.0332 22.9023 34.0225 24.2402C32.883 24.2496 31.938 24.3061 29.9365 24.1475L29.0098 24.0654C25.2006 23.698 21.0221 22.5045 19.8115 21.4414L19.7041 21.3389C16.4876 18.0114 16.4876 12.5658 19.7041 9.23828C21.314 7.57473 23.3709 6.74815 25.4316 6.74805V6.75195ZM47.5654 7.85547C45.8055 7.85547 44.0318 8.55904 42.627 10.0107C42.5122 10.1311 42.3008 10.4616 42.04 11.0791C41.7916 11.6675 41.5377 12.4201 41.2988 13.2832C40.8808 14.7938 40.5242 16.5884 40.3223 18.335L40.2451 19.0801C40.0644 21.0756 40.0487 22.1846 40.0576 23.1582C40.9811 23.1682 42.019 23.1539 43.8848 22.9736L44.5996 22.8955C46.2731 22.6905 47.9804 22.3342 49.4141 21.915C50.2333 21.6755 50.9449 21.4209 51.5 21.1709C52.0843 20.9077 52.3932 20.6944 52.5059 20.5781L52.7607 20.3008C55.2257 17.4748 55.2257 13.109 52.7607 10.2832L52.5059 10.0059C51.1491 8.60075 49.4397 7.89808 47.7334 7.85547H47.5654ZM25.2852 7.85156C23.574 7.88965 21.8598 8.59102 20.4941 10.002L20.4951 10.0029C17.7783 12.8135 17.6932 17.3769 20.2402 20.2969L20.4951 20.5742L20.4961 20.5752L20.6172 20.6797C20.778 20.8006 21.0605 20.9703 21.499 21.168C22.0536 21.418 22.7646 21.6725 23.584 21.9121C25.2224 22.3912 27.2189 22.7878 29.1152 22.9707H29.1162L30.0176 23.0498C31.3355 23.1546 32.1742 23.1626 32.9355 23.1543C32.9438 22.3474 32.9367 21.4488 32.8311 20.0303L32.752 19.0762C32.5738 17.103 32.1765 15.0057 31.6992 13.2793C31.4607 12.4164 31.2074 11.6642 30.959 11.0762C30.6966 10.4553 30.4835 10.1252 30.3691 10.0068V10.0059C28.9687 8.55549 27.1923 7.85156 25.4316 7.85156H25.2852ZM25.4385 0.900391V2H25.4316V0.900391H25.4385Z" fill="url(#paint1_linear_2005_210)"/>
<defs>
<linearGradient id="paint0_linear_2005_210" x1="36.5" y1="2" x2="36.5" y2="83.9532" gradientUnits="userSpaceOnUse">
<stop stop-color="#C30044"/>
<stop offset="1" stop-color="#C5CBD5"/>
</linearGradient>
<linearGradient id="paint1_linear_2005_210" x1="36.5" y1="2" x2="36.5" y2="83.9532" gradientUnits="userSpaceOnUse">
<stop stop-color="#C30044"/>
<stop offset="1" stop-color="#C5CBD5"/>
</linearGradient>
</defs>
</svg>
