<svg width="347" height="161" viewBox="0 0 347 161" fill="none" xmlns="http://www.w3.org/2000/svg">
<path d="M56.1932 159.989C49.233 159.941 42.4384 158.734 35.8097 156.366C29.1809 153.952 23.215 150.045 17.9119 144.648C12.6089 139.203 8.39489 131.982 5.26989 122.986C2.14489 113.942 0.606061 102.744 0.653409 89.392C0.653409 76.9394 1.97917 65.8362 4.63068 56.0824C7.2822 46.3286 11.0938 38.09 16.0653 31.3665C21.0369 24.5956 27.0265 19.4347 34.0341 15.8835C41.089 12.3324 48.9725 10.5568 57.6847 10.5568C66.8229 10.5568 74.9195 12.3561 81.9744 15.9545C89.0767 19.553 94.8059 24.4773 99.1619 30.7273C103.518 36.9299 106.217 43.9375 107.259 51.75H81.3352C80.0095 46.1629 77.2869 41.7121 73.1676 38.3977C69.0956 35.036 63.9347 33.3551 57.6847 33.3551C47.5994 33.3551 39.8343 37.7348 34.3892 46.4943C28.9915 55.2538 26.2689 67.2803 26.2216 82.5739H27.2159C29.536 78.4072 32.5426 74.8324 36.2358 71.8494C39.929 68.8665 44.0956 66.5701 48.7358 64.9602C53.4233 63.303 58.3712 62.4744 63.5795 62.4744C72.1023 62.4744 79.7491 64.5104 86.5199 68.5824C93.3381 72.6544 98.7358 78.2651 102.713 85.4148C106.69 92.517 108.655 100.661 108.608 109.847C108.655 119.411 106.477 128.005 102.074 135.628C97.6705 143.204 91.5388 149.17 83.679 153.526C75.8191 157.882 66.6572 160.036 56.1932 159.989ZM56.0511 138.682C61.2121 138.682 65.8286 137.427 69.9006 134.918C73.9725 132.408 77.1922 129.023 79.5597 124.761C81.9271 120.5 83.0871 115.718 83.0398 110.415C83.0871 105.206 81.9508 100.495 79.6307 96.2812C77.358 92.0672 74.2093 88.7292 70.1847 86.267C66.16 83.8049 61.5672 82.5739 56.4062 82.5739C52.571 82.5739 48.9962 83.3078 45.6818 84.7756C42.3674 86.2434 39.4792 88.2794 37.017 90.8835C34.5549 93.4403 32.6136 96.4233 31.1932 99.8324C29.8201 103.194 29.1098 106.793 29.0625 110.628C29.1098 115.694 30.2936 120.358 32.6136 124.619C34.9337 128.881 38.1297 132.29 42.2017 134.847C46.2737 137.403 50.8902 138.682 56.0511 138.682ZM186.378 160.77C174.683 160.77 164.645 157.811 156.264 151.892C147.931 145.926 141.515 137.332 137.017 126.111C132.566 114.842 130.341 101.277 130.341 85.4148C130.388 69.553 132.637 56.0587 137.088 44.9318C141.586 33.7576 148.002 25.2348 156.335 19.3636C164.716 13.4924 174.73 10.5568 186.378 10.5568C198.026 10.5568 208.04 13.4924 216.42 19.3636C224.801 25.2348 231.217 33.7576 235.668 44.9318C240.166 56.1061 242.415 69.6004 242.415 85.4148C242.415 101.324 240.166 114.913 235.668 126.182C231.217 137.403 224.801 145.973 216.42 151.892C208.087 157.811 198.073 160.77 186.378 160.77ZM186.378 138.54C195.469 138.54 202.642 134.065 207.898 125.116C213.201 116.12 215.852 102.886 215.852 85.4148C215.852 73.8617 214.645 64.1553 212.23 56.2955C209.815 48.4356 206.406 42.517 202.003 38.5398C197.599 34.5152 192.391 32.5028 186.378 32.5028C177.334 32.5028 170.185 37.0009 164.929 45.9972C159.673 54.946 157.022 68.0852 156.974 85.4148C156.927 97.0151 158.087 106.769 160.455 114.676C162.869 122.583 166.278 128.549 170.682 132.574C175.085 136.551 180.317 138.54 186.378 138.54ZM307.93 74.6364V70.0341C307.93 66.5398 308.668 63.3295 310.146 60.4034C311.651 57.4489 313.825 55.0909 316.665 53.3295C319.535 51.5398 323.029 50.6449 327.148 50.6449C331.325 50.6449 334.833 51.5256 337.674 53.2869C340.543 55.0483 342.702 57.4062 344.151 60.3608C345.629 63.2869 346.367 66.5114 346.367 70.0341V74.6364C346.367 78.1307 345.629 81.3551 344.151 84.3097C342.674 87.2358 340.501 89.5795 337.631 91.3409C334.762 93.1307 331.268 94.0256 327.148 94.0256C322.972 94.0256 319.464 93.1307 316.623 91.3409C313.782 89.5795 311.623 87.2358 310.146 84.3097C308.668 81.3551 307.93 78.1307 307.93 74.6364ZM320.33 70.0341V74.6364C320.33 76.6534 320.813 78.5568 321.779 80.3466C322.773 82.1364 324.563 83.0312 327.148 83.0312C329.734 83.0312 331.495 82.1506 332.433 80.3892C333.398 78.6278 333.881 76.7102 333.881 74.6364V70.0341C333.881 67.9602 333.427 66.0284 332.518 64.2386C331.609 62.4489 329.819 61.554 327.148 61.554C324.592 61.554 322.816 62.4489 321.822 64.2386C320.827 66.0284 320.33 67.9602 320.33 70.0341ZM263.143 24.6932V20.0909C263.143 16.5682 263.896 13.3437 265.401 10.4176C266.907 7.46306 269.08 5.1051 271.921 3.34374C274.79 1.58238 278.256 0.701697 282.319 0.701697C286.523 0.701697 290.046 1.58238 292.887 3.34374C295.728 5.1051 297.887 7.46306 299.364 10.4176C300.842 13.3437 301.58 16.5682 301.58 20.0909V24.6932C301.58 28.2159 300.827 31.4403 299.322 34.3665C297.844 37.2926 295.671 39.6364 292.802 41.3977C289.961 43.1307 286.467 43.9972 282.319 43.9972C278.171 43.9972 274.663 43.1165 271.793 41.3551C268.952 39.5653 266.793 37.2216 265.316 34.3239C263.867 31.3977 263.143 28.1875 263.143 24.6932ZM275.629 20.0909V24.6932C275.629 26.767 276.112 28.6847 277.077 30.446C278.072 32.2074 279.819 33.0881 282.319 33.0881C284.933 33.0881 286.708 32.2074 287.646 30.446C288.612 28.6847 289.094 26.767 289.094 24.6932V20.0909C289.094 18.017 288.64 16.0852 287.731 14.2954C286.822 12.5057 285.018 11.6108 282.319 11.6108C279.79 11.6108 278.043 12.5199 277.077 14.3381C276.112 16.1562 275.629 18.0739 275.629 20.0909ZM268.768 91L328.768 3.72726H339.933L279.933 91H268.768Z" fill="#C5CBD5"/>
</svg>
