<svg width="224" height="32" viewBox="0 0 224 32" fill="none" xmlns="http://www.w3.org/2000/svg">
<path d="M31.9113 8.33912V9.92631C30.9996 8.74549 29.3114 7.93274 27.3561 7.93274C22.7349 7.93274 19.2959 12.0206 19.2959 16.8204C19.2959 21.7555 22.7002 25.7078 27.3561 25.7078C29.3114 25.7078 30.9996 24.93 31.9113 23.6797V25.2703H37.6662V8.33912H31.9113ZM39.6699 0.837311V25.2737H45.6397V16.2438C45.6397 14.4864 46.4821 13.4376 47.8306 13.4376C49.1792 13.4376 49.8899 14.351 49.8899 16.0389V25.2737H55.8318V14.6288C55.8318 10.5063 53.6062 7.93622 50.0285 7.93622C49.177 7.90519 48.3301 8.07584 47.5566 8.43428C46.7832 8.79275 46.105 9.32893 45.5772 9.99924V0.840788L39.6699 0.837311ZM94.2816 16.8133C94.2816 21.8841 90.4023 25.7009 85.2404 25.7009C80.0783 25.7009 76.199 21.8806 76.199 16.8133C76.199 11.7462 80.0783 7.92584 85.2404 7.92584C90.4023 7.92584 94.2816 11.7462 94.2816 16.8133ZM75.1867 16.8133C75.1867 21.8841 71.3074 25.7009 66.1489 25.7009C60.9905 25.7009 57.1077 21.8806 57.1077 16.8133C57.1077 11.7462 60.987 7.92584 66.1489 7.92584C71.3109 7.92584 75.1867 11.7462 75.1867 16.8133ZM0 8.33216L7.21775 25.3988L4.62117 31.5495H10.9618L20.5752 8.33216H14.2553L10.3413 18.2685L6.46201 8.33216H0ZM28.5695 20.2934C28.1095 20.3036 27.652 20.2211 27.2245 20.0507C26.7969 19.8804 26.408 19.6256 26.0807 19.3016C25.7534 18.9776 25.4944 18.591 25.3193 18.1647C25.1442 17.7385 25.0563 17.2813 25.061 16.8204C25.0568 16.3595 25.145 15.9025 25.3202 15.4765C25.4956 15.0504 25.7545 14.664 26.0816 14.3401C26.409 14.0162 26.7977 13.7614 27.225 13.5909C27.6523 13.4203 28.1095 13.3375 28.5695 13.3473C29.0261 13.3422 29.4792 13.4285 29.9021 13.6012C30.325 13.774 30.7093 14.0296 31.0322 14.3531C31.3551 14.6766 31.6103 15.0615 31.7828 15.4852C31.9552 15.9089 32.0413 16.3628 32.0361 16.8204C32.0418 17.278 31.956 17.7322 31.7837 18.156C31.6115 18.5799 31.3562 18.965 31.0332 19.2887C30.7102 19.6122 30.3258 19.8679 29.9027 20.0405C29.4795 20.2129 29.0263 20.299 28.5695 20.2934ZM69.522 16.8204C69.5328 16.3719 69.4533 15.926 69.2879 15.5092C69.1226 15.0925 68.8751 14.7134 68.5603 14.3946C68.2454 14.0759 67.8695 13.8241 67.4551 13.6543C67.0408 13.4844 66.5966 13.4001 66.1489 13.4063C65.7013 13.4001 65.257 13.4844 64.8426 13.6543C64.4284 13.8241 64.0525 14.0759 63.7376 14.3946C63.4226 14.7134 63.1751 15.0925 63.01 15.5092C62.8446 15.926 62.765 16.3719 62.7759 16.8204C62.765 17.2687 62.8446 17.7145 63.01 18.1314C63.1751 18.5482 63.4226 18.9273 63.7376 19.2461C64.0525 19.5647 64.4284 19.8166 64.8426 19.9864C65.257 20.1563 65.7013 20.2405 66.1489 20.2344C66.5966 20.2405 67.0408 20.1563 67.4551 19.9864C67.8695 19.8166 68.2454 19.5647 68.5603 19.2461C68.8751 18.9273 69.1226 18.5482 69.2879 18.1314C69.4533 17.7145 69.5328 17.2687 69.522 16.8204ZM88.6135 16.8204C88.6242 16.3719 88.5445 15.926 88.3794 15.5092C88.2141 15.0925 87.9666 14.7134 87.6517 14.3946C87.3367 14.0759 86.9608 13.8241 86.5465 13.6543C86.1321 13.4844 85.6879 13.4001 85.2404 13.4063C84.7927 13.4001 84.3485 13.4844 83.9341 13.6543C83.5197 13.8241 83.1439 14.0759 82.8289 14.3946C82.514 14.7134 82.2665 15.0925 82.1012 15.5092C81.9361 15.926 81.8564 16.3719 81.8671 16.8204C81.8564 17.2687 81.9361 17.7145 82.1012 18.1314C82.2665 18.5482 82.514 18.9273 82.8289 19.2461C83.1439 19.5647 83.5197 19.8166 83.9341 19.9864C84.3485 20.1563 84.7927 20.2405 85.2404 20.2344C85.6879 20.2405 86.1321 20.1563 86.5465 19.9864C86.9608 19.8166 87.3367 19.5647 87.6517 19.2461C87.9666 18.9273 88.2141 18.5482 88.3794 18.1314C88.5445 17.7145 88.6242 17.2687 88.6135 16.8204ZM95.0235 21.6826C95.0178 22.1945 95.1144 22.7025 95.3074 23.1765C95.5004 23.6505 95.7859 24.0812 96.1473 24.443C96.5085 24.8051 96.9384 25.0912 97.4116 25.2845C97.8849 25.4778 98.3917 25.5745 98.9028 25.569C99.4311 25.5731 99.955 25.4719 100.444 25.2714C100.933 25.0707 101.377 24.7746 101.751 24.4003C102.124 24.026 102.42 23.5809 102.62 23.0911C102.82 22.6013 102.921 22.0765 102.917 21.5471C102.926 21.0343 102.832 20.5249 102.64 20.0495C102.448 19.5739 102.163 19.1418 101.801 18.7791C101.439 18.4165 101.008 18.1306 100.533 17.9385C100.058 17.7462 99.5499 17.6519 99.038 17.6607C98.5086 17.6571 97.9838 17.7587 97.494 17.9595C97.004 18.1603 96.5587 18.4564 96.1837 18.8307C95.8088 19.2051 95.5117 19.6502 95.3095 20.1403C95.1074 20.6303 95.0042 21.1558 95.0061 21.6861L95.0235 21.6826ZM103.524 0.844263L97.1832 16.1847H104.266L110.606 0.837311L103.524 0.844263Z" fill="#6001D2"/>
<path d="M118.648 7.99499C118.648 6.19942 119.765 5.41796 121.186 5.41796C121.829 5.41269 122.466 5.55279 123.048 5.8278V0.708518C122.109 0.302103 121.092 0.105362 120.07 0.131978C115.296 0.131978 112.488 3.0806 112.488 7.85953V8.40483H110.221V13.3887H112.488V25.3568H118.648V13.3887H122.808V8.40483H118.648V7.99499ZM131.129 25.3603V8.40827H124.944V25.3603H131.129ZM131.5 3.42442C131.487 2.51177 131.116 1.64083 130.467 0.999988C129.818 0.359143 128.944 -8.94371e-05 128.033 1.67024e-08C127.122 -8.94371e-05 126.247 0.359143 125.599 0.999988C124.95 1.64083 124.579 2.51177 124.566 3.42442C124.579 4.3371 124.95 5.20803 125.599 5.84888C126.247 6.48972 127.122 6.84896 128.033 6.84886C128.944 6.84896 129.818 6.48972 130.467 5.84888C131.116 5.20803 131.487 4.3371 131.5 3.42442ZM164.937 8.40827V10.2038C163.897 8.74517 162.062 7.93246 160.031 7.93246C155.427 7.93246 152.078 11.8987 152.078 16.8825C152.078 21.8663 155.392 25.8326 160.031 25.8326C162.062 25.8326 163.845 25.0199 164.937 23.5612V25.3603H171.03V8.40827H164.937ZM165.107 16.8825C165.105 17.3378 165.015 17.7883 164.839 18.2079C164.662 18.6275 164.405 19.0078 164.082 19.3266C163.757 19.6453 163.372 19.8962 162.951 20.0646C162.528 20.2329 162.077 20.3152 161.622 20.307C161.168 20.3157 160.715 20.2337 160.293 20.0655C159.871 19.8975 159.486 19.6467 159.161 19.3279C158.837 19.0091 158.578 18.6286 158.403 18.2087C158.226 17.7889 158.135 17.3381 158.135 16.8825C158.135 16.4271 158.226 15.9763 158.403 15.5564C158.578 15.1365 158.837 14.7561 159.161 14.4373C159.486 14.1185 159.871 13.8677 160.293 13.6995C160.715 13.5314 161.168 13.4493 161.622 13.4581C162.077 13.4498 162.528 13.5322 162.951 13.7006C163.372 13.8689 163.757 14.1198 164.082 14.4386C164.405 14.7573 164.662 15.1376 164.839 15.5572C165.015 15.9769 165.105 16.4274 165.107 16.8825ZM184.101 25.3568H190.293V14.5903C190.293 10.4539 188.024 7.91163 184.399 7.91163C182.402 7.91163 180.776 8.75906 179.795 10.3428V8.37702H173.606V25.329H179.801V16.2992C179.801 14.5626 180.648 13.5206 182 13.5206C183.352 13.5206 184.101 14.4722 184.101 16.0976V25.3568ZM144.198 25.3568H150.393V14.5903C150.393 10.4539 148.126 7.91163 144.5 7.91163C142.503 7.91163 140.881 8.75906 139.896 10.3428V8.37702H133.708V25.329H139.9V16.2992C139.9 14.5626 140.745 13.5206 142.101 13.5206C143.456 13.5206 144.181 14.4722 144.181 16.0976L144.198 25.3568ZM191.984 16.879C191.984 22.3735 195.912 25.8291 201.021 25.8291C202.43 25.8353 203.821 25.5105 205.081 24.881V19.2512C204.189 19.909 203.111 20.2654 202.002 20.2688C199.836 20.2688 198.245 18.9143 198.245 16.879C198.245 14.8439 199.871 13.4893 202.002 13.4893C203.1 13.4905 204.173 13.8207 205.081 14.4375V8.81115C203.842 8.23162 202.49 7.93056 201.122 7.92902C195.776 7.92902 191.984 11.6903 191.984 16.879ZM218.11 19.6262C217.799 20.0796 217.378 20.4454 216.887 20.6886C216.395 20.9319 215.849 21.0445 215.302 21.0155C213.679 21.0155 212.358 19.9735 212.257 18.4385H223.934C223.978 18.0104 224 17.5804 224 17.15C224 11.5931 220.411 7.92902 215.201 7.92902C214.016 7.9054 212.839 8.12163 211.742 8.56478C210.642 9.00796 209.643 9.66893 208.806 10.508C207.968 11.3471 207.309 12.347 206.867 13.4477C206.424 14.5485 206.209 15.7274 206.231 16.9139C206.231 22.3039 209.751 25.8291 215.267 25.8291C218.99 25.8291 221.766 24.4051 223.39 21.6614L218.11 19.6262ZM212.289 14.9133C212.425 13.5241 213.609 12.6072 215.166 12.6072C216.723 12.6072 217.873 13.5241 218.009 14.9133H212.289Z" fill="#13151D"/>
</svg>
