<svg width="235" height="151" viewBox="0 0 235 151" fill="none" xmlns="http://www.w3.org/2000/svg">
<path d="M0.926137 148V128.966L51.4233 79.4631C56.2528 74.5862 60.2775 70.2538 63.4972 66.4659C66.7169 62.678 69.1316 59.0085 70.7415 55.4574C72.3513 51.9062 73.1562 48.1184 73.1562 44.0938C73.1562 39.5009 72.1146 35.571 70.0312 32.304C67.9479 28.9896 65.0833 26.4328 61.4375 24.6335C57.7917 22.8343 53.6487 21.9347 49.0085 21.9347C44.2263 21.9347 40.036 22.929 36.4375 24.9176C32.839 26.8589 30.0455 29.6288 28.0568 33.2273C26.1155 36.8258 25.1449 41.1108 25.1449 46.0824H0.073864C0.073864 36.8494 2.18087 28.8239 6.39489 22.0057C10.6089 15.1875 16.4091 9.90814 23.7955 6.16761C31.2292 2.42708 39.7519 0.556813 49.3636 0.556813C59.1174 0.556813 67.6875 2.37973 75.0739 6.02556C82.4602 9.6714 88.1894 14.6667 92.2614 21.0114C96.3807 27.3561 98.4403 34.6004 98.4403 42.7443C98.4403 48.1894 97.3987 53.5398 95.3153 58.7955C93.232 64.0511 89.5625 69.875 84.3068 76.267C79.0985 82.6591 71.7831 90.4006 62.3608 99.4915L37.2898 124.989V125.983H100.642V148H0.926137ZM178.909 150.77C167.214 150.77 157.176 147.811 148.795 141.892C140.462 135.926 134.046 127.332 129.548 116.111C125.098 104.842 122.872 91.2765 122.872 75.4148C122.92 59.553 125.169 46.0587 129.619 34.9318C134.117 23.7576 140.533 15.2348 148.866 9.36364C157.247 3.49242 167.261 0.556813 178.909 0.556813C190.557 0.556813 200.571 3.49242 208.952 9.36364C217.332 15.2348 223.748 23.7576 228.199 34.9318C232.697 46.1061 234.946 59.6004 234.946 75.4148C234.946 91.3239 232.697 104.913 228.199 116.182C223.748 127.403 217.332 135.973 208.952 141.892C200.618 147.811 190.604 150.77 178.909 150.77ZM178.909 128.54C188 128.54 195.173 124.065 200.429 115.116C205.732 106.12 208.384 92.8864 208.384 75.4148C208.384 63.8617 207.176 54.1553 204.761 46.2955C202.347 38.4356 198.938 32.517 194.534 28.5398C190.131 24.5152 184.922 22.5028 178.909 22.5028C169.866 22.5028 162.716 27.0009 157.46 35.9972C152.205 44.946 149.553 58.0852 149.506 75.4148C149.458 87.0151 150.618 96.7689 152.986 104.676C155.401 112.583 158.81 118.549 163.213 122.574C167.616 126.551 172.848 128.54 178.909 128.54Z" fill="#C5CBD5"/>
</svg>
