<svg viewBox="0 0 513 59" fill="none" xmlns="http://www.w3.org/2000/svg">
<path d="M0 43.939V55.7157C0 57.3338 1.31064 58.6458 2.92823 58.648H25.6527C23.8786 49.8624 8.90287 50.8611 0 43.939Z" fill="#C30044"/>
<path d="M55.7158 0H2.93233C1.31284 0 0 1.31291 0 2.93241V15.7363C3.58941 12.7471 8.74649 10.6632 15.7161 10.6632C22.877 10.6632 29.7568 12.1438 34.6697 18.181L27.4332 24.7799C25.1931 21.3473 20.8341 19.024 15.7161 19.024C5.87449 19.024 2.89803 24.9693 2.89803 29.0549C2.89803 45.4941 34.5598 35.9851 35.2885 58.6482H55.7202C57.3377 58.6458 58.6482 57.3339 58.6482 55.7158V2.93241C58.6482 1.31291 57.3353 0 55.7158 0Z" fill="#C30044"/>
<path d="M75.6177 43.828C73.6383 42.9303 72.0712 41.7112 70.9166 40.1718C69.762 38.6322 69.1297 36.9279 69.0198 35.0584H76.7723C76.9184 36.2319 77.4958 37.2027 78.5043 37.9725C79.5119 38.7421 80.7672 39.1272 82.2706 39.1272C83.7363 39.1272 84.8823 38.8341 85.707 38.2474C86.5318 37.6615 86.9441 36.9097 86.9441 35.993C86.9441 35.0034 86.4398 34.2612 85.4321 33.7663C84.4236 33.2714 82.8204 32.7311 80.6211 32.1442C78.3479 31.5944 76.488 31.0267 75.0404 30.4398C73.5919 29.8539 72.3462 28.9553 71.3016 27.7456C70.257 26.5361 69.7345 24.9056 69.7345 22.8523C69.7345 21.1667 70.2199 19.6271 71.1915 18.2337C72.1623 16.8411 73.5558 15.7414 75.3702 14.9348C77.1847 14.1288 79.3196 13.7251 81.7757 13.7251C85.4045 13.7251 88.2997 14.6323 90.463 16.4468C92.6253 18.2612 93.817 20.708 94.0369 23.787H86.6692C86.5593 22.5775 86.0549 21.6153 85.1572 20.9004C84.2586 20.1856 83.0585 19.8283 81.5557 19.8283C80.1624 19.8283 79.0901 20.0851 78.3393 20.5979C77.5875 21.1118 77.2122 21.8265 77.2122 22.7423C77.2122 23.7689 77.725 24.5482 78.7516 25.079C79.7774 25.6107 81.3719 26.1513 83.5352 26.7011C85.7345 27.2509 87.5489 27.8195 88.9783 28.4055C90.408 28.9922 91.6451 29.8995 92.6897 31.1271C93.7343 32.3556 94.2747 33.9777 94.3117 35.9931C94.3117 37.7526 93.8255 39.3291 92.8547 40.7217C91.883 42.1151 90.4904 43.2053 88.676 43.9931C86.8615 44.781 84.7447 45.1751 82.3254 45.1751C79.8324 45.1751 77.597 44.7258 75.6177 43.828Z" fill="black"/>
<path d="M169.995 21.1478C171.222 18.7655 172.89 16.9332 174.998 15.6495C177.105 14.3669 179.46 13.7251 182.063 13.7251C184.336 13.7251 186.325 14.184 188.029 15.0997C189.734 16.0164 191.099 17.171 192.125 18.5636V14.22H199.878V44.6804H192.125V40.2268C191.136 41.6564 189.77 42.8385 188.029 43.7731C186.288 44.7079 184.281 45.1751 182.008 45.1751C179.442 45.1751 177.105 44.5154 174.998 43.1959C172.89 41.8764 171.222 40.0163 169.995 37.6152C168.766 35.2149 168.153 32.4563 168.153 29.3402C168.153 26.2612 168.766 23.531 169.995 21.1478ZM191.026 24.6393C190.292 23.3016 189.302 22.275 188.056 21.5601C186.81 20.8454 185.472 20.488 184.043 20.488C182.613 20.488 181.294 20.8368 180.084 21.5327C178.874 22.2294 177.893 23.2466 177.142 24.5842C176.391 25.9227 176.015 27.5078 176.015 29.3402C176.015 31.1726 176.391 32.7766 177.142 34.1512C177.893 35.5257 178.883 36.5799 180.111 37.3127C181.339 38.0463 182.649 38.4123 184.043 38.4123C185.472 38.4123 186.81 38.0549 188.056 37.3402C189.302 36.6254 190.292 35.5996 191.025 34.2612C191.758 32.9235 192.125 31.3195 192.125 29.4502C192.125 27.5809 191.758 25.9777 191.026 24.6393Z" fill="black"/>
<path d="M217.609 15.1548C219.204 14.239 221.027 13.7803 223.08 13.7803V21.8627H221.046C218.627 21.8627 216.803 22.4315 215.575 23.5671C214.346 24.7038 213.733 26.6832 213.733 29.5053V44.6805H206.036V14.22H213.733V18.9485C214.723 17.336 216.015 16.0714 217.609 15.1548Z" fill="black"/>
<path d="M254.97 31.7596H232.702C232.884 33.9589 233.654 35.6823 235.011 36.928C236.367 38.1746 238.035 38.7974 240.014 38.7974C242.873 38.7974 244.908 37.5696 246.117 35.1135H254.42C253.54 38.0464 251.854 40.4562 249.361 42.3437C246.868 44.232 243.808 45.1752 240.179 45.1752C237.246 45.1752 234.617 44.5251 232.289 43.2234C229.961 41.9227 228.147 40.0809 226.846 37.6977C225.544 35.3152 224.894 32.5661 224.894 29.4503C224.894 26.2981 225.535 23.5311 226.819 21.1478C228.101 18.7655 229.898 16.9332 232.207 15.6495C234.516 14.3669 237.173 13.7251 240.179 13.7251C243.074 13.7251 245.668 14.3488 247.959 15.5945C250.25 16.8411 252.028 18.61 253.293 20.9003C254.557 23.1916 255.19 25.8212 255.19 28.7903C255.19 29.89 255.116 30.88 254.97 31.7596ZM247.217 26.5912C247.18 24.6118 246.465 23.0268 245.073 21.8352C243.679 20.6446 241.975 20.0483 239.959 20.0483C238.053 20.0483 236.449 20.6256 235.148 21.7802C233.847 22.9348 233.05 24.5388 232.757 26.5912H247.217Z" fill="black"/>
<path d="M259.285 21.1478C260.513 18.7655 262.19 16.9332 264.316 15.6495C266.441 14.3669 268.806 13.7251 271.409 13.7251C273.388 13.7251 275.275 14.1565 277.072 15.0173C278.868 15.8789 280.297 17.0241 281.361 18.4538V2.62402H289.168V44.6804H281.361V40.1719C280.407 41.6753 279.07 42.8849 277.347 43.8008C275.623 44.7166 273.626 45.1752 271.354 45.1752C268.788 45.1752 266.441 44.5155 264.316 43.196C262.19 41.8764 260.513 40.0164 259.285 37.6153C258.057 35.215 257.443 32.4564 257.443 29.3403C257.443 26.2613 258.057 23.531 259.285 21.1478ZM280.316 24.6393C279.582 23.3016 278.593 22.275 277.347 21.5601C276.1 20.8454 274.763 20.488 273.333 20.488C271.904 20.488 270.584 20.8368 269.375 21.5327C268.165 22.2294 267.184 23.2466 266.433 24.5842C265.681 25.9227 265.306 27.5078 265.306 29.3402C265.306 31.1726 265.681 32.7766 266.433 34.1512C267.184 35.5257 268.174 36.5799 269.402 37.3127C270.63 38.0463 271.94 38.4123 273.333 38.4123C274.763 38.4123 276.1 38.0549 277.347 37.3402C278.593 36.6254 279.582 35.5996 280.316 34.2612C281.049 32.9235 281.416 31.3195 281.416 29.4502C281.416 27.5809 281.049 25.9777 280.316 24.6393Z" fill="black"/>
<path d="M97.2808 29.5648C97.2808 26.4488 97.8939 23.6902 99.1225 21.2899C100.35 18.8887 102.027 17.0287 104.154 15.7091C106.279 14.3897 108.625 13.73 111.191 13.73C113.463 13.73 115.461 14.1885 117.184 15.1044C118.907 16.0203 120.245 17.2298 121.198 18.7333V14.2248H129.006V56.2811H121.198V40.4514C120.134 41.8811 118.705 43.0262 116.909 43.8878C115.113 44.7487 113.226 45.1801 111.246 45.1801C108.643 45.1801 106.279 44.5382 104.154 43.2557C102.027 41.972 100.35 40.1396 99.1225 37.7574C97.8939 35.3741 97.2808 32.6438 97.2808 29.5648ZM121.253 29.4547C121.253 27.5855 120.886 25.9814 120.153 24.6437C119.42 23.3053 118.43 22.2796 117.184 21.5647C115.938 20.85 114.6 20.4926 113.171 20.4926C111.777 20.4926 110.467 20.8587 109.239 21.5923C108.011 22.325 107.021 23.3792 106.27 24.7538C105.518 26.1284 105.143 27.7315 105.143 29.5648C105.143 31.398 105.518 32.9822 106.27 34.3208C107.021 35.6583 108.002 36.6754 109.212 37.3722C110.421 38.0681 111.741 38.4169 113.171 38.4169C114.6 38.4169 115.938 38.0595 117.184 37.3448C118.43 36.63 119.42 35.6033 120.153 34.2656C120.886 32.9272 121.253 31.3241 121.253 29.4547Z" fill="black"/>
<path d="M308.027 18.6737H301.704V44.6806H296.7V18.6737H292.797V14.55H296.7V12.4058C296.7 9.03386 297.571 6.56895 299.312 5.01059C301.053 3.45312 303.848 2.67383 307.697 2.67383V6.85251C305.498 6.85251 303.949 7.28387 303.051 8.14475C302.153 9.00636 301.704 10.4264 301.704 12.4059V14.5501H308.027V18.6737Z" fill="black"/>
<path d="M348.219 17.3265C350.491 19.5448 351.627 22.7423 351.627 26.9209V44.6804H346.679V27.6358C346.679 24.6307 345.927 22.3299 344.425 20.7354C342.921 19.141 340.869 18.3436 338.267 18.3436C335.627 18.3436 333.529 19.1684 331.971 20.8178C330.413 22.4673 329.634 24.8685 329.634 28.0206V44.6804H324.631V14.5498H329.634V18.8385C330.624 17.299 331.971 16.1084 333.675 15.2647C335.38 14.4218 337.258 14 339.311 14C342.976 14 345.945 15.1091 348.219 17.3265Z" fill="black"/>
<path d="M358.445 21.3954C359.691 19.0681 361.405 17.2631 363.586 15.9796C365.767 14.6968 368.195 14.0552 370.871 14.0552C373.511 14.0552 375.801 14.6238 377.744 15.7596C379.687 16.8962 381.134 18.3256 382.088 20.0482V14.5499H387.146V44.6805H382.088V39.0724C381.098 40.8317 379.622 42.2888 377.662 43.4434C375.7 44.5982 373.419 45.1752 370.816 45.1752C368.14 45.1752 365.721 44.5155 363.559 43.1961C361.395 41.8765 359.691 40.026 358.445 37.6427C357.199 35.2604 356.576 32.5482 356.576 29.5053C356.576 26.4263 357.199 23.7235 358.445 21.3954ZM380.713 23.6221C379.796 21.9366 378.559 20.6446 377.002 19.7459C375.444 18.8481 373.73 18.3987 371.861 18.3987C369.992 18.3987 368.287 18.8387 366.748 19.7183C365.208 20.598 363.98 21.8816 363.064 23.5671C362.147 25.2536 361.689 27.233 361.689 29.5053C361.689 31.8145 362.147 33.8214 363.064 35.5258C363.98 37.2303 365.208 38.5318 366.748 39.4296C368.287 40.3282 369.992 40.7767 371.861 40.7767C373.731 40.7767 375.444 40.3282 377.002 39.4296C378.559 38.5318 379.796 37.2303 380.713 35.5258C381.629 33.8214 382.088 31.8335 382.088 29.5602C382.088 27.2869 381.629 25.3086 380.713 23.6221Z" fill="black"/>
<path d="M417.826 17.3265C420.099 19.5448 421.235 22.7423 421.235 26.9209V44.6804H416.287V27.6358C416.287 24.6307 415.535 22.3299 414.032 20.7354C412.529 19.141 410.477 18.3436 407.874 18.3436C405.235 18.3436 403.136 19.1684 401.579 20.8178C400.02 22.4673 399.242 24.8685 399.242 28.0206V44.6804H394.239V14.5498H399.242V18.8385C400.232 17.299 401.579 16.1084 403.283 15.2647C404.988 14.4218 406.866 14 408.919 14C412.584 14 415.553 15.1091 417.826 17.3265Z" fill="black"/>
<path d="M428.053 21.3954C429.299 19.0681 431.031 17.2631 433.249 15.9796C435.466 14.6968 438.005 14.0552 440.864 14.0552C444.566 14.0552 447.617 14.9537 450.018 16.7492C452.419 18.5456 454.005 21.0379 454.775 24.227H449.386C448.873 22.3944 447.874 20.9468 446.39 19.8833C444.905 18.8206 443.063 18.2888 440.864 18.2888C438.005 18.2888 435.696 19.27 433.936 21.2304C432.177 23.1918 431.297 25.9684 431.297 29.5603C431.297 33.1891 432.177 35.9932 433.936 37.9727C435.696 39.9521 438.005 40.9416 440.864 40.9416C443.063 40.9416 444.896 40.4288 446.362 39.4022C447.828 38.3764 448.836 36.9099 449.386 35.0036H454.775C453.968 38.0826 452.355 40.5482 449.936 42.3987C447.517 44.25 444.493 45.1752 440.864 45.1752C438.005 45.1752 435.466 44.5345 433.249 43.251C431.031 41.9682 429.299 40.1539 428.053 37.8077C426.806 35.4623 426.184 32.7132 426.184 29.5603C426.184 26.4451 426.806 23.7235 428.053 21.3954Z" fill="black"/>
<path d="M472.203 21.3954C473.449 19.0681 475.163 17.2631 477.344 15.9796C479.524 14.6968 481.953 14.0552 484.629 14.0552C487.268 14.0552 489.559 14.6238 491.502 15.7596C493.444 16.8962 494.892 18.3256 495.846 20.0482V14.5499H500.904V44.6805H495.846V39.0724C494.856 40.8317 493.38 42.2888 491.419 43.4434C489.458 44.5982 487.176 45.1752 484.574 45.1752C481.898 45.1752 479.479 44.5155 477.316 43.1961C475.153 41.8765 473.449 40.026 472.203 37.6427C470.957 35.2604 470.334 32.5482 470.334 29.5053C470.334 26.4263 470.957 23.7235 472.203 21.3954ZM494.471 23.6221C493.554 21.9366 492.317 20.6446 490.76 19.7459C489.201 18.8481 487.488 18.3987 485.619 18.3987C483.75 18.3987 482.045 18.8387 480.506 19.7183C478.966 20.598 477.737 21.8816 476.822 23.5671C475.905 25.2536 475.447 27.233 475.447 29.5053C475.447 31.8145 475.905 33.8214 476.822 35.5258C477.737 37.2303 478.966 38.5318 480.506 39.4296C482.045 40.3282 483.749 40.7767 485.619 40.7767C487.489 40.7767 489.201 40.3282 490.76 39.4296C492.317 38.5318 493.554 37.2303 494.471 35.5258C495.387 33.8214 495.846 31.8335 495.846 29.5602C495.846 27.2869 495.387 25.3086 494.471 23.6221Z" fill="black"/>
<path d="M513 2.62402V44.6804H507.997V2.62402H513Z" fill="black"/>
<path d="M312.618 8.66696C311.958 8.00724 311.628 7.20126 311.628 6.24772C311.628 5.29498 311.958 4.48835 312.618 3.82848C313.277 3.16876 314.084 2.83887 315.037 2.83887C315.953 2.83887 316.732 3.16876 317.374 3.82848C318.015 4.48835 318.336 5.29505 318.336 6.24772C318.336 7.20134 318.015 8.00724 317.374 8.66696C316.732 9.32667 315.953 9.65672 315.037 9.65672C314.084 9.65672 313.277 9.32667 312.618 8.66696ZM317.456 14.55V44.6806H312.453V14.55H317.456Z" fill="black"/>
<path d="M156.167 14.2198V30.9895C156.167 31.4326 156.146 31.8565 156.105 32.2621C155.924 34.0712 155.34 35.5078 154.352 36.5703C153.143 37.8718 151.474 38.5222 149.349 38.5222C147.26 38.5222 145.61 37.8718 144.4 36.5703C143.412 35.5078 142.828 34.0711 142.647 32.2621C142.607 31.8565 142.586 31.4326 142.586 30.9895V14.2198H134.802V30.0479C134.802 33.0356 135.425 35.6717 136.673 37.956C137.92 40.2411 139.66 42.0072 141.892 43.2544C144.084 44.4802 146.556 45.1017 149.307 45.1236C149.308 45.1236 149.309 45.1239 149.31 45.1239C149.312 45.1239 149.315 45.1239 149.317 45.1239C149.319 45.1239 149.32 45.1239 149.322 45.1239C149.324 45.1239 149.325 45.1239 149.326 45.1239C152.078 45.1019 154.55 44.4801 156.741 43.2543C158.974 42.0072 160.713 40.241 161.961 37.956C163.209 35.6715 163.832 33.0355 163.832 30.0478V14.2197L156.167 14.2198Z" fill="black"/>
<path d="M460.217 8.66696C459.558 8.00724 459.228 7.20126 459.228 6.24772C459.228 5.29498 459.558 4.48835 460.217 3.82848C460.877 3.16876 461.683 2.83887 462.637 2.83887C463.552 2.83887 464.332 3.16876 464.974 3.82848C465.614 4.48835 465.936 5.29505 465.936 6.24772C465.936 7.20134 465.614 8.00724 464.974 8.66696C464.332 9.32667 463.552 9.65672 462.637 9.65672C461.683 9.65672 460.877 9.32667 460.217 8.66696ZM465.056 14.55V44.6806H460.052V14.55H465.056Z" fill="black"/>
</svg>
