<svg width="118" height="78" viewBox="0 0 118 78" fill="none" xmlns="http://www.w3.org/2000/svg">
<path fill-rule="evenodd" clip-rule="evenodd" d="M19.976 1.9641V5.58941C19.976 6.62492 20.8568 7.41847 21.8402 7.41847H25.4638C26.517 7.41847 27.3259 6.62492 27.3259 5.58941V1.9641C27.3259 0.92859 26.517 0.065323 25.4638 0.065323H21.8402C20.8547 0.065323 19.976 0.92859 19.976 1.9641ZM8.08492 1.9641V5.58941C8.08492 6.62492 8.96362 7.41847 9.94907 7.41847H13.5706C14.6259 7.41847 15.4347 6.62492 15.4347 5.58941V1.9641C15.4347 0.92859 14.6259 0.065323 13.5706 0.065323H9.94907C8.96362 0.065323 8.08492 0.92859 8.08492 1.9641ZM19.9576 20.7509V36.7941H51.1081V12.0813H51.0403C46.9959 12.0813 43.7439 15.3253 43.7439 19.3648V29.4471H39.2149V12.0813H39.1451C35.1705 12.0813 31.9185 15.3253 31.8507 19.3648V29.4471H27.3217V11.907C24.6939 12.0096 23.69 12.0813 21.5466 12.391C17.3276 13.2542 13.8354 14.7039 10.7251 17.2937C7.23292 19.9861 4.39769 23.7508 2.70395 27.9277C1.45776 30.8969 1.15186 32.4942 0.630394 36.7941H8.46268C8.63719 34.4463 8.84454 33.0725 9.3968 31.5182C9.88132 30.0685 10.4685 28.5859 11.4026 27.3761C13.6158 24.0604 16.256 21.5793 19.9576 20.7509ZM43.7562 43.2574V46.8827C43.7562 47.9182 44.6369 48.7117 45.6203 48.7117H49.2439C50.2992 48.7117 51.1081 47.9182 51.1081 46.8827V43.2574C51.1081 42.2219 50.2992 41.3586 49.2439 41.3586H45.6203C44.6349 41.3586 43.7562 42.2219 43.7562 43.2574ZM31.8651 43.2574V46.8827C31.8651 47.9182 32.7438 48.7117 33.7292 48.7117H37.3508C38.406 48.7117 39.2149 47.9182 39.2149 46.8827V43.2574C39.2149 42.2219 38.406 41.3586 37.3508 41.3586H33.7292C32.7438 41.3586 31.8651 42.2219 31.8651 43.2574ZM19.9534 43.2574V46.8827C19.9534 47.9182 20.8321 48.7117 21.8176 48.7117H25.4391C26.4944 48.7117 27.3033 47.9182 27.3033 46.8827V43.2574C27.3033 42.2219 26.4944 41.3586 25.4391 41.3586H21.8176C20.8321 41.3586 19.9534 42.2219 19.9534 43.2574ZM82.2607 25.1308C82.2607 25.1657 82.0204 25.5819 81.811 25.8895C81.3286 26.6482 81.2239 26.9619 81.2239 26.9619C81.0165 23.2669 80.1173 21.6429 77.2492 18.4318H79.4603C80.4992 18.4318 81.5708 18.5015 81.7084 18.5712C84.4389 19.4693 83.5068 22.783 82.2627 25.1329M116.836 17.8802C116.111 13.5639 114.382 9.62892 111.444 6.52034C107.328 2.17325 102.627 0.342142 95.0551 -0.00439453V29.4471H86.6172C86.7075 29.2011 86.8327 28.9673 86.9908 28.7582C89.4462 25.4712 90.4214 22.6169 90.4214 19.5042C90.4214 17.0518 89.4524 15.0833 87.8962 13.8755C86.03 12.4607 84.3712 12.0096 80.3945 12.0096H74.3093C73.1678 12.0096 72.9954 13.082 72.9954 13.082L70.4024 20.47C70.4024 20.47 70.0575 21.1959 70.8869 22.0591C73.8248 24.9914 74.5167 26.8922 74.9314 28.7233L75.0689 29.4471H65.8385V12.0772H65.7687C61.7571 12.0772 58.4743 15.3581 58.4743 19.3627V36.5911C58.4743 39.3532 56.953 41.0469 54.3252 41.254V48.642H54.4976C60.7203 48.4698 65.6989 44.1493 65.9063 36.7941L75.381 36.7921C75.5534 36.7921 81.2239 37.4544 81.2239 32.4491C81.2239 37.4544 86.2723 36.7921 86.7568 36.7921H102.417V9.59406C102.417 9.59406 106.636 9.55921 108.952 16.1209C108.952 16.1209 109.712 18.1222 109.781 21.403V36.7941H117.146V24.0604C117.146 22.7133 117.008 19.6067 116.836 17.8802ZM6.036 68.8088C5.28665 68.8088 2.46374 68.8088 2.46374 70.8204C2.46374 71.4519 2.85792 72.5367 4.51677 72.5367C5.46321 72.5367 6.17356 72.1614 6.62728 71.4704C7.04404 70.7999 7.06252 70.2483 7.10152 68.8683C6.76688 68.8293 6.48972 68.8088 6.036 68.8088ZM7.31914 73.6788C7.18159 73.1867 7.14258 72.7151 7.14258 72.2024C6.25362 73.8367 4.91095 73.9946 4.08153 73.9946C1.81088 73.9946 0.58728 72.713 0.58728 71.0767C0.58728 70.2893 0.862385 69.0262 2.32414 68.1793C3.39171 67.5867 4.97049 67.5273 5.75885 67.5273C6.23309 67.5273 6.52873 67.5478 7.10152 67.5888C7.10152 66.3646 7.10152 65.8335 6.74635 65.3988C6.37065 64.9067 5.56176 64.7488 5.03002 64.7488C3.15356 64.7488 3.05501 66.0304 3.03448 66.4241H1.17855C1.24014 65.9115 1.29763 65.2225 1.87042 64.552C2.61977 63.7236 4.02199 63.4857 5.06903 63.4857C6.51025 63.4857 8.05002 63.9409 8.58381 64.9457C8.89792 65.5362 8.91845 66.0119 8.91845 66.463L8.84043 71.1956C8.84043 71.3535 8.86096 72.674 8.99852 73.6788H7.31914ZM16.4469 59.4646H18.3028V73.6788H16.4469V59.4646ZM30.7934 68.8088C30.042 68.8088 27.2191 68.8088 27.2191 70.8204C27.2191 71.4519 27.6133 72.5367 29.2721 72.5367C30.2206 72.5367 30.931 72.1614 31.3847 71.4704C31.7994 70.7999 31.8199 70.2483 31.8569 68.8683C31.5222 68.8293 31.2471 68.8088 30.7934 68.8088ZM32.0766 73.6788C31.9369 73.1867 31.8979 72.7151 31.8979 72.2024C31.009 73.8367 29.6663 73.9946 28.8389 73.9946C26.5683 73.9946 25.3426 72.713 25.3426 71.0767C25.3426 70.2893 25.6198 69.0262 27.0815 68.1793C28.1471 67.5867 29.7258 67.5273 30.5163 67.5273C30.9884 67.5273 31.2861 67.5478 31.8589 67.5888C31.8589 66.3646 31.8589 65.8335 31.5038 65.3988C31.1281 64.9067 30.3192 64.7488 29.7854 64.7488C27.911 64.7488 27.8124 66.0304 27.7919 66.4241H25.936C25.9955 65.9115 26.055 65.2225 26.6258 64.552C27.3772 63.7236 28.7794 63.4857 29.8244 63.4857C31.2656 63.4857 32.8054 63.9409 33.3392 64.9457C33.6553 65.5362 33.6759 66.0119 33.6759 66.463L33.5958 71.1956C33.5958 71.3535 33.6163 72.674 33.7539 73.6788H32.0766ZM41.2351 65.7925C41.2351 65.1241 41.194 64.433 41.1365 63.783H43.011L43.052 65.6941C43.4072 64.3141 44.5918 63.8609 45.4212 63.7441C45.9735 63.6641 46.3861 63.6825 46.7043 63.703V65.5178C46.6058 65.4767 46.4867 65.4562 46.3492 65.4378C46.2096 65.4173 46.033 65.4173 45.8154 65.4173C43.6248 65.4173 43.1095 66.7194 43.1095 68.4151V73.6788H41.2371L41.2351 65.7925ZM57.9344 68.8088C57.183 68.8088 54.3621 68.8088 54.3621 70.8204C54.3621 71.4519 54.7542 72.5367 56.4151 72.5367C57.3595 72.5367 58.0719 72.1614 58.5257 71.4704C58.9404 70.7999 58.9609 70.2483 58.9999 68.8683C58.6653 68.8293 58.3881 68.8088 57.9323 68.8088H57.9344ZM59.2175 73.6788C59.0779 73.1867 59.0389 72.7151 59.0389 72.2024C58.1499 73.8367 56.8093 73.9946 55.9799 73.9946C53.7093 73.9946 52.4836 72.713 52.4836 71.0767C52.4836 70.2893 52.7608 69.0262 54.2225 68.1793C55.2901 67.5867 56.8668 67.5273 57.6572 67.5273C58.1294 67.5273 58.4271 67.5478 58.9999 67.5888C58.9999 66.3646 58.9999 65.8335 58.6447 65.3988C58.269 64.9067 57.4601 64.7488 56.9263 64.7488C55.0519 64.7488 54.9534 66.0304 54.9329 66.4241H53.0769C53.1365 65.9115 53.196 65.2225 53.7688 64.552C54.5182 63.7236 55.9204 63.4857 56.9654 63.4857C58.4086 63.4857 59.9484 63.9409 60.4801 64.9457C60.7963 65.5362 60.8168 66.0119 60.8168 66.463L60.7368 71.1956C60.7368 71.3535 60.7573 72.674 60.8948 73.6788H59.2175ZM72.981 64.7878C70.1376 64.7878 70.1376 68.0993 70.1376 68.7309C70.1376 69.3809 70.1376 72.4772 72.9009 72.4772C75.1921 72.4772 75.7649 70.2483 75.7649 68.6325C75.7649 67.6482 75.5678 64.7878 72.981 64.7878ZM70.1766 65.2225C70.4332 64.7673 71.1641 63.5267 73.4142 63.5267C74.4017 63.5267 75.6458 63.7625 76.5553 64.7878C77.048 65.3599 77.7194 66.3462 77.7194 68.5136C77.7194 70.4267 77.2636 71.4704 76.7709 72.1225C75.9805 73.2461 74.6583 73.8162 73.2951 73.8162C72.8229 73.8162 71.934 73.7588 71.0861 73.1867C70.5317 72.8114 70.3141 72.4772 70.117 72.1819L70.078 73.6788H68.2816L68.3227 71.9051V59.4441H70.1766V65.2225ZM84.7284 63.783H86.5843V73.6788H84.7284V63.783ZM84.5313 59.4851H86.7629V61.5151H84.5313V59.4851ZM98.999 73.7383L97.5762 77.4251H95.6607L97.1615 73.6398L93.0349 63.783H95.129L98.2291 71.5893L101.387 63.783H103.401L98.999 73.7383ZM114.284 68.8088C113.532 68.8088 110.711 68.8088 110.711 70.8204C110.711 71.4519 111.106 72.5367 112.764 72.5367C113.711 72.5367 114.421 72.1614 114.877 71.4704C115.29 70.7999 115.31 70.2483 115.349 68.8683C115.015 68.8293 114.739 68.8088 114.284 68.8088ZM115.567 73.6788C115.429 73.1867 115.39 72.7151 115.39 72.2024C114.501 73.8367 113.159 73.9946 112.329 73.9946C110.059 73.9946 108.835 72.713 108.835 71.0767C108.835 70.2893 109.11 69.0262 110.572 68.1793C111.639 67.5867 113.218 67.5273 114.007 67.5273C114.481 67.5273 114.776 67.5478 115.349 67.5888C115.349 66.3646 115.349 65.8335 114.994 65.3988C114.618 64.9067 113.809 64.7488 113.278 64.7488C111.401 64.7488 111.303 66.0304 111.282 66.4241H109.426C109.486 65.9115 109.545 65.2225 110.118 64.552C110.867 63.7236 112.27 63.4857 113.317 63.4857C114.758 63.4857 116.298 63.9409 116.832 64.9457C117.146 65.5362 117.166 66.0119 117.166 66.463L117.088 71.1956C117.088 71.3535 117.109 72.674 117.246 73.6788H115.567Z" fill="#C5CBD5"/>
</svg>
