<svg width="148" height="57" viewBox="0 0 148 57" fill="none" xmlns="http://www.w3.org/2000/svg">
<path d="M0.246216 0.771973H115.528C123.987 0.771973 132.099 4.13439 138.08 10.1195C144.062 16.1047 147.422 24.2223 147.422 32.6866V56.6489H32.1406C23.6829 56.6489 15.5716 53.2875 9.59041 47.3039C3.60926 41.3203 0.248124 33.2046 0.246216 24.7415L0.246216 0.771973Z" fill="#C5CBD5"/>
<path d="M116.579 12.1748H110.058V39.2746H116.579V12.1748Z" fill="#F7F7F7"/>
<path d="M93.2412 18.9932C93.9726 18.997 94.6887 18.7835 95.2988 18.3797C95.9089 17.976 96.3856 17.4002 96.6684 16.7252C96.9512 16.0502 97.0275 15.3064 96.8876 14.588C96.7476 13.8696 96.3978 13.209 95.8823 12.6897C95.3669 12.1703 94.709 11.8158 93.9921 11.6709C93.2751 11.5259 92.5313 11.5972 91.8548 11.8756C91.1783 12.154 90.5996 12.627 90.192 13.2347C89.7844 13.8424 89.5661 14.5575 89.5649 15.2894C89.5649 16.2668 89.9516 17.2044 90.6405 17.8973C91.3294 18.5903 92.2644 18.9821 93.2412 18.9872" fill="#F7F7F7"/>
<path d="M83.3516 18.9936C84.0832 18.9984 84.7998 18.7857 85.4105 18.3825C86.0212 17.9794 86.4986 17.4039 86.7822 16.729C87.0657 16.0541 87.1427 15.3102 87.0033 14.5915C86.8639 13.8728 86.5145 13.2116 85.9992 12.6919C85.484 12.1721 84.8261 11.817 84.109 11.6717C83.3919 11.5264 82.6479 11.5974 81.9711 11.8756C81.2944 12.1538 80.7154 12.6268 80.3075 13.2346C79.8997 13.8425 79.6813 14.5577 79.6801 15.2898C79.6801 16.2664 80.0661 17.2033 80.754 17.8961C81.4418 18.5889 82.3756 18.9813 83.3516 18.9876" fill="#F7F7F7"/>
<path d="M73.8383 18.9981C74.8139 18.9969 75.749 18.608 76.4381 17.9171C77.1273 17.2262 77.514 16.2897 77.5134 15.3136C77.5127 14.3374 77.1248 13.4014 76.4347 12.7114C75.7447 12.0214 74.8091 11.6338 73.8335 11.6338C72.858 11.6338 71.9224 12.0214 71.2323 12.7114C70.5423 13.4014 70.1543 14.3374 70.1537 15.3136C70.1531 16.2897 70.5398 17.2262 71.2289 17.9171C71.9181 18.608 72.8532 18.9969 73.8287 18.9981" fill="#F7F7F7"/>
<path d="M53.0422 18.9936C53.7738 18.9984 54.4904 18.7857 55.1011 18.3825C55.7118 17.9794 56.1892 17.4039 56.4728 16.729C56.7563 16.0541 56.8333 15.3102 56.6939 14.5915C56.5545 13.8728 56.2051 13.2116 55.6898 12.6919C55.1746 12.1721 54.5167 11.817 53.7996 11.6717C53.0825 11.5264 52.3385 11.5974 51.6617 11.8756C50.985 12.1538 50.406 12.6268 49.9981 13.2346C49.5903 13.8425 49.3719 14.5577 49.3707 15.2898C49.3707 16.2664 49.7568 17.2033 50.4446 17.8961C51.1325 18.5889 52.0663 18.9813 53.0422 18.9876" fill="#F7F7F7"/>
<path d="M100.227 12.1699V34.0542H99.1884C98.0002 34.0542 96.9103 33.6943 96.9103 31.9702V20.6657H90.3959V31.9138C90.3959 33.6871 89.7748 34.203 88.7388 34.203C87.7029 34.203 87.0806 33.6859 87.0806 31.9234V20.6657H80.565V31.9138C80.565 33.6871 79.9439 34.203 78.9079 34.203C77.8719 34.203 77.2508 33.6847 77.2508 31.9138V20.6657H70.7305V31.975C70.7305 33.6967 69.6513 34.059 68.4523 34.059H67.4139V20.6657H60.8948V34.5833C60.8948 39.5877 60.0686 40.3652 58.0015 40.3652H56.9116V45.5795H57.9991C64.2125 45.5795 66.4295 43.2567 67.1262 39.2493C69.0874 39.2951 70.9983 38.6256 72.5027 37.3657C73.2862 38.0945 74.2111 38.6543 75.22 39.0103C76.2288 39.3663 77.3001 39.511 78.3671 39.4353C79.4392 39.5071 80.513 39.3228 81.5 38.8977C82.4869 38.4725 83.3587 37.8187 84.0434 36.9901C84.7367 37.8173 85.6148 38.4697 86.6067 38.8945C87.5986 39.3193 88.6765 39.5045 89.7532 39.4353C90.7509 39.5181 91.7547 39.3864 92.6973 39.0491C93.6399 38.7118 94.4995 38.1767 95.2184 37.4796C96.9717 38.8091 99.1511 39.4494 101.344 39.2793H106.721V12.1699H100.227Z" fill="#F7F7F7"/>
<path d="M44.0327 18.9932C44.7641 18.997 45.4802 18.7835 46.0903 18.3797C46.7004 17.976 47.1771 17.4002 47.4599 16.7252C47.7427 16.0502 47.819 15.3064 47.6791 14.588C47.5391 13.8696 47.1893 13.209 46.6738 12.6897C46.1584 12.1703 45.5005 11.8158 44.7836 11.6709C44.0666 11.5259 43.3228 11.5972 42.6463 11.8756C41.9698 12.154 41.3911 12.627 40.9835 13.2347C40.5759 13.8424 40.3576 14.5575 40.3564 15.2894C40.3564 16.2668 40.7431 17.2044 41.432 17.8973C42.1209 18.5903 43.0559 18.9821 44.0327 18.9872" fill="#F7F7F7"/>
<path d="M48.9991 20.666C43.3037 20.666 38.9584 23.2192 38.9584 29.6321C38.9584 35.2556 42.4787 37.9455 48.5842 38.1243H49.1562C48.179 39.9396 46.2677 40.3499 43.6718 40.3499C38.6994 40.3499 35.6982 38.735 35.6982 32.4816V27.4425H29.1814V33.7006C29.1814 41.7764 34.5099 45.5786 43.6166 45.5786C50.7581 45.5786 56.4463 42.9175 56.4463 33.0167V20.666H48.9991ZM45.4787 29.4245C45.4787 27.2853 46.5171 25.8251 48.8996 25.8251H49.9307V33.0155H48.8936C46.5111 33.0155 45.4727 31.9765 45.4727 29.4161" fill="#F7F7F7"/>
<path d="M93.8719 44.0918H92.4294V50.0308H93.8719V44.0918Z" fill="#F7F7F7"/>
<path d="M93.8718 44.0918H92.1512C91.2711 44.0918 89.7855 44.3654 89.7855 46.1998C89.7855 47.4836 90.5481 48.1555 92.0541 48.1903H92.4498V50.0236H93.909V44.0918H93.8718ZM92.361 47.0913H92.1105C91.4893 47.0913 91.2112 46.8033 91.2112 46.1471C91.1953 46.0231 91.2072 45.8971 91.2461 45.7784C91.285 45.6596 91.3499 45.5511 91.436 45.4606C91.5222 45.3701 91.6275 45.3 91.7441 45.2554C91.8608 45.2108 91.986 45.1929 92.1105 45.2028H92.433V47.0913H92.361Z" fill="#F7F7F7"/>
<path d="M85.9666 47.5808V45.5412C85.9822 45.3112 85.9345 45.0815 85.8288 44.8767C85.7231 44.672 85.5635 44.5001 85.3671 44.3798C85.2054 44.2803 85.0264 44.2123 84.8395 44.1794C84.5849 44.1327 84.3261 44.1122 84.0673 44.1182C83.7894 44.1142 83.5125 44.1522 83.246 44.231C83.0358 44.2946 82.8399 44.3985 82.6693 44.5369C82.5218 44.6574 82.4034 44.8095 82.3228 44.982C82.2533 45.1365 82.2127 45.3024 82.2028 45.4716H83.5014C83.5273 45.3473 83.5866 45.2324 83.6729 45.1392C83.7294 45.0848 83.7967 45.0428 83.8704 45.0159C83.9441 44.9891 84.0226 44.9779 84.1009 44.9832C84.166 44.9727 84.2327 44.9771 84.2959 44.996C84.359 45.015 84.4171 45.0481 84.4656 45.0929C84.5141 45.1376 84.5518 45.1928 84.5759 45.2542C84.5999 45.3157 84.6097 45.3818 84.6045 45.4476C84.6059 45.5206 84.5845 45.5923 84.5434 45.6527C84.4851 45.7165 84.4111 45.7637 84.3287 45.7895C84.2131 45.8362 84.0924 45.8693 83.969 45.8879C83.7914 45.9221 83.6121 45.9465 83.4319 45.9611C83.2434 45.9794 83.0569 46.014 82.8743 46.0643C82.7142 46.1075 82.5623 46.1768 82.4247 46.2694C82.2991 46.3598 82.1968 46.4786 82.1261 46.6162C82.0445 46.7815 82.0058 46.9647 82.0134 47.1489C82.0103 47.3173 82.0439 47.4843 82.1117 47.6384C82.1719 47.7764 82.262 47.8994 82.3755 47.9983C82.4955 48.0954 82.6331 48.1683 82.7808 48.2131C82.9496 48.2678 83.1262 48.2941 83.3036 48.2911C83.5379 48.2942 83.7706 48.251 83.9882 48.1639C84.1836 48.0779 84.3525 47.9412 84.4774 47.768V47.7152H84.5757V47.7764C84.5874 47.864 84.6054 47.9506 84.6297 48.0355C84.6374 48.0816 84.6559 48.1252 84.6836 48.1627H86.0182C85.9766 48.1088 85.9483 48.046 85.9354 47.9791C85.9331 47.8434 85.9428 47.7077 85.9642 47.5736L85.9666 47.5808ZM84.6477 46.7541C84.6575 46.864 84.6408 46.9746 84.5991 47.0767C84.5574 47.1788 84.4918 47.2694 84.4079 47.3408C84.2601 47.4565 84.0775 47.5186 83.8899 47.5172C83.7602 47.5189 83.6328 47.4831 83.523 47.414C83.465 47.3745 83.4182 47.3205 83.3873 47.2574C83.3564 47.1943 83.3424 47.1242 83.3467 47.0541C83.3441 46.9902 83.3554 46.9266 83.3798 46.8675C83.4043 46.8085 83.4412 46.7555 83.4882 46.7122C83.6343 46.6115 83.8018 46.5462 83.9774 46.5214L84.3048 46.4338C84.3869 46.4066 84.467 46.3737 84.5446 46.3354L84.6525 46.2814L84.6477 46.7541Z" fill="#F7F7F7"/>
<path d="M76.1153 45.936C75.9545 45.8418 75.7796 45.7742 75.5973 45.7356L75.0398 45.6325L74.7124 45.5833C74.6198 45.5701 74.5284 45.5497 74.439 45.5221C74.3641 45.5003 74.2944 45.4636 74.234 45.4141C74.2053 45.3905 74.1824 45.3606 74.1672 45.3266C74.152 45.2927 74.1449 45.2557 74.1465 45.2185C74.1438 45.1588 74.1581 45.0996 74.1875 45.0476C74.217 44.9956 74.2606 44.9529 74.3131 44.9246C74.4225 44.8763 74.5407 44.8513 74.6603 44.8513C74.7798 44.8513 74.898 44.8763 75.0074 44.9246C75.0628 44.9534 75.1103 44.9951 75.146 45.0463C75.1817 45.0975 75.2045 45.1566 75.2124 45.2185H76.4954C76.4784 45.058 76.4256 44.9033 76.3409 44.7658C76.2563 44.6283 76.1419 44.5116 76.0062 44.4243C75.5893 44.1854 75.1114 44.0749 74.6321 44.1063C74.3998 44.1058 74.1683 44.1336 73.9426 44.1891C73.7412 44.2359 73.5494 44.317 73.3755 44.4291C73.2219 44.5271 73.0931 44.6593 72.999 44.8154C72.9061 44.9721 72.8587 45.1516 72.8623 45.3337C72.8522 45.5347 72.8935 45.735 72.9822 45.9156C73.0615 46.0582 73.1717 46.1812 73.3048 46.2755C73.4444 46.3643 73.598 46.4288 73.7592 46.4663C73.9204 46.509 74.0837 46.5434 74.2484 46.5695L74.6297 46.6307C74.7387 46.6478 74.8465 46.6722 74.9522 46.7039C75.0405 46.733 75.1221 46.7795 75.192 46.8407C75.2277 46.8724 75.2559 46.9117 75.2746 46.9557C75.2932 46.9997 75.3019 47.0473 75.3 47.095C75.3034 47.1614 75.2881 47.2274 75.2556 47.2853C75.2231 47.3433 75.1749 47.3909 75.1165 47.4226C74.9936 47.4883 74.8553 47.5202 74.716 47.5149C74.5392 47.526 74.3647 47.4703 74.2268 47.359C74.1197 47.2607 74.052 47.1268 74.0362 46.9822H72.7376C72.7429 47.1617 72.7897 47.3374 72.8743 47.4957C72.9719 47.6683 73.1092 47.8152 73.2748 47.9241C73.464 48.0503 73.6744 48.1413 73.8959 48.1928C74.1615 48.2577 74.4342 48.2888 74.7076 48.2852C74.9665 48.2937 75.2255 48.2731 75.4798 48.224C75.6978 48.181 75.9064 48.0997 76.0961 47.9841C76.2599 47.8806 76.3971 47.74 76.4966 47.5737C76.5986 47.3937 76.6492 47.1891 76.6429 46.9822C76.6546 46.7586 76.6022 46.5363 76.4918 46.3415C76.4015 46.1785 76.2727 46.0401 76.1165 45.9384L76.1153 45.936Z" fill="#F7F7F7"/>
<path d="M116.427 46.3223C116.334 46.1653 116.205 46.0328 116.05 45.936C115.889 45.8426 115.715 45.775 115.532 45.7356L114.961 45.6325L114.633 45.5833C114.539 45.5696 114.446 45.5491 114.355 45.5221C114.281 45.5004 114.213 45.4637 114.155 45.4141C114.126 45.3905 114.103 45.3606 114.088 45.3266C114.073 45.2927 114.066 45.2557 114.067 45.2185C114.065 45.1588 114.079 45.0996 114.108 45.0476C114.138 44.9956 114.181 44.9529 114.234 44.9246C114.343 44.8763 114.462 44.8513 114.581 44.8513C114.701 44.8513 114.819 44.8763 114.928 44.9246C114.984 44.9534 115.031 44.9951 115.067 45.0463C115.103 45.0975 115.125 45.1566 115.133 45.2185H116.416C116.399 45.058 116.346 44.9033 116.262 44.7658C116.177 44.6283 116.063 44.5116 115.927 44.4243C115.51 44.1854 115.032 44.0749 114.553 44.1063C114.321 44.1058 114.089 44.1336 113.863 44.1891C113.662 44.2359 113.47 44.3171 113.296 44.4291C113.141 44.527 113.011 44.6592 112.915 44.8154C112.824 44.9727 112.776 45.1518 112.778 45.3337C112.77 45.5354 112.814 45.7357 112.905 45.9156C112.983 46.0593 113.094 46.1826 113.228 46.2755C113.366 46.3664 113.521 46.4311 113.682 46.4663C113.844 46.509 114.007 46.5434 114.172 46.5695L114.548 46.6307C114.659 46.6473 114.768 46.6717 114.875 46.7039C114.964 46.733 115.045 46.7795 115.115 46.8407C115.15 46.873 115.178 46.9124 115.196 46.9563C115.215 47.0001 115.224 47.0474 115.223 47.095C115.227 47.1614 115.211 47.2274 115.179 47.2853C115.146 47.3433 115.098 47.3909 115.04 47.4226C114.915 47.4888 114.775 47.5207 114.634 47.5149C114.458 47.5249 114.284 47.4694 114.145 47.359C114.04 47.26 113.975 47.126 113.962 46.9822H112.682C112.688 47.1617 112.734 47.3374 112.819 47.4957C112.917 47.6683 113.054 47.8152 113.22 47.9241C113.409 48.0502 113.619 48.1412 113.841 48.1928C114.106 48.2577 114.379 48.2887 114.652 48.2852C114.909 48.2874 115.164 48.2613 115.415 48.2072C115.633 48.1628 115.841 48.0817 116.031 47.9673C116.195 47.8637 116.332 47.7232 116.432 47.5569C116.534 47.3769 116.584 47.1723 116.578 46.9654C116.587 46.742 116.535 46.5204 116.427 46.3247V46.3223Z" fill="#F7F7F7"/>
<path d="M86.74 48.2202H88.2064V46.0689C88.2064 45.8716 88.2847 45.6824 88.4242 45.5429C88.5636 45.4034 88.7526 45.325 88.9498 45.325H89.2556V44.3076H88.4618C88.0059 44.3089 87.5689 44.4907 87.2465 44.8133C86.9241 45.1359 86.7425 45.5731 86.7412 46.0293L86.74 48.2202Z" fill="#F7F7F7"/>
<path d="M79.3131 44.0916C79.1803 44.0927 79.0478 44.106 78.9174 44.1312H78.8347V42.106H77.3071V48.2249H78.8419V45.6766C78.8386 45.6103 78.8488 45.5441 78.8719 45.4819C78.895 45.4197 78.9304 45.3629 78.9761 45.3149C79.0218 45.2668 79.0768 45.2286 79.1377 45.2024C79.1986 45.1763 79.2642 45.1628 79.3305 45.1628C79.3968 45.1628 79.4624 45.1763 79.5233 45.2024C79.5842 45.2286 79.6392 45.2668 79.6849 45.3149C79.7306 45.3629 79.766 45.4197 79.7891 45.4819C79.8122 45.5441 79.8224 45.6103 79.8191 45.6766V48.2177H81.3539V46.1061C81.3539 45.8393 81.301 45.5752 81.1983 45.329C81.0956 45.0828 80.9451 44.8594 80.7555 44.6718C80.5659 44.4842 80.341 44.3362 80.0938 44.2362C79.8467 44.1361 79.5821 44.0862 79.3155 44.0892L79.3131 44.0916Z" fill="#F7F7F7"/>
<path d="M67.8887 44.2141V48.2838H69.3276V46.1242H70.5494V48.2838H72.0158V42.1553H70.27C69.3851 42.1553 67.9127 42.4192 67.8887 44.2141ZM70.553 45.0996H69.3312V44.0438C69.3347 43.9329 69.361 43.824 69.4084 43.7238C69.4559 43.6236 69.5234 43.5342 69.6069 43.4613C69.6904 43.3883 69.788 43.3334 69.8936 43.2998C69.9992 43.2663 70.1106 43.2549 70.2209 43.2663H70.5434L70.553 45.0996Z" fill="#F7F7F7"/>
<path d="M104.157 44.572C103.97 44.4021 103.753 44.2679 103.517 44.176C103.248 44.0781 102.964 44.0302 102.678 44.0344C102.382 44.0317 102.088 44.0868 101.813 44.1964C101.561 44.2965 101.332 44.4481 101.142 44.6415C100.952 44.8341 100.802 45.0625 100.702 45.3134C100.493 45.8617 100.493 46.4676 100.702 47.0159C100.801 47.2689 100.952 47.4979 101.146 47.6878C101.345 47.881 101.581 48.0309 101.841 48.1282C102.128 48.2354 102.433 48.2883 102.74 48.2841C102.975 48.2878 103.21 48.2616 103.439 48.2061C103.649 48.1566 103.847 48.0687 104.025 47.947C104.212 47.8284 104.377 47.6796 104.514 47.5067C104.619 47.379 104.7 47.234 104.754 47.0783H103.405C103.34 47.1802 103.248 47.2624 103.139 47.3163C103.031 47.3701 102.91 47.3936 102.789 47.3843C102.679 47.3892 102.569 47.3719 102.466 47.3333C102.363 47.2948 102.269 47.2358 102.19 47.1599C102.039 46.9915 101.941 46.7831 101.907 46.56V46.476H104.874C104.882 46.1194 104.829 45.7641 104.718 45.425C104.61 45.0994 104.42 44.8067 104.168 44.5744L104.157 44.572ZM101.879 45.8053V45.7178C101.915 45.5071 102.006 45.3098 102.143 45.1455C102.213 45.0704 102.298 45.0115 102.393 44.9728C102.488 44.934 102.591 44.9164 102.693 44.9211C102.789 44.9187 102.885 44.9371 102.974 44.975C103.062 45.0129 103.142 45.0694 103.206 45.1407C103.346 45.3053 103.433 45.508 103.456 45.7226V45.8053H101.879Z" fill="#F7F7F7"/>
<path d="M109.598 46.6868V44.1553H108.051V46.6868C108.044 46.8123 107.99 46.9306 107.899 47.0172C107.808 47.1038 107.687 47.1521 107.562 47.1521C107.436 47.1521 107.316 47.1038 107.225 47.0172C107.134 46.9306 107.08 46.8123 107.073 46.6868V44.1553H105.546V46.2633C105.544 46.6386 105.648 47.0068 105.845 47.3259C106.043 47.6449 106.326 47.902 106.662 48.0678C106.999 48.2336 107.375 48.3013 107.748 48.2634C108.121 48.2254 108.476 48.0832 108.772 47.853L108.817 47.8243L108.861 47.853C109.206 48.1211 109.632 48.2655 110.069 48.2634C110.6 48.2621 111.109 48.0504 111.485 47.6744C111.86 47.2985 112.072 46.789 112.073 46.2573V44.1553H110.546V46.6868C110.54 46.8123 110.485 46.9306 110.394 47.0172C110.303 47.1038 110.183 47.1521 110.057 47.1521C109.932 47.1521 109.811 47.1038 109.72 47.0172C109.629 46.9306 109.575 46.8123 109.569 46.6868H109.598Z" fill="#F7F7F7"/>
<path d="M99.8262 42.2334V48.1724H98.3874V42.2334H99.8262Z" fill="#F7F7F7"/>
<path d="M95.7197 48.1714H97.1585V45.4467L98.3803 48.1714H99.8192L97.1549 42.2324H95.7161L95.7197 48.1714Z" fill="#F7F7F7"/>
</svg>
