<svg width="211" height="45" viewBox="0 0 211 45" fill="none" xmlns="http://www.w3.org/2000/svg">
<path d="M5.70101 6.19169H10.2578C14.4203 6.19169 16.2168 7.50616 16.2168 10.1789C16.2168 12.5011 14.3765 14.0785 10.7398 14.0785H5.74482V6.19169H5.70101ZM0.224045 32.3496H11.3532C17.1807 32.3496 23.052 30.2465 23.052 23.5427C23.052 19.5555 20.2478 16.5322 16.392 16.094V16.0064C19.5906 15.0425 21.7375 12.7202 21.7375 9.25879C21.7375 3.65038 16.9616 1.50342 12.2734 1.50342H0.224045V32.3496ZM5.70101 18.7668H10.9589C15.4281 18.7668 17.4874 19.906 17.4874 23.1483C17.4874 27.2232 13.544 27.7052 10.7398 27.7052H5.70101V18.7668Z" fill="#C5CBD5"/>
<path d="M26.6011 0.758789H31.8152V32.3499H26.6011V0.758789Z" fill="#C5CBD5"/>
<path d="M40.5783 21.8781C40.5783 18.5919 42.9006 15.6125 46.7125 15.6125C50.5683 15.6125 52.8467 18.6357 52.8467 21.8781C52.8467 25.1643 50.5245 28.1437 46.7125 28.1437C42.9006 28.1876 40.5783 25.1643 40.5783 21.8781ZM35.3642 21.8781C35.3642 28.4505 40.403 32.8758 46.7563 32.8758C53.0658 32.8758 58.1484 28.4505 58.1484 21.8781C58.1484 15.3058 53.1096 10.8804 46.7563 10.8804C40.403 10.9242 35.3642 15.3058 35.3642 21.8781Z" fill="#C5CBD5"/>
<path d="M65.7285 21.8781C65.7285 18.5919 68.0507 15.6125 71.8627 15.6125C75.7185 15.6125 77.9969 18.6357 77.9969 21.8781C77.9969 25.1643 75.6746 28.1437 71.8627 28.1437C68.0069 28.1876 65.7285 25.1643 65.7285 21.8781ZM60.4706 21.8781C60.4706 28.4505 65.5094 32.8758 71.8627 32.8758C78.1721 32.8758 83.2548 28.4505 83.2548 21.8781C83.2548 15.3058 78.2159 10.8804 71.8627 10.8804C65.5532 10.9242 60.4706 15.3058 60.4706 21.8781Z" fill="#C5CBD5"/>
<path d="M86.4533 11.4496H91.4045V14.7358H91.4921C92.4122 12.7641 94.4277 10.9238 97.8892 10.9238C101.132 10.9238 103.322 12.1945 104.418 14.8234C105.951 12.1507 108.186 10.9238 111.297 10.9238C116.861 10.9238 118.833 14.9111 118.833 19.906V32.3935H113.619V20.5194C113.619 17.8905 112.83 15.6559 109.719 15.6559C106.433 15.6559 105.206 18.3725 105.206 21.0452V32.3935H99.9923V19.906C99.9923 17.3209 98.9407 15.6121 96.3994 15.6121C92.938 15.6121 91.6235 18.1534 91.6235 20.9138V32.3497H86.4095V11.4496H86.4533Z" fill="#C5CBD5"/>
<path d="M140.478 21.878C140.478 25.1641 138.156 28.1436 134.344 28.1436C130.488 28.1436 128.21 25.1203 128.21 21.878C128.21 18.5918 130.532 15.6123 134.344 15.6123C138.156 15.6123 140.478 18.6356 140.478 21.878ZM123.127 32.3499H128.078V29.1952H128.166C129.699 31.7365 132.46 32.8757 135.352 32.8757C141.793 32.8757 145.692 28.0998 145.692 21.878C145.692 15.6999 141.53 10.8802 135.571 10.8802C131.627 10.8802 129.568 12.7205 128.473 14.0788H128.341V0.758789H123.127V32.3499Z" fill="#C5CBD5"/>
<path d="M153.316 19.8188C153.71 16.7955 155.638 14.8676 158.705 14.8676C161.992 14.8676 163.963 16.7955 164.007 19.8188H153.316ZM169.265 23.7184V22.2724C169.265 14.999 165.278 10.8804 159.45 10.8804C153.141 10.8804 148.058 15.3058 148.058 21.8781C148.058 28.4505 153.097 32.8758 159.45 32.8758C162.78 32.8758 165.847 31.6928 168.301 28.6695L164.533 25.8215C163.218 27.4427 161.51 28.6695 158.924 28.6695C155.989 28.6695 153.667 26.7855 153.316 23.7184H169.265Z" fill="#C5CBD5"/>
<path d="M172.683 11.4496H177.897V14.7796H177.984C179.123 12.3697 181.446 10.9238 184.162 10.9238C184.82 10.9238 185.433 11.0553 186.046 11.2305V16.2693C185.17 16.0503 184.338 15.875 183.505 15.875C178.598 15.875 177.897 20.0375 177.897 21.1329V32.3497H172.683V11.4496Z" fill="#C5CBD5"/>
<path d="M197.789 15.6121C201.601 15.6121 203.967 18.1534 203.967 21.7463C203.967 25.2516 201.601 27.8805 197.745 27.8805C194.196 27.8805 191.611 25.1201 191.611 21.8339C191.611 18.1534 194.108 15.6121 197.789 15.6121ZM203.967 11.4496V14.6043H203.879C202.346 12.063 199.585 10.9238 196.694 10.9238C190.253 10.9238 186.353 15.7435 186.353 21.9216C186.353 27.8367 190.516 32.6564 196.781 32.6564C199.41 32.6564 202.083 31.6486 203.616 29.5893H203.704V31.1228C203.704 35.2853 202.127 38.1334 197.088 38.1334C194.152 38.1334 192.005 37.038 189.902 35.1101L186.747 39.404C189.727 42.033 193.232 42.8654 197.132 42.8654C205.281 42.8654 208.962 38.0896 208.962 30.5094V11.4496H203.967Z" fill="#C5CBD5"/>
</svg>
