<svg width="105" height="82" viewBox="0 0 105 82" fill="none" xmlns="http://www.w3.org/2000/svg">
<path d="M13.6408 16.3224C9.46911 20.0943 7.95079 28.6409 15.4711 33.6371L45.4727 54.1956L30.9259 20.9088C27.8776 13.0539 19.5384 11.341 13.6408 16.3224Z" fill="#C5CBD5"/>
<path d="M39.4666 0.138444C34.5898 0.237689 27.2668 6.03806 30.5257 14.8954L45.5712 50.3357L50.858 13.0593C52.0814 3.79695 45.0635 -0.478747 39.4666 0.138444Z" fill="#C5CBD5"/>
<path d="M53.2058 11.6372H56.0508C56.0508 11.6372 57.57 11.6372 57.7767 12.353C56.6572 13.2662 53.61 13.3806 54.0146 18.2582L58.7971 50.3302L73.7397 14.797C76.7962 6.86305 70.3807 0.237026 64.6898 0.0345191C64.424 0.0154736 64.1572 4.4781e-09 63.881 4.4781e-09C58.7732 -0.000148788 52.9198 3.70761 53.2058 11.6372Z" fill="#C5CBD5"/>
<path d="M73.1382 21.2104L59.0049 54.0979L88.9977 33.4309C95.9115 28.533 94.7965 20.7023 90.9263 16.8316C89.3039 15.0098 86.3249 13.6025 83.1692 13.6025C79.441 13.6018 75.4511 15.5769 73.1382 21.2104Z" fill="#C5CBD5"/>
<path d="M85.6396 38.1104L57.4727 57.7609H92.1543C99.2697 57.7609 103.842 50.4335 101.809 43.7093C100.448 39.4827 96.4201 36.1649 91.7449 36.1602C89.777 36.1609 87.6901 36.7529 85.6396 38.1104Z" fill="#C5CBD5"/>
<path d="M12.8326 57.761H47.0025L18.8284 38.1105C12.3195 33.9336 5.00084 36.3776 2.35867 43.3091C0.119019 51.2438 5.71099 57.761 12.8326 57.761Z" fill="#C5CBD5"/>
<path d="M0 71.9821C0 75.3288 2.73915 81.4205 13.1982 81.4205C22.8412 81.4205 25.8867 77.0011 25.8867 74.9746H18.4213C18.4213 74.9746 18.0667 77.6519 13.8555 77.6519C9.64148 77.6519 8.50184 74.1387 8.50184 72.1073C8.50184 70.0835 9.64148 66.7601 13.8555 66.7601C18.0667 66.7601 18.4213 69.091 18.4213 69.091H25.8867C25.8867 67.0622 23.6522 62.7051 13.1982 62.7051C2.73915 62.7051 0 69.1927 0 71.9821Z" fill="#C5CBD5"/>
<path d="M78.2932 71.9821C78.2932 75.3288 81.0352 81.4205 91.4914 81.4205C101.133 81.4205 104.18 77.0011 104.18 74.9746H96.72C96.72 74.9746 96.3638 77.6519 92.1515 77.6519C87.9371 77.6519 86.7962 74.1387 86.7962 72.1073C86.7962 70.0835 87.9371 66.7601 92.1515 66.7601C96.3638 66.7601 96.72 69.091 96.72 69.091H104.18C104.18 67.0622 101.948 62.7051 91.4914 62.7051C81.0353 62.7051 78.2932 69.1927 78.2932 71.9821Z" fill="#C5CBD5"/>
<path d="M46.2898 63.0176V74.3468L37.6016 63.0176H27.8282V80.9621H34.5285V69.5027L43.0646 80.9621H52.9906V63.0176H46.2898Z" fill="#C5CBD5"/>
<path d="M67.7607 76.6751V76.6987H62.1778V73.4039H67.7607V73.4146C68.9528 73.4146 69.9162 74.1464 69.9162 75.0474C69.9162 75.9463 68.9528 76.6751 67.7607 76.6751ZM62.2291 66.5077H67.6085V66.5152C68.5199 66.5152 69.2589 67.1141 69.2589 67.8513C69.2589 68.5912 68.5199 69.1849 67.6085 69.1849V69.1929H62.2291V66.5077ZM73.2439 71.4221C74.4637 71.4221 77.0141 70.0078 77.0141 67.268C77.0141 63.3665 69.7403 63.0176 68.6245 63.0176H55.2226V80.9621H68.6245C75.0702 80.9621 77.6595 78.9283 77.6595 75.5319C77.6595 72.1356 73.2439 71.4221 73.2439 71.4221Z" fill="#C5CBD5"/>
</svg>
