<svg width="157" height="71" viewBox="0 0 157 71" fill="none" xmlns="http://www.w3.org/2000/svg">
<mask id="mask0_34_35398" style="mask-type:luminance" maskUnits="userSpaceOnUse" x="0" y="0" width="157" height="71">
<path d="M156.035 0.587891H0.422119V70.8332H156.035V0.587891Z" fill="white"/>
</mask>
<g mask="url(#mask0_34_35398)">
<path d="M113.012 16.9358C111.806 17.6329 110.847 18.6171 110.148 19.8883C109.449 21.1595 109.106 22.5812 109.079 24.1805C109.079 25.7797 109.435 27.2012 110.134 28.4588C110.833 29.7164 111.778 30.6869 112.998 31.3977C114.204 32.1084 115.561 32.4639 117.054 32.4639C118.863 32.4639 120.426 32.0265 121.727 31.179C123.043 30.3178 123.988 29.1285 124.578 27.5703H122.659C122.193 28.6502 121.481 29.4976 120.522 30.1128C119.562 30.728 118.411 31.0285 117.054 31.0285C115.848 31.0285 114.78 30.7552 113.82 30.1948C112.861 29.6343 112.121 28.8416 111.573 27.8028C111.025 26.7638 110.751 25.5473 110.751 24.1666C110.751 22.7862 111.025 21.5833 111.573 20.5308C112.107 19.4919 112.861 18.6854 113.82 18.125C114.78 17.5646 115.862 17.2912 117.054 17.2912C118.411 17.2912 119.562 17.6056 120.522 18.2207C121.481 18.8358 122.193 19.697 122.659 20.8041H124.578C123.988 19.2459 123.043 18.0293 121.741 17.1682C120.453 16.307 118.891 15.8696 117.068 15.8696C115.574 15.8696 114.231 16.225 113.012 16.9358Z" fill="#C5CBD5"/>
<path d="M23.1018 17.4143V16.061H14.2904V32.3273H15.9211V24.8366H21.9918V23.4834H15.9211V17.4143H23.1018Z" fill="#C5CBD5"/>
<path d="M33.7222 32.3273V16.061H32.0914V32.3273H33.7222Z" fill="#C5CBD5"/>
<path d="M56.0181 32.3273H54.3874L45.3567 18.6445V32.3273H43.726V16.061H45.3567L54.3874 29.7165V16.061H56.0181V32.3273Z" fill="#C5CBD5"/>
<path fill-rule="evenodd" clip-rule="evenodd" d="M68.0636 28.4589H75.4773L76.9026 32.3273H78.6292L72.7091 16.2661H70.8593L64.9119 32.3273H66.6385L68.0636 28.4589ZM71.7774 18.3165L74.9841 27.1193H68.557L71.7774 18.3165Z" fill="#C5CBD5"/>
<path d="M99.8425 32.3273H98.2118L89.1811 18.6445V32.3273H87.5367V16.061H89.1811L98.2118 29.7165V16.061H99.8425V32.3273Z" fill="#C5CBD5"/>
<path d="M135.774 17.3869V23.4559H141.954V24.8093H135.774V30.9741H142.653V32.3273H134.129V16.0337H142.639V17.3869H135.774Z" fill="#C5CBD5"/>
<path d="M32.2149 55.3735V38.8887H28.4875L23.2252 51.1499L17.963 38.8887H14.1945V55.3735H17.5107V44.6571L21.9645 55.3735H24.4722L28.8984 44.6571V55.3735H32.2149Z" fill="#C5CBD5"/>
<path fill-rule="evenodd" clip-rule="evenodd" d="M45.617 52.2297H39.0392L37.9566 55.3734H34.476L40.4233 38.8613H44.2877L50.2078 55.3734H46.6997L45.617 52.2297ZM42.3144 42.6886L44.7078 49.5778H39.9162L42.3144 42.6886Z" fill="#C5CBD5"/>
<path d="M62.3768 42.2648C63.0344 42.6339 63.5552 43.1533 63.9389 43.8504V43.8368H67.7348C67.2142 42.1964 66.2686 40.9252 64.8982 40.0231C63.5279 39.121 61.9108 38.6699 60.0471 38.6699C58.4575 38.6699 57.0322 39.039 55.7441 39.7498C54.4559 40.4605 53.4557 41.4584 52.7156 42.7433C51.9893 44.0281 51.6193 45.4771 51.6193 47.1036C51.6193 48.7303 51.9757 50.1793 52.7156 51.4505C53.4419 52.7354 54.4559 53.7333 55.7441 54.444C57.0322 55.1684 58.4711 55.5239 60.0607 55.5239C61.486 55.5239 62.7741 55.2231 63.9116 54.6354C65.0627 54.0475 65.9945 53.2548 66.7207 52.2843C67.447 51.3137 67.9266 50.2476 68.146 49.0994V46.2151H59.1974V48.7167H64.8845C64.6242 49.9196 64.1035 50.849 63.2949 51.5189C62.5 52.1885 61.4585 52.5165 60.1978 52.5165C59.1701 52.5165 58.2656 52.2979 57.4982 51.8605C56.7308 51.4231 56.1278 50.7943 55.6893 49.9741C55.2508 49.1541 55.0314 48.1971 55.0314 47.09C55.0314 46.0238 55.2508 45.0808 55.6756 44.2606C56.1141 43.4404 56.7033 42.8116 57.4571 42.3742C58.2109 41.9368 59.0878 41.7181 60.0607 41.7181C60.9379 41.7181 61.719 41.9095 62.3768 42.2648Z" fill="#C5CBD5"/>
<path d="M84.7411 55.3734H81.4248L73.9151 44.0554V55.3734H70.5989V38.8613H73.9151L81.4248 50.193V38.8613H84.7411V55.3734Z" fill="#C5CBD5"/>
<path fill-rule="evenodd" clip-rule="evenodd" d="M91.5657 52.2297H98.1434L99.2259 55.3734H102.734L96.8141 38.8613H92.9496L87.0022 55.3734H90.483L91.5657 52.2297ZM94.8681 42.7023L97.2526 49.5914H92.47L94.8681 42.7023Z" fill="#C5CBD5"/>
<path d="M116.219 38.8887V41.5542H111.82V55.3735H108.503V41.5542H104.104V38.8887H116.219Z" fill="#C5CBD5"/>
<path d="M121.947 45.6821V41.5541H128.223V38.8613H118.63V55.3734H128.223V52.6807H121.947V48.3066H127.51V45.6821H121.947Z" fill="#C5CBD5"/>
<path d="M133.814 54.9498C132.896 54.5532 132.156 53.9929 131.622 53.2547C131.087 52.5165 130.813 51.6418 130.799 50.6303H134.349C134.39 51.3136 134.636 51.8468 135.075 52.2296C135.513 52.6259 136.103 52.8173 136.856 52.8173C137.624 52.8173 138.24 52.6259 138.679 52.2568C139.117 51.8879 139.337 51.4094 139.337 50.8081C139.337 50.3159 139.186 49.9196 138.884 49.6052C138.583 49.2908 138.213 49.0447 137.761 48.8669C137.309 48.6892 136.692 48.4842 135.897 48.2656C134.828 47.9512 133.951 47.6368 133.28 47.336C132.608 47.0352 132.033 46.5706 131.553 45.9418C131.073 45.3266 130.827 44.4928 130.827 43.454C130.827 42.4836 131.073 41.6223 131.567 40.8979C132.06 40.1733 132.745 39.6131 133.622 39.2303C134.499 38.8476 135.513 38.6562 136.651 38.6562C138.35 38.6562 139.734 39.0662 140.803 39.9C141.872 40.7202 142.461 41.882 142.571 43.3582H138.926C138.898 42.798 138.652 42.3194 138.199 41.9503C137.747 41.5814 137.158 41.3901 136.418 41.3901C135.774 41.3901 135.253 41.554 134.869 41.882C134.486 42.21 134.294 42.6885 134.294 43.3173C134.294 43.7548 134.444 44.1237 134.732 44.4108C135.02 44.698 135.39 44.9438 135.815 45.1216C136.253 45.2993 136.856 45.5043 137.651 45.7504C138.72 46.0648 139.597 46.3792 140.282 46.6936C140.967 47.008 141.543 47.4863 142.036 48.1151C142.53 48.7439 142.776 49.5777 142.776 50.5892C142.776 51.4777 142.543 52.2843 142.091 53.0497C141.639 53.8016 140.967 54.4029 140.077 54.854C139.2 55.305 138.144 55.5239 136.925 55.5239C135.774 55.5375 134.732 55.3461 133.814 54.9498Z" fill="#C5CBD5"/>
<path fill-rule="evenodd" clip-rule="evenodd" d="M0.422119 70.8332V0.587891H156.035V70.8332H0.422119ZM152.628 67.4023V4.00516H3.84805V67.4023H152.628Z" fill="#C5CBD5"/>
</g>
</svg>
