<svg width="130" height="32" viewBox="0 0 130 32" fill="none" xmlns="http://www.w3.org/2000/svg">
<mask id="mask0_34_35412" style="mask-type:luminance" maskUnits="userSpaceOnUse" x="0" y="0" width="130" height="32">
<path d="M129.35 0.192383H0.0350342V31.228H129.35V0.192383Z" fill="white"/>
</mask>
<g mask="url(#mask0_34_35412)">
<path d="M124.491 4.05909V31.1692H119.618V4.05909H114.756V0.192383H129.35V4.05909H124.491Z" fill="#C5CBD5"/>
<path d="M97.9362 31.1692V0.192383H112.529V4.05942H102.796V13.0992H108.879V16.9774H102.8L102.796 27.3166L112.529 27.314V31.1692H97.9362Z" fill="#C5CBD5"/>
<path d="M80.9393 31.1692V0.192383H95.5341V4.05942H85.7993V13.0992H91.8842V16.9774H85.8028L85.7993 27.3166L95.5341 27.314V31.1692H80.9393Z" fill="#C5CBD5"/>
<path d="M63.7445 0.192383H72.9428C76.5294 0.192383 78.3234 1.96151 78.325 5.49976V13.1369C78.325 15.84 77.3948 17.551 75.5347 18.2697L78.8134 31.1718H74.361L71.279 18.6588H68.6126V31.1679L63.7445 31.1718V0.192383ZM68.6126 15.1201H71.5236C72.9262 15.1201 73.4904 14.4017 73.4904 12.9077L73.4882 6.1328C73.4882 4.63875 72.9463 4.05781 71.5437 4.05781H68.6109L68.6126 15.1201Z" fill="#C5CBD5"/>
<path d="M56.8247 4.05781V31.1679H51.9513V4.05781H47.0916V0.192383H61.6844V4.05781H56.8247Z" fill="#C5CBD5"/>
<path d="M40.8068 7.98001L40.8227 5.84779C40.8336 4.61015 40.1887 4.09252 38.7903 4.07941L38.0405 4.07366C36.6755 4.06023 36.0201 4.66386 36.0105 5.90118L35.9713 10.8365C35.9659 11.4119 36.0561 11.9034 36.322 12.1066C36.5878 12.31 37.0153 12.5754 37.6133 12.897L42.14 15.0542C43.1352 15.5534 43.8397 15.9415 44.2537 16.2186C44.6681 16.4958 44.9885 16.8283 45.2199 17.22C45.4514 17.6116 45.5604 18.3531 45.5508 19.4481L45.4985 26.0545C45.4705 29.5397 43.5259 31.2639 39.665 31.2273L36.7166 31.2004C32.8881 31.1668 30.9894 29.2496 31.0204 25.449L31.0268 23.3964L35.8434 23.4395L35.8543 25.5611C35.8445 26.7719 36.5285 27.3283 37.9611 27.3407L38.7947 27.3484C40.0612 27.3602 40.6567 26.8713 40.6672 25.6622L40.7073 20.3811C40.7138 19.8055 40.6263 19.4315 40.3615 19.2281C40.0966 19.0248 39.6656 18.7601 39.0675 18.4375L34.541 16.1953C33.5445 15.7239 32.823 15.3286 32.3769 15.0091C31.94 14.7005 31.6043 14.2688 31.4125 13.7686C31.2172 13.265 31.1227 12.6073 31.1288 11.8017L31.1798 5.4539C31.2081 1.91202 33.1368 0.158353 36.9659 0.192883L39.9624 0.220058C43.7927 0.255228 45.6933 2.04365 45.6639 5.5853L45.6445 8.02414L40.8068 7.98001Z" fill="#C5CBD5"/>
<path d="M29.3224 30.945H24.9298L22.3792 19.2526H22.2858L19.2151 30.945H15.012L19.31 15.397L15.0088 0.192383H19.4442L22.2858 11.5422H22.3792L25.2134 0.192383H29.4162L25.3559 15.397L29.3224 30.945Z" fill="#C5CBD5"/>
<path d="M10.8255 13.0059L10.8201 16.9228H4.82525V30.947H0.0350342V0.192383H12.5249L13.5864 4.0316H4.82525V13.0059H10.8255Z" fill="#C5CBD5"/>
</g>
</svg>
