<svg width="199" height="49" viewBox="0 0 199 49" fill="none" xmlns="http://www.w3.org/2000/svg">
<path d="M195.394 0.763184H80.2875C78.5314 0.763184 77.0945 2.20002 77.0945 3.95615V45.4647C77.0945 47.2208 78.5314 48.6577 80.2875 48.6577H195.394C197.15 48.6577 198.587 47.2208 198.587 45.4647V3.95615C198.587 2.20002 197.15 0.763184 195.394 0.763184Z" fill="#C5CBD5"/>
<path fill-rule="evenodd" clip-rule="evenodd" d="M30.8365 33.9296C30.8365 36.1248 29.9585 37.402 25.6479 37.402C25.0892 37.402 24.5703 37.3621 24.0913 37.2822V8.06658C24.0913 5.8315 24.8497 3.5166 29.2001 3.5166C29.7589 3.5166 30.3177 3.55651 30.8365 3.67625V33.9296ZM48.4377 45.2247C48.9965 45.5041 50.154 45.8633 51.6307 45.9032C54.1451 45.9431 55.5022 44.9853 56.4999 42.7502L69.9105 12.8959C69.3516 12.6165 68.1144 12.2574 67.1166 12.2574C65.4003 12.2174 63.0855 12.5766 61.6087 16.0889L57.2583 26.3064L48.757 12.4569C48.1983 12.2973 46.8412 12.0578 45.8833 12.0578C42.8501 12.0578 41.1737 13.1753 39.4575 15.0511L31.1558 24.0713L37.8211 34.5283C39.0584 36.444 40.6549 37.402 43.2891 37.402C45.0053 37.402 46.4421 37.0028 47.1206 36.6835L39.0983 24.67L44.7658 18.6432L54.1052 33.251L48.4377 45.2247ZM13.7941 37.2024C19.262 36.6037 21.9361 33.6103 21.9361 29.4993C21.9361 25.9471 19.7409 23.0735 14.712 22.2353L9.76293 21.3174C8.16646 21.038 7.16865 20.6787 7.16865 19.7608C7.16865 18.8828 8.20637 18.2042 10.7208 18.2042C12.1615 18.2042 13.4843 18.2829 14.614 18.35C15.4561 18.4 16.1909 18.4437 16.7874 18.4437C18.6235 18.4437 20.4993 17.6854 20.4993 14.0933C20.4993 13.6144 20.4194 13.1354 20.3396 12.6964C17.6256 12.3372 12.6765 11.8582 8.64539 12.2973C3.29718 12.856 0.58316 16.0889 0.58316 19.9204C0.58316 23.0735 2.89806 26.067 7.20856 26.8652L12.3971 27.8629C14.3129 28.2621 15.2708 28.6612 15.2708 29.699C15.2708 30.4573 14.5124 31.2954 12.0778 31.2954C10.9114 31.2954 9.53838 31.2085 8.22548 31.1252C7.02271 31.0491 5.87037 30.9761 4.97349 30.9761C3.13753 30.9761 1.22175 31.7744 1.22175 35.3665C1.22175 35.8055 1.30158 36.3642 1.3814 36.8032C4.09542 37.1226 9.84276 37.6414 13.7941 37.2024Z" fill="#C5CBD5"/>
<path d="M107.148 22.8742V35.0474C107.148 35.9254 106.63 36.524 105.073 36.524C104.434 36.524 103.676 36.4442 103.277 36.3245V23.393C103.277 18.883 101.082 16.7277 97.7291 16.7277C95.1349 16.7277 92.3411 18.5238 91.1836 20.6391V35.0873C91.1836 35.9653 90.6648 36.5641 89.1082 36.5641C88.4695 36.5641 87.7112 36.4841 87.3121 36.3644V13.6944C87.6713 13.6146 88.4296 13.4948 89.1082 13.4948C90.6648 13.4948 91.1836 14.0536 91.1836 14.9716V16.8874C92.82 14.8519 95.3344 13.2554 98.6471 13.2554C103.277 13.2554 107.148 16.1689 107.148 22.8742Z" fill="#F7F7F7"/>
<path fill-rule="evenodd" clip-rule="evenodd" d="M115.689 26.3864H133.171C133.29 25.5881 133.331 24.7899 133.251 24.1115C133.251 18.6435 129.819 13.2554 122.874 13.2554C116.728 13.2554 111.698 18.1246 111.698 24.9097C111.698 31.9741 116.448 36.7237 123.512 36.7237C126.786 36.7237 129.858 35.7258 131.893 34.8478C132.093 32.7723 131.375 31.8943 130.297 31.8943C129.971 31.8943 129.646 32.0007 128.994 32.2136C128.848 32.2614 128.684 32.3147 128.501 32.3732C127.104 32.8521 125.587 33.2114 123.672 33.2114C119.202 33.2114 116.208 30.7767 115.689 26.3864ZM129.579 23.393H115.689C116.288 18.9229 119.441 16.5281 122.953 16.5281C126.944 16.5281 129.419 19.5215 129.579 23.393Z" fill="#F7F7F7"/>
<path d="M168.772 14.0538L162.786 34.848C162.427 36.1651 161.429 36.4843 159.992 36.4843C159.194 36.4843 158.396 36.3247 157.717 36.1651L152.009 17.8853L146.661 34.848C146.222 36.1651 145.185 36.4843 143.947 36.4843C143.149 36.4843 142.271 36.3247 141.592 36.1651L135.206 14.0538C135.765 13.7744 136.803 13.4951 137.642 13.4951C138.719 13.4951 139.278 13.8143 139.557 14.8521L144.067 32.2138H144.107L149.695 14.0538C150.333 13.6946 151.211 13.4951 152.09 13.4951C153.566 13.4951 154.364 13.8143 154.763 15.1714L159.953 32.1739H159.992L164.382 14.8122C164.661 13.7744 165.22 13.4551 166.298 13.4551C167.255 13.4951 168.213 13.7744 168.772 14.0538Z" fill="#F7F7F7"/>
<path d="M171.327 35.1671C171.048 33.2114 171.647 32.1737 172.804 32.1737C173.881 32.1737 176.515 33.3312 180.187 33.3312C184.059 33.3312 185.496 31.9741 185.496 30.1781C185.496 28.9009 184.937 27.7834 181.464 26.8254L177.473 25.7479C173.043 24.5904 171.327 22.3553 171.327 19.6413C171.327 16.2487 174.001 13.2554 180.067 13.2554C182.782 13.2554 186.174 13.854 188.25 14.6522C188.609 16.5681 188.011 17.6058 186.853 17.6058C185.816 17.6058 183.461 16.608 180.148 16.608C176.556 16.608 175.238 17.8452 175.238 19.4417C175.238 20.5593 175.758 21.5969 178.95 22.515L183.021 23.6325C187.571 24.9097 189.407 27.025 189.407 30.0184C189.407 33.5307 186.693 36.6838 180.108 36.6838C177.154 36.7237 173.522 36.0052 171.327 35.1671Z" fill="#F7F7F7"/>
</svg>
