<svg viewBox="0 0 31 31" fill="none" xmlns="http://www.w3.org/2000/svg">
<rect width="31" height="31" fill="white"/>
<path d="M0 23.2251V31C0 31 12.107 30.9999 13.5594 30.9999C12.6216 26.3561 4.70584 26.8839 0 23.2251Z" fill="#C30044"/>
<path d="M0 0V8.31783C1.89728 6.7378 4.62318 5.63629 8.30715 5.63629C12.0922 5.63629 15.7287 6.41889 18.3256 9.61003L14.5005 13.098C13.3165 11.2837 11.0124 10.0556 8.30715 10.0556C3.10511 10.0556 1.53183 13.1982 1.53183 15.3577C1.53183 24.0471 18.2675 19.0209 18.6526 31C20.6249 31 31 31 31 31L31 2.26498e-06L0 0Z" fill="#C30044"/>
</svg>