<svg width="181" height="85" viewBox="0 0 181 85" fill="none" xmlns="http://www.w3.org/2000/svg">
<path d="M36.8792 61.0969V53.8425C36.8792 53.6395 36.9378 53.4891 37.0549 53.3912C37.1723 53.2935 37.3209 53.2446 37.5005 53.2446C37.7272 53.2446 37.9128 53.2916 38.0575 53.3856C38.202 53.4797 38.3447 53.6583 38.4853 53.9214L40.1268 56.9113L41.7916 53.9214C41.9324 53.6583 42.073 53.4797 42.2137 53.3856C42.3545 53.2916 42.538 53.2446 42.7647 53.2446C42.9446 53.2446 43.093 53.2935 43.2103 53.3912C43.3276 53.4891 43.3861 53.6395 43.3861 53.8425V61.0969C43.3861 61.2171 43.3256 61.3129 43.2044 61.3845C43.0834 61.456 42.9366 61.4916 42.7647 61.4916C42.6006 61.4916 42.4561 61.456 42.331 61.3845C42.2059 61.3129 42.1434 61.2171 42.1434 61.0969V55.6814L40.5724 58.4794C40.4551 58.6599 40.3026 58.7502 40.1151 58.7502C39.9275 58.7502 39.7869 58.6599 39.6931 58.4794L38.1219 55.6138V61.0969C38.1219 61.2171 38.0614 61.3129 37.9402 61.3845C37.819 61.456 37.6724 61.4916 37.5005 61.4916C37.3364 61.4916 37.1919 61.456 37.0668 61.3845C36.9417 61.3129 36.8792 61.2171 36.8792 61.0969ZM55.1272 60.9953C55.1272 60.9501 55.1311 60.9162 55.139 60.8937L57.472 53.5831C57.5658 53.3123 57.8277 53.1768 58.2577 53.1768C58.6953 53.1768 58.961 53.3123 59.0548 53.5831L61.3764 60.8937C61.3919 60.9389 61.3997 60.9726 61.3997 60.9953C61.3997 61.1306 61.3157 61.2471 61.1477 61.345C60.9796 61.4427 60.8018 61.4916 60.6142 61.4916C60.3875 61.4916 60.2469 61.409 60.1921 61.2434L59.7114 59.6414H56.8155L56.3348 61.2434C56.2802 61.409 56.1355 61.4916 55.901 61.4916C55.7134 61.4916 55.5376 61.4427 55.3735 61.345C55.2093 61.2471 55.1272 61.1306 55.1272 60.9953ZM57.0851 58.6824H59.4301L58.2577 54.8127L57.0851 58.6824ZM73.1291 61.0969V53.6281C73.1291 53.5228 73.1682 53.4327 73.2462 53.3574C73.3245 53.2822 73.4222 53.2446 73.5395 53.2446H75.767C77.5647 53.2446 78.4636 54.0117 78.4636 55.5461C78.4636 56.1855 78.3153 56.6875 78.0181 57.0523C77.7211 57.4169 77.3186 57.6596 76.8105 57.78L78.452 60.747C78.4833 60.7997 78.4988 60.8561 78.4988 60.9162C78.4988 61.0666 78.4187 61.2058 78.2584 61.3338C78.0982 61.4615 77.9283 61.5255 77.7485 61.5255C77.5453 61.5255 77.3812 61.409 77.2561 61.1758L75.5443 57.9492H74.3602V61.0969C74.3602 61.2171 74.2995 61.3129 74.1785 61.3845C74.0573 61.456 73.9107 61.4916 73.7388 61.4916C73.5747 61.4916 73.432 61.456 73.3108 61.3845C73.1896 61.3129 73.1291 61.2171 73.1291 61.0969ZM74.3602 56.9902H75.767C76.7363 56.9902 77.2209 56.5427 77.2209 55.6477C77.2209 54.7526 76.7363 54.305 75.767 54.305H74.3602V56.9902ZM90.4862 61.0969V53.6281C90.4862 53.5003 90.5467 53.4045 90.6679 53.3405C90.7889 53.2765 90.9355 53.2446 91.1076 53.2446C91.2795 53.2446 91.426 53.2765 91.5472 53.3405C91.6684 53.4045 91.7289 53.5003 91.7289 53.6281V57.0578L94.5896 53.4139C94.6677 53.301 94.785 53.2446 94.9414 53.2446C95.1055 53.2446 95.2658 53.3104 95.4221 53.4421C95.5783 53.5737 95.6566 53.7147 95.6566 53.865C95.6566 53.9553 95.6253 54.0342 95.5628 54.1021L93.3118 56.8097L95.9848 60.7245C96.0317 60.7921 96.0551 60.8637 96.0551 60.9389C96.0551 61.0818 95.9789 61.2152 95.8266 61.3393C95.6742 61.4634 95.508 61.5255 95.3283 61.5255C95.1329 61.5255 94.9843 61.4503 94.8827 61.2998L92.4909 57.8137L91.7289 58.7388V61.0969C91.7289 61.2171 91.6684 61.3129 91.5472 61.3845C91.426 61.456 91.2795 61.4916 91.1076 61.4916C90.9434 61.4916 90.7987 61.456 90.6736 61.3845C90.5487 61.3129 90.4862 61.2171 90.4862 61.0969ZM107.632 61.0969V53.6395C107.632 53.5191 107.687 53.4233 107.796 53.3517C107.906 53.2802 108.035 53.2446 108.183 53.2446H112.357C112.49 53.2446 112.592 53.2971 112.662 53.4024C112.732 53.5079 112.767 53.6281 112.767 53.7636C112.767 53.914 112.73 54.0418 112.656 54.147C112.582 54.2525 112.482 54.305 112.357 54.305H108.875V56.8886H110.68C110.806 56.8886 110.905 56.9356 110.979 57.0296C111.054 57.1236 111.091 57.2383 111.091 57.3738C111.091 57.494 111.056 57.6013 110.985 57.6953C110.915 57.7894 110.813 57.8364 110.68 57.8364H108.875V60.4312H112.357C112.482 60.4312 112.582 60.4837 112.656 60.5892C112.73 60.6944 112.767 60.8222 112.767 60.9726C112.767 61.1081 112.732 61.2285 112.662 61.3338C112.592 61.439 112.49 61.4916 112.357 61.4916H108.183C108.035 61.4916 107.906 61.456 107.796 61.3845C107.687 61.3129 107.632 61.2171 107.632 61.0969ZM123.957 53.7861C123.957 53.6432 123.993 53.5173 124.063 53.4081C124.133 53.299 124.235 53.2446 124.368 53.2446H129.233C129.366 53.2446 129.468 53.2971 129.538 53.4024C129.609 53.5079 129.644 53.6319 129.644 53.7748C129.644 53.9328 129.606 54.0663 129.532 54.1752C129.458 54.2844 129.358 54.339 129.233 54.339H127.428V61.0969C127.428 61.2171 127.365 61.3129 127.24 61.3845C127.115 61.456 126.971 61.4916 126.806 61.4916C126.634 61.4916 126.488 61.456 126.367 61.3845C126.246 61.3129 126.185 61.2171 126.185 61.0969V54.339H124.368C124.243 54.339 124.143 54.2844 124.069 54.1752C123.995 54.0663 123.957 53.9365 123.957 53.7861ZM140.881 60.2507C140.881 60.1078 140.935 59.9647 141.045 59.8219C141.154 59.679 141.279 59.6077 141.42 59.6077C141.506 59.6077 141.609 59.6547 141.731 59.7487C141.852 59.8427 141.971 59.9441 142.088 60.0532C142.205 60.1622 142.383 60.2638 142.622 60.3578C142.86 60.4518 143.128 60.4988 143.425 60.4988C143.87 60.4988 144.228 60.3972 144.498 60.1943C144.767 59.9911 144.902 59.6941 144.902 59.3029C144.902 58.9419 144.771 58.6411 144.509 58.4005C144.247 58.1597 143.931 57.968 143.56 57.8249C143.188 57.682 142.815 57.5279 142.44 57.3624C142.065 57.197 141.746 56.9489 141.484 56.6178C141.222 56.2868 141.092 55.8733 141.092 55.3769C141.092 54.9783 141.172 54.6323 141.332 54.339C141.492 54.0456 141.709 53.82 141.983 53.662C142.256 53.504 142.544 53.3893 142.844 53.3178C143.145 53.2465 143.464 53.2107 143.8 53.2107C144.011 53.2107 144.232 53.2238 144.462 53.2501C144.693 53.2765 144.922 53.3198 145.148 53.3799C145.375 53.44 145.563 53.5267 145.711 53.6395C145.86 53.7523 145.934 53.8801 145.934 54.023C145.934 54.1658 145.887 54.3089 145.793 54.4518C145.699 54.5947 145.574 54.666 145.418 54.666C145.34 54.666 145.234 54.6304 145.101 54.5589C144.968 54.4875 144.791 54.416 144.568 54.3445C144.345 54.2731 144.089 54.2374 143.8 54.2374C143.355 54.2374 142.999 54.322 142.733 54.4912C142.467 54.6605 142.334 54.918 142.334 55.264C142.334 55.4897 142.405 55.6833 142.546 55.8451C142.686 56.0068 142.868 56.1403 143.091 56.2455C143.313 56.3508 143.562 56.4542 143.835 56.5558C144.109 56.6574 144.38 56.7758 144.65 56.9113C144.92 57.0466 145.166 57.2025 145.389 57.3793C145.611 57.5561 145.793 57.7988 145.934 58.107C146.074 58.4154 146.145 58.7727 146.145 59.1788C146.145 59.9611 145.901 60.5571 145.412 60.9671C144.923 61.3769 144.277 61.5819 143.472 61.5819C142.753 61.5819 142.141 61.4372 141.637 61.1476C141.133 60.8579 140.881 60.5589 140.881 60.2507Z" fill="#C30044"/>
<path d="M130.11 44.8739C130.077 44.857 130.044 44.8392 130.01 44.821C128.589 44.0332 128.076 42.2427 128.864 40.8218L138.787 22.9192H132.131C130.467 22.9192 129.118 21.5706 129.118 19.9068V17.0356H143.827C145.452 17.0356 146.769 18.3528 146.769 19.9775C146.769 20.6698 146.53 21.3061 146.13 21.8087L136.196 39.7293H146.769V42.6004C146.769 44.2642 145.42 45.6128 143.757 45.6128H132.06C131.312 45.6128 130.63 45.3336 130.11 44.8739Z" fill="#C30044"/>
<path fill-rule="evenodd" clip-rule="evenodd" d="M111.684 22.4988C106.81 22.4988 102.859 26.4499 102.859 31.3242C102.859 36.1982 106.81 40.1493 111.684 40.1493C116.558 40.1493 120.509 36.1982 120.509 31.3242C120.509 26.4499 116.558 22.4988 111.684 22.4988ZM96.9753 31.3242C96.9753 23.2007 103.561 16.6152 111.684 16.6152C119.808 16.6152 126.393 23.2007 126.393 31.3242C126.393 39.4475 119.808 46.0329 111.684 46.0329C103.561 46.0329 96.9753 39.4475 96.9753 31.3242Z" fill="#C30044"/>
<path d="M83.1069 19.9775C83.1069 18.3528 81.7897 17.0356 80.1652 17.0356C78.5405 17.0356 77.2233 18.3528 77.2233 19.9775V42.6711C77.2233 44.2957 78.5405 45.6128 80.1652 45.6128C81.7897 45.6128 83.1069 44.2957 83.1069 42.6711V19.9775Z" fill="#C30044"/>
<path d="M91.0918 28.8022H70.0791C68.4544 28.8022 67.1373 30.1194 67.1373 31.7441C67.1373 33.3686 68.4544 34.6858 70.0791 34.6858H91.0918C92.7164 34.6858 94.0335 33.3686 94.0335 31.7441C94.0335 30.1194 92.7164 28.8022 91.0918 28.8022Z" fill="#C30044"/>
<path d="M51.3358 43.0912C53.1925 43.0912 54.6979 41.5858 54.6979 39.7291C54.6979 37.8724 53.1925 36.3672 51.3358 36.3672C49.4791 36.3672 47.9737 37.8724 47.9737 39.7291C47.9737 41.5858 49.4791 43.0912 51.3358 43.0912Z" fill="#C30044"/>
<path d="M38.4342 44.8987C37.0055 44.2262 36.501 42.4611 37.1735 41.1163L48.6043 18.5907C49.2768 17.162 51.042 16.6575 52.3867 17.33C53.8156 18.0025 54.3198 19.7674 53.6474 21.1123L42.2166 43.722C41.5441 45.0667 39.8631 45.6551 38.4342 44.8987Z" fill="#C30044"/>
<path d="M64.2376 44.8987C65.6666 44.2262 66.1708 42.4611 65.4984 41.1163L53.9835 18.5907C53.3111 17.162 51.5461 16.6575 50.2012 17.33C48.7725 18.0025 48.268 19.7674 48.9405 21.1123L60.3713 43.6378C61.1278 45.0667 62.8929 45.6551 64.2376 44.8987Z" fill="#C30044"/>
<g clip-path="url(#clip0_57_53699)">
<path d="M27.32 73.1801C28.5784 75.243 30.3403 77.1555 32.2779 78.7019C34.0773 80.1443 36.054 81.3403 38.1577 82.2596C35.1053 81.2361 32.1777 79.86 29.4318 78.1581C26.6955 76.4396 24.1568 74.4137 21.8631 72.1182C22.022 71.7791 22.1415 71.4223 22.2191 71.0549C22.3563 70.4158 22.4237 69.7632 22.4201 69.1089C22.4201 68.9064 22.4157 68.6983 22.4067 68.4846C22.4067 68.2613 22.3933 68.0289 22.3784 67.7858C22.3471 67.3027 22.292 66.7802 22.2057 66.2227C22.1193 65.6652 22.0448 65.0348 21.9078 64.3861C21.8721 64.2251 21.8453 64.0565 21.8155 63.8833L21.7187 63.3607C21.6501 63.0068 21.5697 62.6452 21.4833 62.2716C21.1572 60.634 20.7074 58.9189 20.3232 57.2206L20.283 57.0687L20.2517 56.9168L20.1861 56.5963C20.14 56.3867 20.0938 56.1755 20.0491 55.9659C20.0045 55.7562 19.9508 55.5527 19.9002 55.3461C19.8496 55.1395 19.8228 54.9314 19.784 54.7263C19.7453 54.5212 19.7021 54.3222 19.6619 54.1187C19.6217 53.9151 19.574 53.7252 19.5472 53.5262C19.4837 53.1313 19.4172 52.75 19.3477 52.3824C19.3298 52.2912 19.3119 52.2001 19.2955 52.1105C19.2792 52.0208 19.2702 51.9282 19.2568 51.8385C19.232 51.6593 19.2067 51.4831 19.1809 51.3099C19.1332 50.9666 19.0721 50.6415 19.0319 50.3301C18.9664 49.7042 18.883 49.1543 18.8309 48.6956C18.7549 47.7689 18.682 47.2205 18.682 47.2205C18.4794 47.3205 18.2856 47.4379 18.1026 47.5714C17.5937 47.9381 17.1332 48.37 16.7324 48.8566C16.6014 49.0085 16.4614 49.1877 16.3348 49.3731C16.2082 49.5584 16.0816 49.7604 15.9565 49.9807C15.677 50.4667 15.4359 50.9747 15.2357 51.4998C15.0136 52.141 14.8379 52.798 14.7099 53.4655C14.6474 53.8316 14.6057 54.2159 14.57 54.6245C14.5521 54.8281 14.5387 55.0377 14.5268 55.2534C14.5111 55.4723 14.5066 55.6918 14.5134 55.9112C14.5268 56.4626 14.5565 57.0262 14.5997 57.5974C14.6429 58.1685 14.7487 58.7245 14.847 59.2957L14.9215 59.7225L15.0197 60.1433C15.0863 60.4228 15.1557 60.7024 15.2282 60.9819C15.3042 61.2598 15.3772 61.5439 15.4591 61.8158C15.541 62.0877 15.6408 62.3581 15.7316 62.627L16.028 63.423C16.0742 63.5567 16.1263 63.6873 16.1769 63.8149L16.3393 64.1977C16.4515 64.4529 16.5622 64.7061 16.6714 64.9573C16.7831 65.2049 16.8873 65.4571 17.0154 65.6895C17.2582 66.1619 17.5024 66.6207 17.7422 67.0566C17.8584 67.28 17.9939 67.485 18.119 67.6916L18.4958 68.2993C14.7848 63.546 12.1284 58.0285 10.7097 52.1272C11.1058 51.8674 11.8058 51.2446 12.5192 50.0111C12.7083 49.7073 12.9019 49.3533 13.0911 48.966C13.1864 48.7715 13.2802 48.568 13.374 48.3583C13.4679 48.1487 13.5528 47.9208 13.6585 47.6823C13.8626 47.2099 14.0621 46.6934 14.2542 46.1329C14.3421 45.8518 14.4597 45.5571 14.5625 45.2533C14.6653 44.9495 14.7695 44.6305 14.8693 44.3024C14.9691 43.9408 15.1002 43.5687 15.2134 43.1904C15.3265 42.8122 15.4338 42.4309 15.5335 42.0435C15.6333 41.6562 15.7659 41.2688 15.8716 40.8784C15.9267 40.6839 15.9699 40.488 16.031 40.2935L16.2037 39.7117C16.2588 39.5188 16.3125 39.3259 16.3661 39.133L16.4435 38.8443L16.5344 38.5603C16.6515 38.1805 16.7627 37.8058 16.868 37.4362C16.9797 37.0685 17.1048 36.71 17.212 36.3591C17.2656 36.1829 17.3177 36.0097 17.3714 35.8381C17.425 35.6664 17.489 35.5024 17.5456 35.3383C17.6588 35.0082 17.7645 34.6907 17.8628 34.3858C17.977 34.082 18.0832 33.7939 18.1815 33.5215C18.3662 32.9716 18.5703 32.4961 18.7192 32.0936L18.9232 31.5558C18.9873 31.4039 19.0439 31.2657 19.0885 31.1578C19.1779 30.9391 19.2255 30.819 19.2255 30.819C19.0199 30.8126 18.8141 30.8243 18.6105 30.854C18.3702 30.8842 18.132 30.9294 17.8971 30.9892C17.7586 31.0241 17.6097 31.0667 17.4503 31.1168C17.2909 31.1669 17.1375 31.2307 16.9693 31.3021C16.5916 31.4642 16.2262 31.6546 15.8761 31.8718C15.4462 32.1354 15.0422 32.4406 14.6697 32.7832C14.4612 32.9685 14.2498 33.1711 14.0353 33.3908C13.8223 33.6142 13.6242 33.8602 13.4143 34.1261C13.2043 34.3919 12.9987 34.6775 12.7887 34.9874C12.5788 35.2973 12.3986 35.6345 12.2049 35.993C10.4044 39.3077 9.71479 43.6218 9.79521 46.9076C9.17961 41.4803 9.59169 35.983 11.009 30.7142C11.5169 30.6398 12.3494 30.3846 13.4083 29.698C14.5074 29.0265 15.8016 27.9131 17.4637 26.2785C18.4675 25.3048 19.4623 24.1807 20.4915 23.1082L20.8638 22.7011C20.9889 22.5659 21.1215 22.4368 21.2466 22.3031C21.5012 22.0403 21.747 21.7775 21.9912 21.5177C22.2355 21.258 22.4886 21.018 22.7254 20.7719C22.8431 20.6503 22.9563 20.5258 23.0739 20.4088L23.4254 20.067C23.6567 19.8402 23.8757 19.6204 24.0822 19.4077C24.2887 19.1951 24.4957 18.9996 24.7032 18.8214C24.8998 18.6376 25.0756 18.4538 25.2513 18.2943L25.7368 17.8537C26.0347 17.5848 26.2551 17.36 26.4249 17.2203C26.5947 17.0805 26.6781 16.9954 26.6781 16.9954C26.511 16.9062 26.3366 16.832 26.1568 16.7737C25.946 16.7017 25.7312 16.6429 25.5134 16.5974C25.2229 16.5396 24.9288 16.5026 24.6332 16.4866C24.2569 16.4655 23.8796 16.4726 23.5043 16.5078C23.3986 16.5169 23.2914 16.5276 23.1827 16.5428C23.0739 16.558 22.9652 16.5777 22.852 16.599C22.6286 16.643 22.3933 16.6977 22.1476 16.7645C21.9019 16.8314 21.6472 16.9165 21.3806 17.003C21.114 17.0896 20.8549 17.2172 20.5749 17.3479C20.2949 17.4785 20.0104 17.6259 19.714 17.7914C19.4177 17.957 19.1317 18.1545 18.8205 18.3657C17.6691 19.18 16.6132 20.1265 15.6736 21.1866C15.4338 21.4509 15.2148 21.7289 14.99 22.0023L14.6578 22.417C14.5491 22.5553 14.4389 22.692 14.3406 22.8363C14.1395 23.1188 13.943 23.4029 13.7449 23.6855L13.4604 24.1062C13.3696 24.2475 13.2862 24.3918 13.2013 24.5331C14.0233 22.6965 14.9688 20.92 16.031 19.2163L16.8501 17.957L17.7184 16.7311C17.8673 16.5245 18.0162 16.3286 18.1652 16.1235L18.6239 15.5311C18.7802 15.3351 18.9217 15.13 19.09 14.9417L19.5726 14.369C19.7766 14.2626 20.0194 14.1305 20.3083 13.9694C20.5972 13.8084 20.9338 13.6398 21.2957 13.4362C21.4774 13.3345 21.6665 13.2266 21.8616 13.1112C22.0567 12.9957 22.2727 12.8879 22.4886 12.7648C22.7046 12.6418 22.9265 12.5172 23.1559 12.382L23.5028 12.1769L23.8692 11.9734C24.115 11.8336 24.3681 11.6878 24.6228 11.5359L25.0115 11.3035L25.4181 11.0726C25.6922 10.9166 25.9691 10.753 26.2491 10.5819C26.3861 10.4938 26.5321 10.4102 26.6781 10.3282L27.1249 10.0715C28.2955 9.35752 29.5822 8.61469 30.9316 7.7716C31.3098 7.54779 31.6807 7.31689 32.0441 7.0789C32.4104 6.84952 32.7783 6.62318 33.1328 6.3938C33.3115 6.28139 33.4827 6.1553 33.6629 6.04745C33.8431 5.93959 34.0159 5.82566 34.1902 5.71325L34.7054 5.3745L34.9587 5.20284L35.2133 5.04182C35.5529 4.82763 35.882 4.61192 36.2037 4.39317L36.4435 4.23215L36.6847 4.08024L37.1539 3.77643L37.6111 3.47261C37.76 3.37235 37.909 3.26906 38.0579 3.17943C38.3558 2.99512 38.6383 2.81333 38.9053 2.63408C39.4445 2.26495 39.9479 1.96417 40.3946 1.66947L41.0216 1.2578L41.5593 0.920562C42.2086 0.505854 42.5765 0.246091 42.5765 0.246091C42.5765 0.246091 42.146 0.170136 41.3686 0.0865872L40.7208 0.0243044C40.484 0.00911366 40.2308 0.00303929 39.9568 -0.0045561C39.4087 -0.0136706 38.7787 -0.0334189 38.0996 0.0212679C37.7571 0.0435478 37.3996 0.0713957 37.0273 0.104815C36.8396 0.118487 36.6535 0.147351 36.4628 0.174694L35.8805 0.262801L35.2848 0.364579L34.9765 0.419266C34.8752 0.439014 34.7725 0.464837 34.6697 0.487624C34.2587 0.584845 33.8357 0.68966 33.4053 0.80511L33.0821 0.893217L32.7589 0.998034L32.1081 1.2183C31.8892 1.29425 31.6688 1.37021 31.4483 1.45528C31.2279 1.54035 31.0105 1.63605 30.7901 1.72871C30.3537 1.92315 29.9084 2.11911 29.4705 2.33634C29.0327 2.55357 28.6052 2.81181 28.1733 3.06702C27.9872 3.17335 27.807 3.29184 27.6312 3.41033L27.1085 3.76579C26.7674 4.00733 26.4249 4.23367 26.1136 4.49191C25.5017 4.96537 24.9155 5.47249 24.3577 6.01099C24.0896 6.26923 23.8315 6.52241 23.5833 6.77053C23.3351 7.01865 23.1052 7.27841 22.8937 7.54982C22.6748 7.80806 22.4589 8.05415 22.2638 8.30936C22.0687 8.56456 21.8854 8.81673 21.7082 9.0613C20.6747 10.4831 19.8429 12.0464 19.2375 13.7051C18.0546 15.0789 16.9625 16.5313 15.9684 18.0527C16.2663 17.4132 16.6267 16.7706 16.9663 16.0779L18.0669 13.9907C18.4571 13.2919 18.8249 12.5521 19.2255 11.8412C19.4221 11.4812 19.6098 11.1121 19.8019 10.749C19.9941 10.3859 20.1936 10.0305 20.3798 9.66589C20.4736 9.48208 20.5645 9.30131 20.6508 9.12358C20.7372 8.94585 20.831 8.77875 20.9144 8.61014C21.0842 8.27138 21.2391 7.94174 21.3821 7.62121L21.7886 6.70065C21.9138 6.40595 22.0279 6.12037 22.1312 5.84389C22.2354 5.56894 22.3233 5.29551 22.4127 5.04486C22.5021 4.79421 22.578 4.55116 22.6465 4.31874C22.771 3.89814 22.8739 3.47121 22.9548 3.03967C23.0763 2.46448 23.1397 1.87808 23.1439 1.2897C23.1464 1.08609 23.1304 0.882684 23.0963 0.682065L22.7165 0.975249C22.4752 1.16969 22.1208 1.43097 21.6948 1.8153C20.5619 2.78573 19.4919 3.83001 18.4913 4.94156C17.202 6.36068 16.0415 7.89617 15.0242 9.52918C14.768 9.95452 14.5198 10.3804 14.2795 10.8067C14.0413 11.2321 13.8328 11.6741 13.6243 12.1025C13.525 12.3182 13.4257 12.5324 13.3264 12.7451C13.2281 12.9562 13.1477 13.1765 13.0628 13.3907C12.896 13.8191 12.7426 14.2398 12.6056 14.65C12.3807 15.3609 12.2213 16.0293 12.0903 16.6354C12.0218 16.9392 11.9845 17.2431 11.9413 17.5195C11.8981 17.796 11.8758 18.0725 11.8535 18.3307C11.8311 18.589 11.8162 18.8335 11.8103 19.0675C11.8043 19.3014 11.8103 19.5232 11.8237 19.7435C11.8412 20.1288 11.881 20.5128 11.9428 20.8934C11.9711 21.0635 12.0009 21.2246 12.0366 21.3749C12.0724 21.5253 12.1171 21.6788 12.1603 21.8064C12.2365 22.0464 12.3286 22.2808 12.4358 22.5082C12.5792 22.8199 12.7631 23.1107 12.9824 23.3725C11.7483 25.977 10.783 28.7052 10.102 31.5133C9.4152 34.3189 9.0046 37.1875 8.87632 40.0763C8.81079 38.3658 8.75569 36.312 8.76462 34.1215C8.77356 31.931 8.85695 29.6053 8.89865 27.3267C8.89865 27.0973 8.89865 26.871 8.89865 26.6522C8.89865 26.4335 8.89865 26.2132 8.89865 26.0036C8.89865 25.5833 8.8942 25.1782 8.88527 24.7883C8.87633 24.3984 8.86043 24.0247 8.8376 23.6672C8.82171 23.3097 8.79838 22.9674 8.7676 22.6403C8.73931 22.3137 8.69612 21.9978 8.66336 21.7031C8.63059 21.4084 8.59187 21.1273 8.54868 20.86C8.47346 20.3776 8.37404 19.8995 8.25082 19.4275C8.10209 18.7926 7.88948 18.1751 7.61637 17.5848C7.52247 17.3795 7.40978 17.1837 7.27978 17L7.04297 17.4876L6.76598 18.0664C6.71385 18.1803 6.65575 18.3019 6.59618 18.431C6.5366 18.5601 6.48002 18.7014 6.41896 18.8487C5.75087 20.3997 5.18904 21.996 4.73752 23.6262C4.45008 24.5924 4.23415 25.6436 4.01224 26.713C3.83501 27.7976 3.65329 28.902 3.57883 30.0185C3.48735 31.1131 3.45704 32.2122 3.488 33.3103C3.5163 33.8466 3.55353 34.3737 3.5997 34.8841C3.62651 35.1408 3.64439 35.39 3.6846 35.6436C3.72481 35.8973 3.76202 36.1358 3.80521 36.3758C3.88563 36.8224 3.97051 37.2432 4.05838 37.6427C4.14625 38.0423 4.26989 38.419 4.37861 38.7745C4.48733 39.1299 4.60051 39.4626 4.71519 39.7755C4.82987 40.0885 4.96689 40.3832 5.09199 40.6551C5.31672 41.1482 5.57292 41.6257 5.85897 42.0845C6.09855 42.4491 6.36071 42.7977 6.64384 43.1281C7.03466 43.5943 7.49205 43.9979 8.00062 44.3252C8.2889 44.5054 8.60079 44.643 8.92697 44.7338C9.12731 47.9421 9.67677 51.1178 10.5652 54.2022L10.7275 54.7825L10.9167 55.3522L11.295 56.4945L11.3903 56.7786L11.499 57.0596L11.715 57.6201L12.1498 58.7397L12.6353 59.838L12.8796 60.3864C12.9198 60.4775 12.9585 60.5702 13.0017 60.6598L13.1373 60.9287L13.6749 62.0012C13.7657 62.1789 13.8521 62.3597 13.9474 62.5359L14.2453 63.0569C13.2028 61.471 11.9279 59.4673 10.6814 57.2282C9.43483 54.9891 8.1674 52.5373 6.92829 50.1387C6.69894 49.683 6.45321 49.2591 6.23428 48.8459C6.01535 48.4328 5.80386 48.0378 5.58791 47.6626C5.47919 47.4742 5.37197 47.2904 5.26325 47.1127C5.15453 46.9349 5.04732 46.7603 4.95051 46.5886C4.75194 46.2483 4.55336 45.9258 4.35479 45.6209C3.70787 44.6051 2.98697 43.6403 2.19823 42.7347C1.87952 42.3792 1.56974 42.083 1.30465 41.8384C1.0858 41.633 0.856656 41.4393 0.618093 41.2582C0.422982 41.1051 0.214041 40.9713 -0.00592041 40.8586C-0.00592041 40.8586 -0.00594513 41.0759 0.00596936 41.4663C0.0178839 41.8567 0.0476948 42.4354 0.105778 43.1494C0.135564 43.5064 0.169807 43.8983 0.20555 44.3206C0.215975 44.427 0.226395 44.5333 0.23682 44.6427L0.281507 44.9753C0.314272 45.2017 0.347025 45.4311 0.381279 45.6726C0.451277 46.1496 0.530216 46.6509 0.610639 47.1719C0.691062 47.693 0.828081 48.2353 0.948716 48.7867C1.00978 49.0632 1.07382 49.3427 1.13786 49.6268C1.2019 49.9108 1.2868 50.1949 1.36722 50.482C1.52956 51.0562 1.69933 51.6395 1.87804 52.2259C2.05676 52.8123 2.29207 53.3941 2.50951 53.9789L2.67484 54.4164C2.72995 54.5683 2.78653 54.7081 2.85206 54.8509L3.23333 55.7091C3.36439 55.9917 3.49395 56.2742 3.62501 56.5583L3.82459 56.9761L4.04351 57.3862C4.34137 57.9285 4.63924 58.4602 4.9371 58.9752C5.23496 59.4901 5.58495 59.9732 5.91111 60.4426C6.07494 60.6765 6.23923 60.9054 6.40405 61.1292C6.57383 61.351 6.75255 61.5621 6.9268 61.7687C7.2604 62.1652 7.58359 62.5283 7.89932 62.8731C8.04825 63.0448 8.22101 63.2028 8.38037 63.3562C8.53972 63.5096 8.69911 63.66 8.85549 63.7997C9.16675 64.0823 9.46607 64.3405 9.75649 64.579C10.0469 64.8175 10.3522 65.0196 10.6263 65.211C11.1258 65.5504 11.6472 65.8549 12.1871 66.1224C12.6218 66.3272 13.0696 66.5017 13.5274 66.645C13.8851 66.756 14.2506 66.8393 14.6206 66.8941C14.9089 66.9323 15.1998 66.9465 15.4903 66.9366C15.8484 66.9311 16.2037 66.8717 16.5448 66.7604C16.7935 67.1113 17.0318 67.4698 17.2894 67.8147L18.0758 68.8355L18.4705 69.3459L18.8875 69.8366L19.72 70.8179C20.006 71.1369 20.3038 71.4453 20.5957 71.7597C20.8876 72.0742 21.1751 72.3932 21.4893 72.6848L22.4112 73.5811L22.642 73.8044L22.8818 74.0171L23.3629 74.4424C25.9194 76.7411 28.7483 78.7038 31.7834 80.2848C29.8667 79.4857 27.5315 78.4087 25.0815 77.1038C22.6316 75.7989 20.0506 74.2829 17.5352 72.7745C16.5969 72.1866 15.678 71.6959 14.8619 71.2205C14.4478 70.9845 14.0423 70.7703 13.6451 70.5779C13.2579 70.3743 12.893 70.1784 12.5311 70.0037C11.076 69.3094 9.87864 68.8021 8.85549 68.4952C8.34316 68.3433 7.90977 68.2188 7.51511 68.1352C7.19006 68.0623 6.86144 68.007 6.53065 67.9696C6.25906 67.9343 5.98481 67.9251 5.71153 67.9423L6.07044 68.5271C6.30576 68.9023 6.63787 69.4538 7.11296 70.1039C7.58805 70.7541 8.12572 71.5471 8.81378 72.3749L9.33653 73.0175C9.51674 73.2347 9.69546 73.4611 9.89651 73.6768C10.2927 74.1158 10.7067 74.5685 11.1371 75.0288C13.013 76.9825 15.0857 78.7289 17.3207 80.2392C19.5027 81.7159 21.8769 82.8731 24.3741 83.6769C24.9192 83.841 25.4395 83.9847 25.9349 84.1083C26.4398 84.2177 26.9208 84.3043 27.378 84.3772C27.6059 84.4136 27.8248 84.4455 28.0438 84.4744L28.3655 84.5154C28.4712 84.526 28.5784 84.5321 28.6812 84.5397C29.0997 84.5686 29.4944 84.5823 29.8726 84.5868C30.2509 84.5914 30.595 84.5868 30.9256 84.5655C31.2562 84.5443 31.5764 84.4987 31.8713 84.4547C32.3949 84.3776 32.9125 84.2628 33.4202 84.1113C34.1287 83.8931 34.7994 83.5636 35.4084 83.1346C35.7336 82.9055 36.0237 82.6286 36.2692 82.3128C38.5198 83.1615 40.8364 83.8155 43.1945 84.2678L44.0792 84.4303L44.526 84.5109C44.6749 84.5352 44.8239 84.5503 44.9728 84.5716C45.5685 84.6476 46.1642 84.7235 46.76 84.7995L48.5546 84.9377C48.8524 84.9681 49.1503 84.9666 49.4481 84.9757L50.3417 85C50.7051 85.0091 51 84.8618 51 84.6719C51 84.482 50.7022 84.321 50.3522 84.3119L49.5033 84.2906L49.0788 84.2784H48.8658L48.6544 84.2617L46.958 84.1296L46.7466 84.1129L46.5366 84.0855L46.1151 84.0308L45.2721 83.9215C44.7077 83.8622 44.1522 83.7468 43.5937 83.648C43.5321 83.2372 43.421 82.8356 43.2631 82.4525C43.1618 82.1897 43.0292 81.9132 42.8669 81.5882C42.6858 81.2322 42.487 80.8859 42.2712 80.5506C42.0344 80.1785 41.7559 79.7911 41.4387 79.3809C41.1214 78.9708 40.764 78.5044 40.3589 78.0441C40.2576 77.9272 40.1504 77.8163 40.0461 77.6917L39.72 77.3165C39.4981 77.0643 39.2628 76.8076 39.0155 76.557C38.8919 76.4248 38.7624 76.3033 38.6358 76.162C38.5092 76.0207 38.3796 75.881 38.2455 75.7397C37.979 75.4587 37.699 75.1731 37.4041 74.886C36.1605 73.5917 34.7829 72.2732 33.4738 70.9364C32.1647 69.5996 30.942 68.2522 29.8905 67.0323L29.5063 66.5766L29.3171 66.3609C29.2585 66.285 29.2005 66.2105 29.1429 66.1376C28.912 65.8444 28.6887 65.568 28.4757 65.3097L28.3178 65.1183L28.1689 64.9239L27.8933 64.5563C27.7146 64.3203 27.5483 64.1056 27.3944 63.9122C26.8225 63.0979 26.4606 62.6316 26.4606 62.6316C26.3221 62.8404 26.2015 63.0609 26.1002 63.2909C25.8175 63.9259 25.6172 64.5959 25.5045 65.2839C25.4188 65.7783 25.378 66.2797 25.3824 66.7817C25.3824 67.0597 25.3928 67.3529 25.4166 67.6612C25.4285 67.8132 25.4405 67.9772 25.4628 68.1352C25.4851 68.2932 25.5134 68.4542 25.5432 68.6198C25.6057 68.9494 25.6817 69.2958 25.777 69.6573C25.8262 69.8381 25.8768 70.0249 25.9349 70.2103C25.993 70.3956 26.0659 70.5779 26.1389 70.7678C26.2879 71.146 26.4532 71.541 26.6438 71.9511C26.8345 72.3613 27.0668 72.7562 27.32 73.1801Z" fill="#C5CBD5"/>
</g>
<g clip-path="url(#clip1_57_53699)">
<path d="M153.68 73.1801C152.422 75.243 150.66 77.1555 148.722 78.7019C146.923 80.1443 144.946 81.3403 142.842 82.2596C145.895 81.2361 148.822 79.86 151.568 78.1581C154.305 76.4396 156.843 74.4137 159.137 72.1182C158.978 71.7791 158.859 71.4223 158.781 71.0549C158.644 70.4158 158.576 69.7632 158.58 69.1089C158.58 68.9064 158.584 68.6983 158.593 68.4846C158.593 68.2613 158.607 68.0289 158.622 67.7858C158.653 67.3027 158.708 66.7802 158.794 66.2227C158.881 65.6652 158.955 65.0348 159.092 64.3861C159.128 64.2251 159.155 64.0565 159.185 63.8833L159.281 63.3607C159.35 63.0068 159.43 62.6452 159.517 62.2716C159.843 60.634 160.293 58.9189 160.677 57.2206L160.717 57.0687L160.748 56.9168L160.814 56.5963C160.86 56.3867 160.906 56.1755 160.951 55.9659C160.996 55.7562 161.049 55.5527 161.1 55.3461C161.15 55.1395 161.177 54.9314 161.216 54.7263C161.255 54.5212 161.298 54.3222 161.338 54.1187C161.378 53.9151 161.426 53.7252 161.453 53.5262C161.516 53.1313 161.583 52.75 161.652 52.3824C161.67 52.2912 161.688 52.2001 161.705 52.1105C161.721 52.0208 161.73 51.9282 161.743 51.8385C161.768 51.6593 161.793 51.4831 161.819 51.3099C161.867 50.9666 161.928 50.6415 161.968 50.3301C162.034 49.7042 162.117 49.1543 162.169 48.6956C162.245 47.7689 162.318 47.2205 162.318 47.2205C162.521 47.3205 162.715 47.4379 162.897 47.5714C163.406 47.9381 163.867 48.37 164.268 48.8566C164.399 49.0085 164.539 49.1877 164.665 49.3731C164.792 49.5584 164.918 49.7604 165.044 49.9807C165.323 50.4667 165.564 50.9747 165.764 51.4998C165.986 52.141 166.162 52.798 166.29 53.4655C166.353 53.8316 166.394 54.2159 166.43 54.6245C166.448 54.8281 166.461 55.0377 166.473 55.2534C166.489 55.4723 166.493 55.6918 166.487 55.9112C166.473 56.4626 166.444 57.0262 166.4 57.5974C166.357 58.1685 166.251 58.7245 166.153 59.2957L166.079 59.7225L165.98 60.1433C165.914 60.4228 165.844 60.7024 165.772 60.9819C165.696 61.2598 165.623 61.5439 165.541 61.8158C165.459 62.0877 165.359 62.3581 165.268 62.627L164.972 63.423C164.926 63.5567 164.874 63.6873 164.823 63.8149L164.661 64.1977C164.549 64.4529 164.438 64.7061 164.329 64.9573C164.217 65.2049 164.113 65.4571 163.985 65.6895C163.742 66.1619 163.498 66.6207 163.258 67.0566C163.142 67.28 163.006 67.485 162.881 67.6916L162.504 68.2993C166.215 63.546 168.872 58.0285 170.29 52.1272C169.894 51.8674 169.194 51.2446 168.481 50.0111C168.292 49.7073 168.098 49.3533 167.909 48.966C167.814 48.7715 167.72 48.568 167.626 48.3583C167.532 48.1487 167.447 47.9208 167.342 47.6823C167.138 47.2099 166.938 46.6934 166.746 46.1329C166.658 45.8518 166.54 45.5571 166.438 45.2533C166.335 44.9495 166.231 44.6305 166.131 44.3024C166.031 43.9408 165.9 43.5687 165.787 43.1904C165.674 42.8122 165.566 42.4309 165.467 42.0435C165.367 41.6562 165.234 41.2688 165.128 40.8784C165.073 40.6839 165.03 40.488 164.969 40.2935L164.796 39.7117C164.741 39.5188 164.688 39.3259 164.634 39.133L164.557 38.8443L164.466 38.5603C164.349 38.1805 164.237 37.8058 164.132 37.4362C164.02 37.0685 163.895 36.71 163.788 36.3591C163.734 36.1829 163.682 36.0097 163.629 35.8381C163.575 35.6664 163.511 35.5024 163.454 35.3383C163.341 35.0082 163.236 34.6907 163.137 34.3858C163.023 34.082 162.917 33.7939 162.819 33.5215C162.634 32.9716 162.43 32.4961 162.281 32.0936L162.077 31.5558C162.013 31.4039 161.956 31.2657 161.912 31.1578C161.822 30.9391 161.775 30.819 161.775 30.819C161.98 30.8126 162.186 30.8243 162.39 30.854C162.63 30.8842 162.868 30.9294 163.103 30.9892C163.241 31.0241 163.39 31.0667 163.55 31.1168C163.709 31.1669 163.863 31.2307 164.031 31.3021C164.408 31.4642 164.774 31.6546 165.124 31.8718C165.554 32.1354 165.958 32.4406 166.33 32.7832C166.539 32.9685 166.75 33.1711 166.965 33.3908C167.178 33.6142 167.376 33.8602 167.586 34.1261C167.796 34.3919 168.001 34.6775 168.211 34.9874C168.421 35.2973 168.602 35.6345 168.795 35.993C170.596 39.3077 171.285 43.6218 171.205 46.9076C171.82 41.4803 171.408 35.983 169.991 30.7142C169.483 30.6398 168.651 30.3846 167.592 29.698C166.493 29.0265 165.198 27.9131 163.536 26.2785C162.533 25.3048 161.538 24.1807 160.509 23.1082L160.136 22.7011C160.011 22.5659 159.879 22.4368 159.754 22.3031C159.499 22.0403 159.253 21.7775 159.009 21.5177C158.765 21.258 158.511 21.018 158.275 20.7719C158.157 20.6503 158.044 20.5258 157.926 20.4088L157.575 20.067C157.343 19.8402 157.124 19.6204 156.918 19.4077C156.711 19.1951 156.504 18.9996 156.297 18.8214C156.1 18.6376 155.924 18.4538 155.749 18.2943L155.263 17.8537C154.965 17.5848 154.745 17.36 154.575 17.2203C154.405 17.0805 154.322 16.9954 154.322 16.9954C154.489 16.9062 154.664 16.832 154.843 16.7737C155.054 16.7017 155.269 16.6429 155.487 16.5974C155.777 16.5396 156.071 16.5026 156.367 16.4866C156.743 16.4655 157.12 16.4726 157.496 16.5078C157.601 16.5169 157.709 16.5276 157.817 16.5428C157.926 16.558 158.035 16.5777 158.148 16.599C158.371 16.643 158.607 16.6977 158.852 16.7645C159.098 16.8314 159.353 16.9165 159.619 17.003C159.886 17.0896 160.145 17.2172 160.425 17.3479C160.705 17.4785 160.99 17.6259 161.286 17.7914C161.582 17.957 161.868 18.1545 162.18 18.3657C163.331 19.18 164.387 20.1265 165.326 21.1866C165.566 21.4509 165.785 21.7289 166.01 22.0023L166.342 22.417C166.451 22.5553 166.561 22.692 166.659 22.8363C166.861 23.1188 167.057 23.4029 167.255 23.6855L167.54 24.1062C167.63 24.2475 167.714 24.3918 167.799 24.5331C166.977 22.6965 166.031 20.92 164.969 19.2163L164.15 17.957L163.282 16.7311C163.133 16.5245 162.984 16.3286 162.835 16.1235L162.376 15.5311C162.22 15.3351 162.078 15.13 161.91 14.9417L161.427 14.369C161.223 14.2626 160.981 14.1305 160.692 13.9694C160.403 13.8084 160.066 13.6398 159.704 13.4362C159.523 13.3345 159.334 13.2266 159.138 13.1112C158.943 12.9957 158.727 12.8879 158.511 12.7648C158.295 12.6418 158.074 12.5172 157.844 12.382L157.497 12.1769L157.131 11.9734C156.885 11.8336 156.632 11.6878 156.377 11.5359L155.989 11.3035L155.582 11.0726C155.308 10.9166 155.031 10.753 154.751 10.5819C154.614 10.4938 154.468 10.4102 154.322 10.3282L153.875 10.0715C152.705 9.35752 151.418 8.61469 150.069 7.7716C149.69 7.54779 149.319 7.31689 148.956 7.0789C148.59 6.84952 148.222 6.62318 147.867 6.3938C147.689 6.28139 147.517 6.1553 147.337 6.04745C147.157 5.93959 146.984 5.82566 146.81 5.71325L146.295 5.3745L146.041 5.20284L145.787 5.04182C145.447 4.82763 145.118 4.61192 144.796 4.39317L144.557 4.23215L144.315 4.08024L143.846 3.77643L143.389 3.47261C143.24 3.37235 143.091 3.26906 142.942 3.17943C142.644 2.99512 142.362 2.81333 142.095 2.63408C141.556 2.26495 141.052 1.96417 140.605 1.66947L139.978 1.2578L139.441 0.920562C138.791 0.505854 138.424 0.246091 138.424 0.246091C138.424 0.246091 138.854 0.170136 139.631 0.0865872L140.279 0.0243044C140.516 0.00911366 140.769 0.00303929 141.043 -0.0045561C141.591 -0.0136706 142.221 -0.0334189 142.9 0.0212679C143.243 0.0435478 143.6 0.0713957 143.973 0.104815C144.16 0.118487 144.347 0.147351 144.537 0.174694L145.12 0.262801L145.715 0.364579L146.024 0.419266C146.125 0.439014 146.228 0.464837 146.33 0.487624C146.741 0.584845 147.164 0.68966 147.595 0.80511L147.918 0.893217L148.241 0.998034L148.892 1.2183C149.111 1.29425 149.331 1.37021 149.552 1.45528C149.772 1.54035 149.99 1.63605 150.21 1.72871C150.646 1.92315 151.092 2.11911 151.53 2.33634C151.967 2.55357 152.395 2.81181 152.827 3.06702C153.013 3.17335 153.193 3.29184 153.369 3.41033L153.892 3.76579C154.233 4.00733 154.575 4.23367 154.886 4.49191C155.498 4.96537 156.085 5.47249 156.642 6.01099C156.91 6.26923 157.169 6.52241 157.417 6.77053C157.665 7.01865 157.895 7.27841 158.106 7.54982C158.325 7.80806 158.541 8.05415 158.736 8.30936C158.931 8.56456 159.115 8.81673 159.292 9.0613C160.325 10.4831 161.157 12.0464 161.763 13.7051C162.945 15.0789 164.038 16.5313 165.032 18.0527C164.734 17.4132 164.373 16.7706 164.034 16.0779L162.933 13.9907C162.543 13.2919 162.175 12.5521 161.775 11.8412C161.578 11.4812 161.39 11.1121 161.198 10.749C161.006 10.3859 160.806 10.0305 160.62 9.66589C160.526 9.48208 160.436 9.30131 160.349 9.12358C160.263 8.94585 160.169 8.77875 160.086 8.61014C159.916 8.27138 159.761 7.94174 159.618 7.62121L159.211 6.70065C159.086 6.40595 158.972 6.12037 158.869 5.84389C158.765 5.56894 158.677 5.29551 158.587 5.04486C158.498 4.79421 158.422 4.55116 158.354 4.31874C158.229 3.89814 158.126 3.47121 158.045 3.03967C157.924 2.46448 157.86 1.87808 157.856 1.2897C157.854 1.08609 157.87 0.882684 157.904 0.682065L158.284 0.975249C158.525 1.16969 158.879 1.43097 159.305 1.8153C160.438 2.78573 161.508 3.83001 162.509 4.94156C163.798 6.36068 164.959 7.89617 165.976 9.52918C166.232 9.95452 166.48 10.3804 166.721 10.8067C166.959 11.2321 167.167 11.6741 167.376 12.1025C167.475 12.3182 167.574 12.5324 167.674 12.7451C167.772 12.9562 167.852 13.1765 167.937 13.3907C168.104 13.8191 168.257 14.2398 168.394 14.65C168.619 15.3609 168.779 16.0293 168.91 16.6354C168.978 16.9392 169.016 17.2431 169.059 17.5195C169.102 17.796 169.124 18.0725 169.147 18.3307C169.169 18.589 169.184 18.8335 169.19 19.0675C169.196 19.3014 169.19 19.5232 169.176 19.7435C169.159 20.1288 169.119 20.5128 169.057 20.8934C169.029 21.0635 168.999 21.2246 168.963 21.3749C168.928 21.5253 168.883 21.6788 168.84 21.8064C168.764 22.0464 168.672 22.2808 168.564 22.5082C168.421 22.8199 168.237 23.1107 168.018 23.3725C169.252 25.977 170.217 28.7052 170.898 31.5133C171.585 34.3189 171.995 37.1875 172.124 40.0763C172.189 38.3658 172.244 36.312 172.235 34.1215C172.227 31.931 172.143 29.6053 172.101 27.3267C172.101 27.0973 172.101 26.871 172.101 26.6522C172.101 26.4335 172.101 26.2132 172.101 26.0036C172.101 25.5833 172.106 25.1782 172.115 24.7883C172.124 24.3984 172.14 24.0247 172.162 23.6672C172.178 23.3097 172.202 22.9674 172.232 22.6403C172.261 22.3137 172.304 21.9978 172.337 21.7031C172.369 21.4084 172.408 21.1273 172.451 20.86C172.527 20.3776 172.626 19.8995 172.749 19.4275C172.898 18.7926 173.111 18.1751 173.384 17.5848C173.478 17.3795 173.59 17.1837 173.72 17L173.957 17.4876L174.234 18.0664C174.286 18.1803 174.344 18.3019 174.404 18.431C174.463 18.5601 174.52 18.7014 174.581 18.8487C175.249 20.3997 175.811 21.996 176.263 23.6262C176.55 24.5924 176.766 25.6436 176.988 26.713C177.165 27.7976 177.347 28.902 177.421 30.0185C177.513 31.1131 177.543 32.2122 177.512 33.3103C177.484 33.8466 177.447 34.3737 177.4 34.8841C177.374 35.1408 177.356 35.39 177.315 35.6436C177.275 35.8973 177.238 36.1358 177.195 36.3758C177.114 36.8224 177.03 37.2432 176.942 37.6427C176.854 38.0423 176.73 38.419 176.621 38.7745C176.513 39.1299 176.4 39.4626 176.285 39.7755C176.17 40.0885 176.033 40.3832 175.908 40.6551C175.683 41.1482 175.427 41.6257 175.141 42.0845C174.902 42.4491 174.639 42.7977 174.356 43.1281C173.965 43.5943 173.508 43.9979 172.999 44.3252C172.711 44.5054 172.399 44.643 172.073 44.7338C171.873 47.9421 171.323 51.1178 170.435 54.2022L170.273 54.7825L170.083 55.3522L169.705 56.4945L169.61 56.7786L169.501 57.0596L169.285 57.6201L168.85 58.7397L168.365 59.838L168.12 60.3864C168.08 60.4775 168.042 60.5702 167.998 60.6598L167.863 60.9287L167.325 62.0012C167.234 62.1789 167.148 62.3597 167.053 62.5359L166.755 63.0569C167.797 61.471 169.072 59.4673 170.319 57.2282C171.565 54.9891 172.833 52.5373 174.072 50.1387C174.301 49.683 174.547 49.2591 174.766 48.8459C174.985 48.4328 175.196 48.0378 175.412 47.6626C175.521 47.4742 175.628 47.2904 175.737 47.1127C175.846 46.9349 175.953 46.7603 176.05 46.5886C176.248 46.2483 176.447 45.9258 176.645 45.6209C177.292 44.6051 178.013 43.6403 178.802 42.7347C179.121 42.3792 179.43 42.083 179.695 41.8384C179.914 41.633 180.143 41.4393 180.382 41.2582C180.577 41.1051 180.786 40.9713 181.006 40.8586C181.006 40.8586 181.006 41.0759 180.994 41.4663C180.982 41.8567 180.952 42.4354 180.894 43.1494C180.864 43.5064 180.83 43.8983 180.795 44.3206C180.784 44.427 180.774 44.5333 180.763 44.6427L180.719 44.9753C180.686 45.2017 180.653 45.4311 180.619 45.6726C180.549 46.1496 180.47 46.6509 180.389 47.1719C180.309 47.693 180.172 48.2353 180.051 48.7867C179.99 49.0632 179.926 49.3427 179.862 49.6268C179.798 49.9108 179.713 50.1949 179.633 50.482C179.471 51.0562 179.301 51.6395 179.122 52.2259C178.943 52.8123 178.708 53.3941 178.491 53.9789L178.325 54.4164C178.27 54.5683 178.214 54.7081 178.148 54.8509L177.767 55.7091C177.636 55.9917 177.506 56.2742 177.375 56.5583L177.175 56.9761L176.957 57.3862C176.659 57.9285 176.361 58.4602 176.063 58.9752C175.765 59.4901 175.415 59.9732 175.089 60.4426C174.925 60.6765 174.761 60.9054 174.596 61.1292C174.426 61.351 174.248 61.5621 174.073 61.7687C173.74 62.1652 173.416 62.5283 173.101 62.8731C172.952 63.0448 172.779 63.2028 172.62 63.3562C172.46 63.5096 172.301 63.66 172.145 63.7997C171.833 64.0823 171.534 64.3405 171.244 64.579C170.953 64.8175 170.648 65.0196 170.374 65.211C169.874 65.5504 169.353 65.8549 168.813 66.1224C168.378 66.3272 167.93 66.5017 167.473 66.645C167.115 66.756 166.749 66.8393 166.379 66.8941C166.091 66.9323 165.8 66.9465 165.51 66.9366C165.152 66.9311 164.796 66.8717 164.455 66.7604C164.207 67.1113 163.968 67.4698 163.711 67.8147L162.924 68.8355L162.53 69.3459L162.113 69.8366L161.28 70.8179C160.994 71.1369 160.696 71.4453 160.404 71.7597C160.112 72.0742 159.825 72.3932 159.511 72.6848L158.589 73.5811L158.358 73.8044L158.118 74.0171L157.637 74.4424C155.081 76.7411 152.252 78.7038 149.217 80.2848C151.133 79.4857 153.469 78.4087 155.919 77.1038C158.368 75.7989 160.949 74.2829 163.465 72.7745C164.403 72.1866 165.322 71.6959 166.138 71.2205C166.552 70.9845 166.958 70.7703 167.355 70.5779C167.742 70.3743 168.107 70.1784 168.469 70.0037C169.924 69.3094 171.121 68.8021 172.145 68.4952C172.657 68.3433 173.09 68.2188 173.485 68.1352C173.81 68.0623 174.139 68.007 174.469 67.9696C174.741 67.9343 175.015 67.9251 175.289 67.9423L174.93 68.5271C174.694 68.9023 174.362 69.4538 173.887 70.1039C173.412 70.7541 172.874 71.5471 172.186 72.3749L171.664 73.0175C171.483 73.2347 171.305 73.4611 171.104 73.6768C170.707 74.1158 170.293 74.5685 169.863 75.0288C167.987 76.9825 165.914 78.7289 163.679 80.2392C161.497 81.7159 159.123 82.8731 156.626 83.6769C156.081 83.841 155.561 83.9847 155.065 84.1083C154.56 84.2177 154.079 84.3043 153.622 84.3772C153.394 84.4136 153.175 84.4455 152.956 84.4744L152.635 84.5154C152.529 84.526 152.422 84.5321 152.319 84.5397C151.9 84.5686 151.506 84.5823 151.127 84.5868C150.749 84.5914 150.405 84.5868 150.074 84.5655C149.744 84.5443 149.424 84.4987 149.129 84.4547C148.605 84.3776 148.088 84.2628 147.58 84.1113C146.871 83.8931 146.201 83.5636 145.592 83.1346C145.266 82.9055 144.976 82.6286 144.731 82.3128C142.48 83.1615 140.164 83.8155 137.806 84.2678L136.921 84.4303L136.474 84.5109C136.325 84.5352 136.176 84.5503 136.027 84.5716C135.432 84.6476 134.836 84.7235 134.24 84.7995L132.445 84.9377C132.148 84.9681 131.85 84.9666 131.552 84.9757L130.658 85C130.295 85.0091 130 84.8618 130 84.6719C130 84.482 130.298 84.321 130.648 84.3119L131.497 84.2906L131.921 84.2784H132.134L132.346 84.2617L134.042 84.1296L134.254 84.1129L134.463 84.0855L134.885 84.0308L135.728 83.9215C136.292 83.8622 136.848 83.7468 137.406 83.648C137.468 83.2372 137.579 82.8356 137.737 82.4525C137.838 82.1897 137.971 81.9132 138.133 81.5882C138.314 81.2322 138.513 80.8859 138.729 80.5506C138.966 80.1785 139.244 79.7911 139.561 79.3809C139.879 78.9708 140.236 78.5044 140.641 78.0441C140.742 77.9272 140.85 77.8163 140.954 77.6917L141.28 77.3165C141.502 77.0643 141.737 76.8076 141.985 76.557C142.108 76.4248 142.238 76.3033 142.364 76.162C142.491 76.0207 142.62 75.881 142.755 75.7397C143.021 75.4587 143.301 75.1731 143.596 74.886C144.84 73.5917 146.217 72.2732 147.526 70.9364C148.835 69.5996 150.058 68.2522 151.11 67.0323L151.494 66.5766L151.683 66.3609C151.742 66.285 151.8 66.2105 151.857 66.1376C152.088 65.8444 152.311 65.568 152.524 65.3097L152.682 65.1183L152.831 64.9239L153.107 64.5563C153.285 64.3203 153.452 64.1056 153.606 63.9122C154.178 63.0979 154.539 62.6316 154.539 62.6316C154.678 62.8404 154.799 63.0609 154.9 63.2909C155.183 63.9259 155.383 64.5959 155.496 65.2839C155.581 65.7783 155.622 66.2797 155.618 66.7817C155.618 67.0597 155.607 67.3529 155.583 67.6612C155.572 67.8132 155.56 67.9772 155.537 68.1352C155.515 68.2932 155.487 68.4542 155.457 68.6198C155.394 68.9494 155.318 69.2958 155.223 69.6573C155.174 69.8381 155.123 70.0249 155.065 70.2103C155.007 70.3956 154.934 70.5779 154.861 70.7678C154.712 71.146 154.547 71.541 154.356 71.9511C154.166 72.3613 153.933 72.7562 153.68 73.1801Z" fill="#C5CBD5"/>
</g>
<defs>
<clipPath id="clip0_57_53699">
<rect width="51" height="85" fill="white"/>
</clipPath>
<clipPath id="clip1_57_53699">
<rect width="51" height="85" fill="white" transform="matrix(-1 0 0 1 181 0)"/>
</clipPath>
</defs>
</svg>
