<svg width="181" height="85" viewBox="0 0 181 85" fill="none" xmlns="http://www.w3.org/2000/svg">
<path d="M51.1868 69.8622H81.1326V10.4395H51.1868V69.8622ZM60.4425 60.9632H64.3601V64.0729C64.3601 65.4112 64.9312 66.0806 66.074 66.0806C67.1025 66.0806 67.6166 65.4112 67.6166 64.0729V58.5147C66.882 59.1512 65.9107 59.4697 64.7029 59.4697C61.8626 59.4697 60.4425 57.9271 60.4425 54.8419V37.9961C60.4425 34.9273 61.8626 33.3929 64.7029 33.3929C65.9107 33.3929 66.882 33.7111 67.6166 34.3478V33.6377H72.7831V34.5436H71.5342V61.8691C71.5342 63.3054 71.0281 64.5174 70.0162 65.5053C69.0038 66.4927 67.6901 66.9865 66.074 66.9865C64.5559 66.9865 63.2376 66.4845 62.1197 65.4807C61.0015 64.4767 60.4425 63.2729 60.4425 61.8691V60.9632Z" fill="#C30044"/>
<path d="M67.6166 35.254C67.0451 34.6827 66.4413 34.397 65.8048 34.397C64.8413 34.397 64.3601 35.0337 64.3601 36.3068V56.5561C64.3601 57.8295 64.8413 58.466 65.8048 58.466C66.4413 58.466 67.0451 58.1806 67.6166 57.609V35.254Z" fill="#C30044"/>
<path d="M102.999 10.4395V69.8622H132.945V10.4395H102.999ZM128.464 59.7145H123.298V36.3065C123.298 35.0334 122.816 34.3967 121.853 34.3967C121.102 34.3967 120.351 34.7969 119.601 35.5965C119.894 36.2495 120.041 37.0495 120.041 37.9961V58.8084H121.29V59.7145H116.148V36.3065C116.148 35.0334 115.658 34.3967 114.679 34.3967C114.042 34.3967 113.438 34.6824 112.867 35.2537V58.8084H114.14V59.7145H107.701V58.8084H108.974V34.5436H107.701V33.6377H112.867V34.3478C113.602 33.7111 114.573 33.3929 115.781 33.3929C117.397 33.3929 118.556 33.891 119.258 34.8864C120.253 33.891 121.486 33.3929 122.955 33.3929C125.795 33.3929 127.216 34.9273 127.216 37.9961V58.8084H128.464V59.7145Z" fill="#C30044"/>
<path d="M93.6259 27.3366C92.4177 27.3366 91.4469 27.6549 90.7123 28.2916V18.5464H85.546V19.4525H86.8191V52.7524H85.546V53.6583H90.7123V52.9482C91.4469 53.5849 92.4177 53.9031 93.6259 53.9031C96.4662 53.9031 97.8863 52.369 97.8863 49.3V31.9398C97.8863 28.8712 96.4662 27.3366 93.6259 27.3366ZM93.9689 50.9893C93.9689 52.2627 93.4871 52.8992 92.5242 52.8992C91.8875 52.8992 91.2835 52.6138 90.7123 52.0423V29.1974C91.2835 28.6264 91.8875 28.3406 92.5242 28.3406C93.4871 28.3406 93.9689 28.9771 93.9689 30.2503V50.9893Z" fill="#C30044"/>
<g clip-path="url(#clip0_57_53697)">
<path d="M27.3199 73.1801C28.5784 75.243 30.3403 77.1555 32.2779 78.7019C34.0773 80.1443 36.054 81.3403 38.1577 82.2596C35.1053 81.2361 32.1776 79.86 29.4318 78.1581C26.6955 76.4396 24.1567 74.4137 21.8631 72.1182C22.022 71.7791 22.1415 71.4223 22.219 71.0549C22.3562 70.4158 22.4236 69.7632 22.4201 69.1089C22.4201 68.9064 22.4156 68.6983 22.4067 68.4846C22.4067 68.2613 22.3933 68.0289 22.3784 67.7858C22.3471 67.3027 22.292 66.7802 22.2056 66.2227C22.1193 65.6652 22.0448 65.0348 21.9078 64.3861C21.872 64.2251 21.8452 64.0565 21.8155 63.8833L21.7186 63.3607C21.6501 63.0068 21.5697 62.6452 21.4833 62.2716C21.1571 60.634 20.7074 58.9189 20.3232 57.2206L20.2829 57.0687L20.2517 56.9168L20.1861 56.5963C20.1399 56.3867 20.0938 56.1755 20.0491 55.9659C20.0044 55.7562 19.9508 55.5527 19.9002 55.3461C19.8495 55.1395 19.8227 54.9314 19.784 54.7263C19.7453 54.5212 19.7021 54.3222 19.6619 54.1187C19.6217 53.9151 19.574 53.7252 19.5472 53.5262C19.4837 53.1313 19.4172 52.75 19.3477 52.3824C19.3298 52.2912 19.3119 52.2001 19.2955 52.1105C19.2791 52.0208 19.2702 51.9282 19.2568 51.8385C19.232 51.6593 19.2066 51.4831 19.1808 51.3099C19.1332 50.9666 19.0721 50.6415 19.0319 50.3301C18.9664 49.7042 18.883 49.1543 18.8309 48.6956C18.7549 47.7689 18.6819 47.2205 18.6819 47.2205C18.4794 47.3205 18.2855 47.4379 18.1026 47.5714C17.5937 47.9381 17.1332 48.37 16.7324 48.8566C16.6014 49.0085 16.4614 49.1877 16.3348 49.3731C16.2082 49.5584 16.0816 49.7604 15.9565 49.9807C15.677 50.4667 15.4359 50.9747 15.2356 51.4998C15.0136 52.141 14.8378 52.798 14.7099 53.4655C14.6474 53.8316 14.6057 54.2159 14.5699 54.6245C14.5521 54.8281 14.5386 55.0377 14.5267 55.2534C14.511 55.4723 14.5066 55.6918 14.5134 55.9112C14.5268 56.4626 14.5565 57.0262 14.5997 57.5974C14.6429 58.1685 14.7487 58.7245 14.847 59.2957L14.9214 59.7225L15.0197 60.1433C15.0862 60.4228 15.1557 60.7024 15.2282 60.9819C15.3041 61.2598 15.3771 61.5439 15.459 61.8158C15.541 62.0877 15.6407 62.3581 15.7316 62.627L16.028 63.423C16.0741 63.5567 16.1263 63.6873 16.1769 63.8149L16.3392 64.1977C16.4514 64.4529 16.5621 64.7061 16.6714 64.9573C16.7831 65.2049 16.8873 65.4571 17.0154 65.6895C17.2581 66.1619 17.5024 66.6207 17.7422 67.0566C17.8583 67.28 17.9939 67.485 18.119 67.6916L18.4958 68.2993C14.7848 63.546 12.1284 58.0285 10.7096 52.1272C11.1058 51.8674 11.8058 51.2446 12.5191 50.0111C12.7083 49.7073 12.9019 49.3533 13.0911 48.966C13.1864 48.7715 13.2802 48.568 13.374 48.3583C13.4678 48.1487 13.5527 47.9208 13.6585 47.6823C13.8625 47.2099 14.0621 46.6934 14.2542 46.1329C14.3421 45.8518 14.4597 45.5571 14.5625 45.2533C14.6652 44.9495 14.7695 44.6305 14.8693 44.3024C14.9691 43.9408 15.1001 43.5687 15.2133 43.1904C15.3265 42.8122 15.4337 42.4309 15.5335 42.0435C15.6333 41.6562 15.7658 41.2688 15.8716 40.8784C15.9267 40.6839 15.9699 40.488 16.031 40.2935L16.2037 39.7117C16.2588 39.5188 16.3124 39.3259 16.366 39.133L16.4435 38.8443L16.5343 38.5603C16.6515 38.1805 16.7627 37.8058 16.8679 37.4362C16.9796 37.0685 17.1047 36.71 17.212 36.3591C17.2656 36.1829 17.3177 36.0097 17.3713 35.8381C17.4249 35.6664 17.489 35.5024 17.5456 35.3383C17.6588 35.0082 17.7645 34.6907 17.8628 34.3858C17.977 34.082 18.0832 33.7939 18.1815 33.5215C18.3662 32.9716 18.5702 32.4961 18.7192 32.0936L18.9232 31.5558C18.9872 31.4039 19.0438 31.2657 19.0885 31.1578C19.1779 30.9391 19.2255 30.819 19.2255 30.819C19.0199 30.8126 18.8141 30.8243 18.6104 30.854C18.3702 30.8842 18.1319 30.9294 17.8971 30.9892C17.7586 31.0241 17.6096 31.0667 17.4503 31.1168C17.2909 31.1669 17.1375 31.2307 16.9692 31.3021C16.5915 31.4642 16.2261 31.6546 15.8761 31.8718C15.4462 32.1354 15.0422 32.4406 14.6697 32.7832C14.4612 32.9685 14.2497 33.1711 14.0353 33.3908C13.8223 33.6142 13.6242 33.8602 13.4142 34.1261C13.2042 34.3919 12.9987 34.6775 12.7887 34.9874C12.5787 35.2973 12.3985 35.6345 12.2049 35.993C10.4043 39.3077 9.71476 43.6218 9.79518 46.9076C9.17957 41.4803 9.59166 35.983 11.009 30.7142C11.5169 30.6398 12.3494 30.3846 13.4083 29.698C14.5074 29.0265 15.8016 27.9131 17.4636 26.2785C18.4674 25.3048 19.4623 24.1807 20.4914 23.1082L20.8638 22.7011C20.9889 22.5659 21.1214 22.4368 21.2465 22.3031C21.5012 22.0403 21.7469 21.7775 21.9912 21.5177C22.2354 21.258 22.4886 21.018 22.7254 20.7719C22.8431 20.6503 22.9563 20.5258 23.0739 20.4088L23.4254 20.067C23.6567 19.8402 23.8757 19.6204 24.0822 19.4077C24.2887 19.1951 24.4957 18.9996 24.7032 18.8214C24.8998 18.6376 25.0755 18.4538 25.2513 18.2943L25.7368 17.8537C26.0346 17.5848 26.2551 17.36 26.4249 17.2203C26.5946 17.0805 26.678 16.9954 26.678 16.9954C26.5109 16.9062 26.3365 16.832 26.1568 16.7737C25.946 16.7017 25.7311 16.6429 25.5134 16.5974C25.2229 16.5396 24.9288 16.5026 24.6332 16.4866C24.2569 16.4655 23.8796 16.4726 23.5043 16.5078C23.3986 16.5169 23.2913 16.5276 23.1826 16.5428C23.0739 16.558 22.9652 16.5777 22.852 16.599C22.6286 16.643 22.3933 16.6977 22.1476 16.7645C21.9018 16.8314 21.6471 16.9165 21.3805 17.003C21.114 17.0896 20.8548 17.2172 20.5748 17.3479C20.2949 17.4785 20.0104 17.6259 19.714 17.7914C19.4176 17.957 19.1317 18.1545 18.8204 18.3657C17.669 19.18 16.6132 20.1265 15.6735 21.1866C15.4338 21.4509 15.2148 21.7289 14.9899 22.0023L14.6578 22.417C14.5491 22.5553 14.4389 22.692 14.3406 22.8363C14.1395 23.1188 13.9429 23.4029 13.7448 23.6855L13.4604 24.1062C13.3695 24.2475 13.2861 24.3918 13.2013 24.5331C14.0232 22.6965 14.9687 20.92 16.031 19.2163L16.8501 17.957L17.7184 16.7311C17.8673 16.5245 18.0162 16.3286 18.1651 16.1235L18.6238 15.5311C18.7802 15.3351 18.9217 15.13 19.09 14.9417L19.5725 14.369C19.7766 14.2626 20.0193 14.1305 20.3083 13.9694C20.5972 13.8084 20.9338 13.6398 21.2957 13.4362C21.4774 13.3345 21.6665 13.2266 21.8616 13.1112C22.0567 12.9957 22.2726 12.8879 22.4886 12.7648C22.7045 12.6418 22.9265 12.5172 23.1558 12.382L23.5028 12.1769L23.8692 11.9734C24.1149 11.8336 24.3681 11.6878 24.6228 11.5359L25.0115 11.3035L25.4181 11.0726C25.6921 10.9166 25.9691 10.753 26.2491 10.5819C26.3861 10.4938 26.5321 10.4102 26.678 10.3282L27.1248 10.0715C28.2954 9.35752 29.5822 8.61469 30.9315 7.7716C31.3098 7.54779 31.6806 7.31689 32.044 7.0789C32.4104 6.84952 32.7783 6.62318 33.1327 6.3938C33.3115 6.28139 33.4827 6.1553 33.6629 6.04745C33.8431 5.93959 34.0159 5.82566 34.1901 5.71325L34.7054 5.3745L34.9586 5.20284L35.2133 5.04182C35.5529 4.82763 35.882 4.61192 36.2037 4.39317L36.4435 4.23215L36.6847 4.08024L37.1539 3.77643L37.6111 3.47261C37.76 3.37235 37.9089 3.26906 38.0579 3.17943C38.3557 2.99512 38.6382 2.81333 38.9053 2.63408C39.4444 2.26495 39.9478 1.96417 40.3946 1.66947L41.0216 1.2578L41.5592 0.920562C42.2086 0.505854 42.5764 0.246091 42.5764 0.246091C42.5764 0.246091 42.146 0.170136 41.3686 0.0865872L40.7208 0.0243044C40.484 0.00911366 40.2308 0.00303929 39.9567 -0.0045561C39.4087 -0.0136706 38.7787 -0.0334189 38.0996 0.0212679C37.757 0.0435478 37.3996 0.0713957 37.0273 0.104815C36.8396 0.118487 36.6534 0.147351 36.4628 0.174694L35.8805 0.262801L35.2848 0.364579L34.9765 0.419266C34.8752 0.439014 34.7724 0.464837 34.6697 0.487624C34.2586 0.584845 33.8357 0.68966 33.4053 0.80511L33.0821 0.893217L32.7589 0.998034L32.1081 1.2183C31.8891 1.29425 31.6687 1.37021 31.4483 1.45528C31.2279 1.54035 31.0105 1.63605 30.79 1.72871C30.3537 1.92315 29.9084 2.11911 29.4705 2.33634C29.0326 2.55357 28.6052 2.81181 28.1733 3.06702C27.9872 3.17335 27.8069 3.29184 27.6312 3.41033L27.1084 3.76579C26.7674 4.00733 26.4249 4.23367 26.1136 4.49191C25.5017 4.96537 24.9155 5.47249 24.3577 6.01099C24.0896 6.26923 23.8315 6.52241 23.5832 6.77053C23.335 7.01865 23.1052 7.27841 22.8937 7.54982C22.6748 7.80806 22.4588 8.05415 22.2637 8.30936C22.0686 8.56456 21.8854 8.81673 21.7082 9.0613C20.6747 10.4831 19.8429 12.0464 19.2374 13.7051C18.0545 15.0789 16.9625 16.5313 15.9684 18.0527C16.2663 17.4132 16.6267 16.7706 16.9662 16.0779L18.0668 13.9907C18.457 13.2919 18.8249 12.5521 19.2255 11.8412C19.4221 11.4812 19.6098 11.1121 19.8019 10.749C19.994 10.3859 20.1936 10.0305 20.3797 9.66589C20.4736 9.48208 20.5644 9.30131 20.6508 9.12358C20.7372 8.94585 20.831 8.77875 20.9144 8.61014C21.0842 8.27138 21.2391 7.94174 21.382 7.62121L21.7886 6.70065C21.9137 6.40595 22.0279 6.12037 22.1312 5.84389C22.2354 5.56894 22.3233 5.29551 22.4127 5.04486C22.502 4.79421 22.578 4.55116 22.6465 4.31874C22.771 3.89814 22.8739 3.47121 22.9548 3.03967C23.0763 2.46448 23.1397 1.87808 23.1439 1.2897C23.1464 1.08609 23.1304 0.882684 23.0962 0.682065L22.7165 0.975249C22.4752 1.16969 22.1208 1.43097 21.6948 1.8153C20.5619 2.78573 19.4918 3.83001 18.4913 4.94156C17.202 6.36068 16.0415 7.89617 15.0242 9.52918C14.768 9.95452 14.5198 10.3804 14.2795 10.8067C14.0412 11.2321 13.8327 11.6741 13.6242 12.1025C13.5249 12.3182 13.4257 12.5324 13.3264 12.7451C13.2281 12.9562 13.1477 13.1765 13.0628 13.3907C12.896 13.8191 12.7425 14.2398 12.6055 14.65C12.3806 15.3609 12.2213 16.0293 12.0902 16.6354C12.0217 16.9392 11.9845 17.2431 11.9413 17.5195C11.8981 17.796 11.8758 18.0725 11.8534 18.3307C11.8311 18.589 11.8162 18.8335 11.8102 19.0675C11.8043 19.3014 11.8102 19.5232 11.8236 19.7435C11.8412 20.1288 11.8809 20.5128 11.9428 20.8934C11.9711 21.0635 12.0009 21.2246 12.0366 21.3749C12.0723 21.5253 12.117 21.6788 12.1602 21.8064C12.2365 22.0464 12.3285 22.2808 12.4357 22.5082C12.5792 22.8199 12.7631 23.1107 12.9823 23.3725C11.7483 25.977 10.783 28.7052 10.102 31.5133C9.41517 34.3189 9.00457 37.1875 8.87629 40.0763C8.81076 38.3658 8.75566 36.312 8.76459 34.1215C8.77353 31.931 8.85691 29.6053 8.89861 27.3267C8.89861 27.0973 8.89861 26.871 8.89861 26.6522C8.89861 26.4335 8.89861 26.2132 8.89861 26.0036C8.89861 25.5833 8.89417 25.1782 8.88523 24.7883C8.8763 24.3984 8.8604 24.0247 8.83757 23.6672C8.82168 23.3097 8.79835 22.9674 8.76757 22.6403C8.73928 22.3137 8.69609 21.9978 8.66333 21.7031C8.63056 21.4084 8.59184 21.1273 8.54865 20.86C8.47343 20.3776 8.37401 19.8995 8.25079 19.4275C8.10206 18.7926 7.88945 18.1751 7.61634 17.5848C7.52244 17.3795 7.40975 17.1837 7.27975 17L7.04294 17.4876L6.76595 18.0664C6.71382 18.1803 6.65572 18.3019 6.59614 18.431C6.53657 18.5601 6.47999 18.7014 6.41893 18.8487C5.75084 20.3997 5.18901 21.996 4.73749 23.6262C4.45005 24.5924 4.23412 25.6436 4.01221 26.713C3.83498 27.7976 3.65326 28.902 3.5788 30.0185C3.48732 31.1131 3.45701 32.2122 3.48797 33.3103C3.51627 33.8466 3.5535 34.3737 3.59967 34.8841C3.62648 35.1408 3.64436 35.39 3.68457 35.6436C3.72478 35.8973 3.76199 36.1358 3.80518 36.3758C3.8856 36.8224 3.97048 37.2432 4.05835 37.6427C4.14622 38.0423 4.26986 38.419 4.37857 38.7745C4.48729 39.1299 4.60048 39.4626 4.71516 39.7755C4.82984 40.0885 4.96686 40.3832 5.09196 40.6551C5.31669 41.1482 5.57289 41.6257 5.85894 42.0845C6.09852 42.4491 6.36068 42.7977 6.64381 43.1281C7.03463 43.5943 7.49202 43.9979 8.00059 44.3252C8.28887 44.5054 8.60076 44.643 8.92694 44.7338C9.12728 47.9421 9.67674 51.1178 10.5652 54.2022L10.7275 54.7825L10.9166 55.3522L11.2949 56.4945L11.3903 56.7786L11.499 57.0596L11.7149 57.6201L12.1498 58.7397L12.6353 59.838L12.8796 60.3864C12.9198 60.4775 12.9585 60.5702 13.0017 60.6598L13.1372 60.9287L13.6748 62.0012C13.7657 62.1789 13.8521 62.3597 13.9474 62.5359L14.2453 63.0569C13.2027 61.471 11.9279 59.4673 10.6814 57.2282C9.4348 54.9891 8.16737 52.5373 6.92826 50.1387C6.6989 49.683 6.45318 49.2591 6.23425 48.8459C6.01532 48.4328 5.80383 48.0378 5.58788 47.6626C5.47916 47.4742 5.37194 47.2904 5.26322 47.1127C5.1545 46.9349 5.04729 46.7603 4.95048 46.5886C4.75191 46.2483 4.55333 45.9258 4.35476 45.6209C3.70784 44.6051 2.98694 43.6403 2.1982 42.7347C1.87949 42.3792 1.56971 42.083 1.30461 41.8384C1.08577 41.633 0.856626 41.4393 0.618062 41.2582C0.422951 41.1051 0.214011 40.9713 -0.00595093 40.8586C-0.00595093 40.8586 -0.00597565 41.0759 0.00593884 41.4663C0.0178533 41.8567 0.0476643 42.4354 0.105747 43.1494C0.135534 43.5064 0.169776 43.8983 0.20552 44.3206C0.215945 44.427 0.226364 44.5333 0.236789 44.6427L0.281476 44.9753C0.314241 45.2017 0.346994 45.4311 0.381248 45.6726C0.451246 46.1496 0.530185 46.6509 0.610608 47.1719C0.691031 47.693 0.828051 48.2353 0.948685 48.7867C1.00975 49.0632 1.07379 49.3427 1.13783 49.6268C1.20187 49.9108 1.28677 50.1949 1.36719 50.482C1.52953 51.0562 1.6993 51.6395 1.87801 52.2259C2.05673 52.8123 2.29204 53.3941 2.50948 53.9789L2.67481 54.4164C2.72992 54.5683 2.7865 54.7081 2.85203 54.8509L3.2333 55.7091C3.36436 55.9917 3.49391 56.2742 3.62497 56.5583L3.82456 56.9761L4.04348 57.3862C4.34134 57.9285 4.6392 58.4602 4.93707 58.9752C5.23493 59.4901 5.58492 59.9732 5.91108 60.4426C6.07491 60.6765 6.2392 60.9054 6.40402 61.1292C6.5738 61.351 6.75252 61.5621 6.92677 61.7687C7.26037 62.1652 7.58356 62.5283 7.89929 62.8731C8.04822 63.0448 8.22098 63.2028 8.38034 63.3562C8.53969 63.5096 8.69908 63.66 8.85546 63.7997C9.16672 64.0823 9.46604 64.3405 9.75646 64.579C10.0469 64.8175 10.3522 65.0196 10.6262 65.211C11.1257 65.5504 11.6472 65.8549 12.187 66.1224C12.6218 66.3272 13.0696 66.5017 13.5274 66.645C13.8851 66.756 14.2506 66.8393 14.6206 66.8941C14.9089 66.9323 15.1997 66.9465 15.4903 66.9366C15.8484 66.9311 16.2037 66.8717 16.5448 66.7604C16.7935 67.1113 17.0318 67.4698 17.2894 67.8147L18.0758 68.8355L18.4704 69.3459L18.8874 69.8366L19.72 70.8179C20.0059 71.1369 20.3038 71.4453 20.5957 71.7597C20.8876 72.0742 21.175 72.3932 21.4893 72.6848L22.4112 73.5811L22.642 73.8044L22.8818 74.0171L23.3628 74.4424C25.9193 76.7411 28.7482 78.7038 31.7834 80.2848C29.8667 79.4857 27.5314 78.4087 25.0815 77.1038C22.6316 75.7989 20.0506 74.2829 17.5352 72.7745C16.5969 72.1866 15.678 71.6959 14.8618 71.2205C14.4478 70.9845 14.0422 70.7703 13.6451 70.5779C13.2578 70.3743 12.893 70.1784 12.5311 70.0037C11.076 69.3094 9.87861 68.8021 8.85546 68.4952C8.34313 68.3433 7.90974 68.2188 7.51507 68.1352C7.19003 68.0623 6.86141 68.007 6.53062 67.9696C6.25903 67.9343 5.98478 67.9251 5.7115 67.9423L6.07041 68.5271C6.30572 68.9023 6.63784 69.4538 7.11293 70.1039C7.58802 70.7541 8.12569 71.5471 8.81375 72.3749L9.3365 73.0175C9.51671 73.2347 9.69543 73.4611 9.89648 73.6768C10.2926 74.1158 10.7066 74.5685 11.1371 75.0288C13.013 76.9825 15.0856 78.7289 17.3207 80.2392C19.5026 81.7159 21.8769 82.8731 24.3741 83.6769C24.9192 83.841 25.4394 83.9847 25.9349 84.1083C26.4398 84.2177 26.9208 84.3043 27.378 84.3772C27.6059 84.4136 27.8248 84.4455 28.0437 84.4744L28.3654 84.5154C28.4712 84.526 28.5784 84.5321 28.6812 84.5397C29.0997 84.5686 29.4943 84.5823 29.8726 84.5868C30.2509 84.5914 30.5949 84.5868 30.9256 84.5655C31.2562 84.5443 31.5764 84.4987 31.8713 84.4547C32.3948 84.3776 32.9124 84.2628 33.4202 84.1113C34.1286 83.8931 34.7994 83.5636 35.4084 83.1346C35.7335 82.9055 36.0236 82.6286 36.2692 82.3128C38.5198 83.1615 40.8364 83.8155 43.1945 84.2678L44.0792 84.4303L44.526 84.5109C44.6749 84.5352 44.8238 84.5503 44.9728 84.5716C45.5685 84.6476 46.1642 84.7235 46.7599 84.7995L48.5545 84.9377C48.8524 84.9681 49.1503 84.9666 49.4481 84.9757L50.3417 85C50.7051 85.0091 51 84.8618 51 84.6719C51 84.482 50.7021 84.321 50.3521 84.3119L49.5032 84.2906L49.0788 84.2784H48.8658L48.6543 84.2617L46.958 84.1296L46.7465 84.1129L46.5365 84.0855L46.1151 84.0308L45.2721 83.9215C44.7077 83.8622 44.1522 83.7468 43.5937 83.648C43.532 83.2372 43.421 82.8356 43.263 82.4525C43.1618 82.1897 43.0292 81.9132 42.8669 81.5882C42.6858 81.2322 42.4869 80.8859 42.2711 80.5506C42.0343 80.1785 41.7559 79.7911 41.4386 79.3809C41.1214 78.9708 40.764 78.5044 40.3589 78.0441C40.2576 77.9272 40.1504 77.8163 40.0461 77.6917L39.72 77.3165C39.4981 77.0643 39.2627 76.8076 39.0155 76.557C38.8919 76.4248 38.7623 76.3033 38.6357 76.162C38.5091 76.0207 38.3796 75.881 38.2455 75.7397C37.9789 75.4587 37.699 75.1731 37.4041 74.886C36.1605 73.5917 34.7829 72.2732 33.4738 70.9364C32.1646 69.5996 30.942 68.2522 29.8905 67.0323L29.5062 66.5766L29.3171 66.3609C29.2585 66.285 29.2004 66.2105 29.1429 66.1376C28.912 65.8444 28.6886 65.568 28.4757 65.3097L28.3178 65.1183L28.1688 64.9239L27.8933 64.5563C27.7146 64.3203 27.5483 64.1056 27.3944 63.9122C26.8225 63.0979 26.4606 62.6316 26.4606 62.6316C26.3221 62.8404 26.2015 63.0609 26.1002 63.2909C25.8174 63.9259 25.6172 64.5959 25.5044 65.2839C25.4188 65.7783 25.3779 66.2797 25.3823 66.7817C25.3823 67.0597 25.3928 67.3529 25.4166 67.6612C25.4285 67.8132 25.4404 67.9772 25.4628 68.1352C25.4851 68.2932 25.5134 68.4542 25.5432 68.6198C25.6057 68.9494 25.6817 69.2958 25.777 69.6573C25.8261 69.8381 25.8768 70.0249 25.9349 70.2103C25.993 70.3956 26.0659 70.5779 26.1389 70.7678C26.2878 71.146 26.4532 71.541 26.6438 71.9511C26.8344 72.3613 27.0668 72.7562 27.3199 73.1801Z" fill="#C5CBD5"/>
</g>
<g clip-path="url(#clip1_57_53697)">
<path d="M153.68 73.1801C152.422 75.243 150.66 77.1555 148.722 78.7019C146.923 80.1443 144.946 81.3403 142.842 82.2596C145.895 81.2361 148.822 79.86 151.568 78.1581C154.304 76.4396 156.843 74.4137 159.137 72.1182C158.978 71.7791 158.859 71.4223 158.781 71.0549C158.644 70.4158 158.576 69.7632 158.58 69.1089C158.58 68.9064 158.584 68.6983 158.593 68.4846C158.593 68.2613 158.607 68.0289 158.622 67.7858C158.653 67.3027 158.708 66.7802 158.794 66.2227C158.881 65.6652 158.955 65.0348 159.092 64.3861C159.128 64.2251 159.155 64.0565 159.185 63.8833L159.281 63.3607C159.35 63.0068 159.43 62.6452 159.517 62.2716C159.843 60.634 160.293 58.9189 160.677 57.2206L160.717 57.0687L160.748 56.9168L160.814 56.5963C160.86 56.3867 160.906 56.1755 160.951 55.9659C160.996 55.7562 161.049 55.5527 161.1 55.3461C161.15 55.1395 161.177 54.9314 161.216 54.7263C161.255 54.5212 161.298 54.3222 161.338 54.1187C161.378 53.9151 161.426 53.7252 161.453 53.5262C161.516 53.1313 161.583 52.75 161.652 52.3824C161.67 52.2912 161.688 52.2001 161.704 52.1105C161.721 52.0208 161.73 51.9282 161.743 51.8385C161.768 51.6593 161.793 51.4831 161.819 51.3099C161.867 50.9666 161.928 50.6415 161.968 50.3301C162.034 49.7042 162.117 49.1543 162.169 48.6956C162.245 47.7689 162.318 47.2205 162.318 47.2205C162.521 47.3205 162.714 47.4379 162.897 47.5714C163.406 47.9381 163.867 48.37 164.268 48.8566C164.399 49.0085 164.539 49.1877 164.665 49.3731C164.792 49.5584 164.918 49.7604 165.044 49.9807C165.323 50.4667 165.564 50.9747 165.764 51.4998C165.986 52.141 166.162 52.798 166.29 53.4655C166.353 53.8316 166.394 54.2159 166.43 54.6245C166.448 54.8281 166.461 55.0377 166.473 55.2534C166.489 55.4723 166.493 55.6918 166.487 55.9112C166.473 56.4626 166.443 57.0262 166.4 57.5974C166.357 58.1685 166.251 58.7245 166.153 59.2957L166.079 59.7225L165.98 60.1433C165.914 60.4228 165.844 60.7024 165.772 60.9819C165.696 61.2598 165.623 61.5439 165.541 61.8158C165.459 62.0877 165.359 62.3581 165.268 62.627L164.972 63.423C164.926 63.5567 164.874 63.6873 164.823 63.8149L164.661 64.1977C164.549 64.4529 164.438 64.7061 164.329 64.9573C164.217 65.2049 164.113 65.4571 163.985 65.6895C163.742 66.1619 163.498 66.6207 163.258 67.0566C163.142 67.28 163.006 67.485 162.881 67.6916L162.504 68.2993C166.215 63.546 168.872 58.0285 170.29 52.1272C169.894 51.8674 169.194 51.2446 168.481 50.0111C168.292 49.7073 168.098 49.3533 167.909 48.966C167.814 48.7715 167.72 48.568 167.626 48.3583C167.532 48.1487 167.447 47.9208 167.342 47.6823C167.137 47.2099 166.938 46.6934 166.746 46.1329C166.658 45.8518 166.54 45.5571 166.438 45.2533C166.335 44.9495 166.231 44.6305 166.131 44.3024C166.031 43.9408 165.9 43.5687 165.787 43.1904C165.673 42.8122 165.566 42.4309 165.466 42.0435C165.367 41.6562 165.234 41.2688 165.128 40.8784C165.073 40.6839 165.03 40.488 164.969 40.2935L164.796 39.7117C164.741 39.5188 164.688 39.3259 164.634 39.133L164.557 38.8443L164.466 38.5603C164.349 38.1805 164.237 37.8058 164.132 37.4362C164.02 37.0685 163.895 36.71 163.788 36.3591C163.734 36.1829 163.682 36.0097 163.629 35.8381C163.575 35.6664 163.511 35.5024 163.454 35.3383C163.341 35.0082 163.235 34.6907 163.137 34.3858C163.023 34.082 162.917 33.7939 162.818 33.5215C162.634 32.9716 162.43 32.4961 162.281 32.0936L162.077 31.5558C162.013 31.4039 161.956 31.2657 161.911 31.1578C161.822 30.9391 161.774 30.819 161.774 30.819C161.98 30.8126 162.186 30.8243 162.39 30.854C162.63 30.8842 162.868 30.9294 163.103 30.9892C163.241 31.0241 163.39 31.0667 163.55 31.1168C163.709 31.1669 163.862 31.2307 164.031 31.3021C164.408 31.4642 164.774 31.6546 165.124 31.8718C165.554 32.1354 165.958 32.4406 166.33 32.7832C166.539 32.9685 166.75 33.1711 166.965 33.3908C167.178 33.6142 167.376 33.8602 167.586 34.1261C167.796 34.3919 168.001 34.6775 168.211 34.9874C168.421 35.2973 168.601 35.6345 168.795 35.993C170.596 39.3077 171.285 43.6218 171.205 46.9076C171.82 41.4803 171.408 35.983 169.991 30.7142C169.483 30.6398 168.651 30.3846 167.592 29.698C166.493 29.0265 165.198 27.9131 163.536 26.2785C162.533 25.3048 161.538 24.1807 160.509 23.1082L160.136 22.7011C160.011 22.5659 159.879 22.4368 159.753 22.3031C159.499 22.0403 159.253 21.7775 159.009 21.5177C158.765 21.258 158.511 21.018 158.275 20.7719C158.157 20.6503 158.044 20.5258 157.926 20.4088L157.575 20.067C157.343 19.8402 157.124 19.6204 156.918 19.4077C156.711 19.1951 156.504 18.9996 156.297 18.8214C156.1 18.6376 155.924 18.4538 155.749 18.2943L155.263 17.8537C154.965 17.5848 154.745 17.36 154.575 17.2203C154.405 17.0805 154.322 16.9954 154.322 16.9954C154.489 16.9062 154.663 16.832 154.843 16.7737C155.054 16.7017 155.269 16.6429 155.487 16.5974C155.777 16.5396 156.071 16.5026 156.367 16.4866C156.743 16.4655 157.12 16.4726 157.496 16.5078C157.601 16.5169 157.709 16.5276 157.817 16.5428C157.926 16.558 158.035 16.5777 158.148 16.599C158.371 16.643 158.607 16.6977 158.852 16.7645C159.098 16.8314 159.353 16.9165 159.619 17.003C159.886 17.0896 160.145 17.2172 160.425 17.3479C160.705 17.4785 160.99 17.6259 161.286 17.7914C161.582 17.957 161.868 18.1545 162.18 18.3657C163.331 19.18 164.387 20.1265 165.326 21.1866C165.566 21.4509 165.785 21.7289 166.01 22.0023L166.342 22.417C166.451 22.5553 166.561 22.692 166.659 22.8363C166.86 23.1188 167.057 23.4029 167.255 23.6855L167.54 24.1062C167.63 24.2475 167.714 24.3918 167.799 24.5331C166.977 22.6965 166.031 20.92 164.969 19.2163L164.15 17.957L163.282 16.7311C163.133 16.5245 162.984 16.3286 162.835 16.1235L162.376 15.5311C162.22 15.3351 162.078 15.13 161.91 14.9417L161.427 14.369C161.223 14.2626 160.981 14.1305 160.692 13.9694C160.403 13.8084 160.066 13.6398 159.704 13.4362C159.523 13.3345 159.334 13.2266 159.138 13.1112C158.943 12.9957 158.727 12.8879 158.511 12.7648C158.295 12.6418 158.074 12.5172 157.844 12.382L157.497 12.1769L157.131 11.9734C156.885 11.8336 156.632 11.6878 156.377 11.5359L155.988 11.3035L155.582 11.0726C155.308 10.9166 155.031 10.753 154.751 10.5819C154.614 10.4938 154.468 10.4102 154.322 10.3282L153.875 10.0715C152.705 9.35752 151.418 8.61469 150.068 7.7716C149.69 7.54779 149.319 7.31689 148.956 7.0789C148.59 6.84952 148.222 6.62318 147.867 6.3938C147.689 6.28139 147.517 6.1553 147.337 6.04745C147.157 5.93959 146.984 5.82566 146.81 5.71325L146.295 5.3745L146.041 5.20284L145.787 5.04182C145.447 4.82763 145.118 4.61192 144.796 4.39317L144.557 4.23215L144.315 4.08024L143.846 3.77643L143.389 3.47261C143.24 3.37235 143.091 3.26906 142.942 3.17943C142.644 2.99512 142.362 2.81333 142.095 2.63408C141.556 2.26495 141.052 1.96417 140.605 1.66947L139.978 1.2578L139.441 0.920562C138.791 0.505854 138.424 0.246091 138.424 0.246091C138.424 0.246091 138.854 0.170136 139.631 0.0865872L140.279 0.0243044C140.516 0.00911366 140.769 0.00303929 141.043 -0.0045561C141.591 -0.0136706 142.221 -0.0334189 142.9 0.0212679C143.243 0.0435478 143.6 0.0713957 143.973 0.104815C144.16 0.118487 144.347 0.147351 144.537 0.174694L145.119 0.262801L145.715 0.364579L146.024 0.419266C146.125 0.439014 146.228 0.464837 146.33 0.487624C146.741 0.584845 147.164 0.68966 147.595 0.80511L147.918 0.893217L148.241 0.998034L148.892 1.2183C149.111 1.29425 149.331 1.37021 149.552 1.45528C149.772 1.54035 149.99 1.63605 150.21 1.72871C150.646 1.92315 151.092 2.11911 151.529 2.33634C151.967 2.55357 152.395 2.81181 152.827 3.06702C153.013 3.17335 153.193 3.29184 153.369 3.41033L153.892 3.76579C154.233 4.00733 154.575 4.23367 154.886 4.49191C155.498 4.96537 156.084 5.47249 156.642 6.01099C156.91 6.26923 157.169 6.52241 157.417 6.77053C157.665 7.01865 157.895 7.27841 158.106 7.54982C158.325 7.80806 158.541 8.05415 158.736 8.30936C158.931 8.56456 159.115 8.81673 159.292 9.0613C160.325 10.4831 161.157 12.0464 161.763 13.7051C162.945 15.0789 164.038 16.5313 165.032 18.0527C164.734 17.4132 164.373 16.7706 164.034 16.0779L162.933 13.9907C162.543 13.2919 162.175 12.5521 161.774 11.8412C161.578 11.4812 161.39 11.1121 161.198 10.749C161.006 10.3859 160.806 10.0305 160.62 9.66589C160.526 9.48208 160.436 9.30131 160.349 9.12358C160.263 8.94585 160.169 8.77875 160.086 8.61014C159.916 8.27138 159.761 7.94174 159.618 7.62121L159.211 6.70065C159.086 6.40595 158.972 6.12037 158.869 5.84389C158.765 5.56894 158.677 5.29551 158.587 5.04486C158.498 4.79421 158.422 4.55116 158.354 4.31874C158.229 3.89814 158.126 3.47121 158.045 3.03967C157.924 2.46448 157.86 1.87808 157.856 1.2897C157.854 1.08609 157.87 0.882684 157.904 0.682065L158.284 0.975249C158.525 1.16969 158.879 1.43097 159.305 1.8153C160.438 2.78573 161.508 3.83001 162.509 4.94156C163.798 6.36068 164.959 7.89617 165.976 9.52918C166.232 9.95452 166.48 10.3804 166.72 10.8067C166.959 11.2321 167.167 11.6741 167.376 12.1025C167.475 12.3182 167.574 12.5324 167.674 12.7451C167.772 12.9562 167.852 13.1765 167.937 13.3907C168.104 13.8191 168.257 14.2398 168.394 14.65C168.619 15.3609 168.779 16.0293 168.91 16.6354C168.978 16.9392 169.016 17.2431 169.059 17.5195C169.102 17.796 169.124 18.0725 169.147 18.3307C169.169 18.589 169.184 18.8335 169.19 19.0675C169.196 19.3014 169.19 19.5232 169.176 19.7435C169.159 20.1288 169.119 20.5128 169.057 20.8934C169.029 21.0635 168.999 21.2246 168.963 21.3749C168.928 21.5253 168.883 21.6788 168.84 21.8064C168.764 22.0464 168.671 22.2808 168.564 22.5082C168.421 22.8199 168.237 23.1107 168.018 23.3725C169.252 25.977 170.217 28.7052 170.898 31.5133C171.585 34.3189 171.995 37.1875 172.124 40.0763C172.189 38.3658 172.244 36.312 172.235 34.1215C172.226 31.931 172.143 29.6053 172.101 27.3267C172.101 27.0973 172.101 26.871 172.101 26.6522C172.101 26.4335 172.101 26.2132 172.101 26.0036C172.101 25.5833 172.106 25.1782 172.115 24.7883C172.124 24.3984 172.14 24.0247 172.162 23.6672C172.178 23.3097 172.202 22.9674 172.232 22.6403C172.261 22.3137 172.304 21.9978 172.337 21.7031C172.369 21.4084 172.408 21.1273 172.451 20.86C172.527 20.3776 172.626 19.8995 172.749 19.4275C172.898 18.7926 173.111 18.1751 173.384 17.5848C173.478 17.3795 173.59 17.1837 173.72 17L173.957 17.4876L174.234 18.0664C174.286 18.1803 174.344 18.3019 174.404 18.431C174.463 18.5601 174.52 18.7014 174.581 18.8487C175.249 20.3997 175.811 21.996 176.263 23.6262C176.55 24.5924 176.766 25.6436 176.988 26.713C177.165 27.7976 177.347 28.902 177.421 30.0185C177.513 31.1131 177.543 32.2122 177.512 33.3103C177.484 33.8466 177.447 34.3737 177.4 34.8841C177.374 35.1408 177.356 35.39 177.315 35.6436C177.275 35.8973 177.238 36.1358 177.195 36.3758C177.114 36.8224 177.03 37.2432 176.942 37.6427C176.854 38.0423 176.73 38.419 176.621 38.7745C176.513 39.1299 176.4 39.4626 176.285 39.7755C176.17 40.0885 176.033 40.3832 175.908 40.6551C175.683 41.1482 175.427 41.6257 175.141 42.0845C174.901 42.4491 174.639 42.7977 174.356 43.1281C173.965 43.5943 173.508 43.9979 172.999 44.3252C172.711 44.5054 172.399 44.643 172.073 44.7338C171.873 47.9421 171.323 51.1178 170.435 54.2022L170.273 54.7825L170.083 55.3522L169.705 56.4945L169.61 56.7786L169.501 57.0596L169.285 57.6201L168.85 58.7397L168.365 59.838L168.12 60.3864C168.08 60.4775 168.042 60.5702 167.998 60.6598L167.863 60.9287L167.325 62.0012C167.234 62.1789 167.148 62.3597 167.053 62.5359L166.755 63.0569C167.797 61.471 169.072 59.4673 170.319 57.2282C171.565 54.9891 172.833 52.5373 174.072 50.1387C174.301 49.683 174.547 49.2591 174.766 48.8459C174.985 48.4328 175.196 48.0378 175.412 47.6626C175.521 47.4742 175.628 47.2904 175.737 47.1127C175.846 46.9349 175.953 46.7603 176.05 46.5886C176.248 46.2483 176.447 45.9258 176.645 45.6209C177.292 44.6051 178.013 43.6403 178.802 42.7347C179.121 42.3792 179.43 42.083 179.695 41.8384C179.914 41.633 180.143 41.4393 180.382 41.2582C180.577 41.1051 180.786 40.9713 181.006 40.8586C181.006 40.8586 181.006 41.0759 180.994 41.4663C180.982 41.8567 180.952 42.4354 180.894 43.1494C180.864 43.5064 180.83 43.8983 180.794 44.3206C180.784 44.427 180.774 44.5333 180.763 44.6427L180.719 44.9753C180.686 45.2017 180.653 45.4311 180.619 45.6726C180.549 46.1496 180.47 46.6509 180.389 47.1719C180.309 47.693 180.172 48.2353 180.051 48.7867C179.99 49.0632 179.926 49.3427 179.862 49.6268C179.798 49.9108 179.713 50.1949 179.633 50.482C179.47 51.0562 179.301 51.6395 179.122 52.2259C178.943 52.8123 178.708 53.3941 178.491 53.9789L178.325 54.4164C178.27 54.5683 178.213 54.7081 178.148 54.8509L177.767 55.7091C177.636 55.9917 177.506 56.2742 177.375 56.5583L177.175 56.9761L176.957 57.3862C176.659 57.9285 176.361 58.4602 176.063 58.9752C175.765 59.4901 175.415 59.9732 175.089 60.4426C174.925 60.6765 174.761 60.9054 174.596 61.1292C174.426 61.351 174.247 61.5621 174.073 61.7687C173.74 62.1652 173.416 62.5283 173.101 62.8731C172.952 63.0448 172.779 63.2028 172.62 63.3562C172.46 63.5096 172.301 63.66 172.145 63.7997C171.833 64.0823 171.534 64.3405 171.244 64.579C170.953 64.8175 170.648 65.0196 170.374 65.211C169.874 65.5504 169.353 65.8549 168.813 66.1224C168.378 66.3272 167.93 66.5017 167.473 66.645C167.115 66.756 166.749 66.8393 166.379 66.8941C166.091 66.9323 165.8 66.9465 165.51 66.9366C165.152 66.9311 164.796 66.8717 164.455 66.7604C164.207 67.1113 163.968 67.4698 163.711 67.8147L162.924 68.8355L162.53 69.3459L162.113 69.8366L161.28 70.8179C160.994 71.1369 160.696 71.4453 160.404 71.7597C160.112 72.0742 159.825 72.3932 159.511 72.6848L158.589 73.5811L158.358 73.8044L158.118 74.0171L157.637 74.4424C155.081 76.7411 152.252 78.7038 149.217 80.2848C151.133 79.4857 153.469 78.4087 155.918 77.1038C158.368 75.7989 160.949 74.2829 163.465 72.7745C164.403 72.1866 165.322 71.6959 166.138 71.2205C166.552 70.9845 166.958 70.7703 167.355 70.5779C167.742 70.3743 168.107 70.1784 168.469 70.0037C169.924 69.3094 171.121 68.8021 172.145 68.4952C172.657 68.3433 173.09 68.2188 173.485 68.1352C173.81 68.0623 174.139 68.007 174.469 67.9696C174.741 67.9343 175.015 67.9251 175.288 67.9423L174.93 68.5271C174.694 68.9023 174.362 69.4538 173.887 70.1039C173.412 70.7541 172.874 71.5471 172.186 72.3749L171.663 73.0175C171.483 73.2347 171.305 73.4611 171.104 73.6768C170.707 74.1158 170.293 74.5685 169.863 75.0288C167.987 76.9825 165.914 78.7289 163.679 80.2392C161.497 81.7159 159.123 82.8731 156.626 83.6769C156.081 83.841 155.561 83.9847 155.065 84.1083C154.56 84.2177 154.079 84.3043 153.622 84.3772C153.394 84.4136 153.175 84.4455 152.956 84.4744L152.635 84.5154C152.529 84.526 152.422 84.5321 152.319 84.5397C151.9 84.5686 151.506 84.5823 151.127 84.5868C150.749 84.5914 150.405 84.5868 150.074 84.5655C149.744 84.5443 149.424 84.4987 149.129 84.4547C148.605 84.3776 148.088 84.2628 147.58 84.1113C146.871 83.8931 146.201 83.5636 145.592 83.1346C145.266 82.9055 144.976 82.6286 144.731 82.3128C142.48 83.1615 140.164 83.8155 137.806 84.2678L136.921 84.4303L136.474 84.5109C136.325 84.5352 136.176 84.5503 136.027 84.5716C135.432 84.6476 134.836 84.7235 134.24 84.7995L132.445 84.9377C132.148 84.9681 131.85 84.9666 131.552 84.9757L130.658 85C130.295 85.0091 130 84.8618 130 84.6719C130 84.482 130.298 84.321 130.648 84.3119L131.497 84.2906L131.921 84.2784H132.134L132.346 84.2617L134.042 84.1296L134.253 84.1129L134.463 84.0855L134.885 84.0308L135.728 83.9215C136.292 83.8622 136.848 83.7468 137.406 83.648C137.468 83.2372 137.579 82.8356 137.737 82.4525C137.838 82.1897 137.971 81.9132 138.133 81.5882C138.314 81.2322 138.513 80.8859 138.729 80.5506C138.966 80.1785 139.244 79.7911 139.561 79.3809C139.879 78.9708 140.236 78.5044 140.641 78.0441C140.742 77.9272 140.85 77.8163 140.954 77.6917L141.28 77.3165C141.502 77.0643 141.737 76.8076 141.984 76.557C142.108 76.4248 142.238 76.3033 142.364 76.162C142.491 76.0207 142.62 75.881 142.754 75.7397C143.021 75.4587 143.301 75.1731 143.596 74.886C144.84 73.5917 146.217 72.2732 147.526 70.9364C148.835 69.5996 150.058 68.2522 151.11 67.0323L151.494 66.5766L151.683 66.3609C151.741 66.285 151.8 66.2105 151.857 66.1376C152.088 65.8444 152.311 65.568 152.524 65.3097L152.682 65.1183L152.831 64.9239L153.107 64.5563C153.285 64.3203 153.452 64.1056 153.606 63.9122C154.177 63.0979 154.539 62.6316 154.539 62.6316C154.678 62.8404 154.798 63.0609 154.9 63.2909C155.183 63.9259 155.383 64.5959 155.496 65.2839C155.581 65.7783 155.622 66.2797 155.618 66.7817C155.618 67.0597 155.607 67.3529 155.583 67.6612C155.571 67.8132 155.56 67.9772 155.537 68.1352C155.515 68.2932 155.487 68.4542 155.457 68.6198C155.394 68.9494 155.318 69.2958 155.223 69.6573C155.174 69.8381 155.123 70.0249 155.065 70.2103C155.007 70.3956 154.934 70.5779 154.861 70.7678C154.712 71.146 154.547 71.541 154.356 71.9511C154.166 72.3613 153.933 72.7562 153.68 73.1801Z" fill="#C5CBD5"/>
</g>
<defs>
<clipPath id="clip0_57_53697">
<rect width="51" height="85" fill="white"/>
</clipPath>
<clipPath id="clip1_57_53697">
<rect width="51" height="85" fill="white" transform="matrix(-1 0 0 1 181 0)"/>
</clipPath>
</defs>
</svg>
