<svg width="181" height="107" viewBox="0 0 181 107" fill="none" xmlns="http://www.w3.org/2000/svg">
<path d="M58.7128 50.3536V38.9917H62.9714C65.1519 38.9917 66.3953 40.5249 66.3953 42.3133C66.3953 44.102 65.135 45.6352 62.9714 45.6352H59.6837V50.3536H58.7128ZM65.3733 42.3133C65.3733 40.8824 64.3852 39.8776 62.8692 39.8776H59.6837V44.7493H62.8692C64.3852 44.7493 65.3733 43.7273 65.3733 42.3133Z" fill="#C30044"/>
<path d="M75.3211 50.3536L74.1971 47.5602H68.1836L67.0596 50.3536H65.9351L70.5855 38.9917H71.7953L76.4457 50.3536H75.3211ZM71.1989 40.0306L68.5072 46.6739H73.8736L71.1989 40.0306Z" fill="#C30044"/>
<path d="M86.24 50.3536L79.0856 40.5929V50.3536H78.1147V38.9917H79.1025L86.2231 48.6161V38.9917H87.194V50.3536H86.24Z" fill="#C30044"/>
<path d="M58.4229 64.2282V52.8662H66.4632V54.9952H60.8419V57.3801H66.3441V59.5095H60.8419V64.2282H58.4229Z" fill="#C30044"/>
<path d="M70.5684 52.8662H68.1494V64.2282H70.5684V52.8662Z" fill="#C30044"/>
<path d="M80.6526 64.2282L75.2355 56.8182V64.2282H72.8167V52.8662H75.3036L80.5676 60.0037V52.8662H82.9864V64.2282H80.6526Z" fill="#C30044"/>
<path d="M93.0878 64.2282L92.3725 62.3036H87.5007L86.7851 64.2282H84.0427L88.4205 52.8662H91.4527L95.8302 64.2282H93.0878ZM89.9365 55.2852L88.165 60.174H91.708L89.9365 55.2852Z" fill="#C30044"/>
<path d="M104.722 64.2282L99.3048 56.8182V64.2282H96.8858V52.8662H99.3729L104.637 60.0037V52.8662H107.056V64.2282H104.722Z" fill="#C30044"/>
<path d="M108.759 58.5555C108.759 55.0466 111.399 52.6787 114.823 52.6787C117.31 52.6787 118.758 54.0242 119.559 55.4552L117.48 56.4772C117.004 55.5574 115.981 54.8249 114.823 54.8249C112.745 54.8249 111.246 56.4091 111.246 58.5555C111.246 60.7021 112.745 62.2863 114.823 62.2863C115.981 62.2863 117.004 61.5538 117.48 60.634L119.559 61.6388C118.758 63.0528 117.31 64.4323 114.823 64.4323C111.399 64.4323 108.759 62.0474 108.759 58.5555Z" fill="#C30044"/>
<path d="M121.006 64.2282V52.8662H129.047V54.9952H123.425V57.3801H128.927V59.5095H123.425V62.0988H129.047V64.2282H121.006Z" fill="#C30044"/>
<path d="M66.2759 78.1027L65.5605 76.1779H60.6887L59.9731 78.1027H57.2308L61.6085 66.7407H64.6407L69.0183 78.1027H66.2759ZM63.1245 69.1595L61.353 74.0485H64.896L63.1245 69.1595Z" fill="#C30044"/>
<path d="M78.0124 78.1027L76.0192 70.3007L74.0435 78.1027H71.4714L68.2178 66.7407H70.926L72.9193 74.9511L75.0828 66.7407H76.9735L79.1196 74.9511L81.1129 66.7407H83.8215L80.5845 78.1027H78.0124Z" fill="#C30044"/>
<path d="M92.0661 78.1027L91.3507 76.1779H86.4788L85.7634 78.1027H83.021L87.3985 66.7407H90.4309L94.8085 78.1027H92.0661ZM88.9147 69.1595L87.1433 74.0485H90.6862L88.9147 69.1595Z" fill="#C30044"/>
<path d="M102.286 78.1031L100.055 74.0661H98.283V78.1031H95.8646V66.7407H101.179C103.547 66.7407 105.012 68.2909 105.012 70.4033C105.012 72.3961 103.734 73.4866 102.508 73.776L105.08 78.1031H102.286ZM102.525 70.3863C102.525 69.4496 101.792 68.8701 100.839 68.8701H98.283V71.9365H100.839C101.792 71.9365 102.525 71.3572 102.525 70.3863Z" fill="#C30044"/>
<path d="M106.817 78.1027V66.7407H111.298C114.858 66.7407 117.328 69.0064 117.328 72.4131C117.328 75.8545 114.858 78.1027 111.315 78.1027H106.817ZM114.858 72.4131C114.858 70.4198 113.631 68.8701 111.315 68.8701H109.236V75.9737H111.298C113.546 75.9737 114.858 74.3549 114.858 72.4131Z" fill="#C30044"/>
<path d="M67.1109 91.9777L65.1175 84.1757L63.1418 91.9777H60.5697L57.3161 80.6157H60.0243L62.0172 88.8263L64.1807 80.6157H66.0718L68.218 88.8263L70.2112 80.6157H72.9195L69.6831 91.9777H67.1109Z" fill="#C30044"/>
<path d="M76.479 80.6157H74.0602V91.9779H76.479V80.6157Z" fill="#C30044"/>
<path d="M86.5637 91.9777L81.1466 84.5677V91.9777H78.7277V80.6157H81.2146L86.4784 87.7532V80.6157H88.8974V91.9777H86.5637Z" fill="#C30044"/>
<path d="M98.9816 91.9777L93.5645 84.5677V91.9777H91.1457V80.6157H93.6325L98.8966 87.7532V80.6157H101.315V91.9777H98.9816Z" fill="#C30044"/>
<path d="M103.563 91.9777V80.6157H111.604V82.7451H105.982V85.13H111.484V87.259H105.982V89.8483H111.604V91.9777H103.563Z" fill="#C30044"/>
<path d="M119.916 91.9781L117.685 87.9408H115.913V91.9781H113.494V80.6157H118.809C121.177 80.6157 122.642 82.1659 122.642 84.2783C122.642 86.2711 121.365 87.3616 120.138 87.651L122.71 91.9781H119.916ZM120.155 84.2613C120.155 83.3244 119.422 82.7451 118.468 82.7451H115.913V85.8115H118.468C119.422 85.8115 120.155 85.2322 120.155 84.2613Z" fill="#C30044"/>
<path d="M105.416 10.1758L100.322 15.27L105.416 20.3637L110.51 15.2695L105.416 10.1758Z" fill="#C30044"/>
<path d="M134.071 15.2821L118.789 0L108.613 10.1759L113.707 15.2698L108.613 20.3638L118.801 30.552L134.071 15.2821ZM123.883 15.2821L118.801 20.3638L113.707 15.2698L118.789 10.1882L123.883 15.2821Z" fill="#C30044"/>
<g clip-path="url(#clip0_57_53696)">
<path d="M27.32 95.1801C28.5784 97.243 30.3403 99.1555 32.2779 100.702C34.0773 102.144 36.054 103.34 38.1577 104.26C35.1053 103.236 32.1776 101.86 29.4318 100.158C26.6955 98.4396 24.1568 96.4137 21.8631 94.1182C22.022 93.7791 22.1415 93.4223 22.2191 93.0549C22.3562 92.4158 22.4237 91.7632 22.4201 91.1089C22.4201 90.9064 22.4156 90.6983 22.4067 90.4846C22.4067 90.2613 22.3933 90.0289 22.3784 89.7858C22.3471 89.3027 22.292 88.7802 22.2056 88.2227C22.1193 87.6652 22.0448 87.0348 21.9078 86.3861C21.872 86.2251 21.8452 86.0565 21.8155 85.8833L21.7186 85.3607C21.6501 85.0068 21.5697 84.6452 21.4833 84.2716C21.1572 82.634 20.7074 80.9189 20.3232 79.2206L20.283 79.0687L20.2517 78.9168L20.1861 78.5963C20.14 78.3867 20.0938 78.1755 20.0491 77.9659C20.0044 77.7562 19.9508 77.5527 19.9002 77.3461C19.8496 77.1395 19.8227 76.9314 19.784 76.7263C19.7453 76.5212 19.7021 76.3222 19.6619 76.1187C19.6217 75.9151 19.574 75.7252 19.5472 75.5262C19.4837 75.1313 19.4172 74.75 19.3477 74.3824C19.3298 74.2912 19.3119 74.2001 19.2955 74.1105C19.2791 74.0208 19.2702 73.9282 19.2568 73.8385C19.232 73.6593 19.2067 73.4831 19.1808 73.3099C19.1332 72.9666 19.0721 72.6415 19.0319 72.3301C18.9664 71.7042 18.883 71.1543 18.8309 70.6956C18.7549 69.7689 18.6819 69.2205 18.6819 69.2205C18.4794 69.3205 18.2855 69.4379 18.1026 69.5714C17.5937 69.9381 17.1332 70.37 16.7324 70.8566C16.6014 71.0085 16.4614 71.1877 16.3348 71.3731C16.2082 71.5584 16.0816 71.7604 15.9565 71.9807C15.677 72.4667 15.4359 72.9747 15.2357 73.4998C15.0136 74.141 14.8378 74.798 14.7099 75.4655C14.6474 75.8316 14.6057 76.2159 14.5699 76.6245C14.5521 76.8281 14.5387 77.0377 14.5267 77.2534C14.511 77.4723 14.5066 77.6918 14.5134 77.9112C14.5268 78.4626 14.5565 79.0262 14.5997 79.5974C14.6429 80.1685 14.7487 80.7245 14.847 81.2957L14.9214 81.7225L15.0197 82.1433C15.0862 82.4228 15.1557 82.7024 15.2282 82.9819C15.3042 83.2598 15.3771 83.5439 15.4591 83.8158C15.541 84.0877 15.6408 84.3581 15.7316 84.627L16.028 85.423C16.0741 85.5567 16.1263 85.6873 16.1769 85.8149L16.3393 86.1977C16.4515 86.4529 16.5622 86.7061 16.6714 86.9573C16.7831 87.2049 16.8873 87.4571 17.0154 87.6895C17.2581 88.1619 17.5024 88.6207 17.7422 89.0566C17.8583 89.28 17.9939 89.485 18.119 89.6916L18.4958 90.2993C14.7848 85.546 12.1284 80.0285 10.7097 74.1272C11.1058 73.8674 11.8058 73.2446 12.5191 72.0111C12.7083 71.7073 12.9019 71.3533 13.0911 70.966C13.1864 70.7715 13.2802 70.568 13.374 70.3583C13.4678 70.1487 13.5528 69.9208 13.6585 69.6823C13.8625 69.2099 14.0621 68.6934 14.2542 68.1329C14.3421 67.8518 14.4597 67.5571 14.5625 67.2533C14.6652 66.9495 14.7695 66.6305 14.8693 66.3024C14.9691 65.9408 15.1001 65.5687 15.2133 65.1904C15.3265 64.8122 15.4337 64.4309 15.5335 64.0435C15.6333 63.6562 15.7659 63.2688 15.8716 62.8784C15.9267 62.6839 15.9699 62.488 16.031 62.2935L16.2037 61.7117C16.2588 61.5188 16.3124 61.3259 16.3661 61.133L16.4435 60.8443L16.5343 60.5603C16.6515 60.1805 16.7627 59.8058 16.8679 59.4362C16.9796 59.0685 17.1047 58.71 17.212 58.3591C17.2656 58.1829 17.3177 58.0097 17.3713 57.8381C17.425 57.6664 17.489 57.5024 17.5456 57.3383C17.6588 57.0082 17.7645 56.6907 17.8628 56.3858C17.977 56.082 18.0832 55.7939 18.1815 55.5215C18.3662 54.9716 18.5702 54.4961 18.7192 54.0936L18.9232 53.5558C18.9872 53.4039 19.0438 53.2657 19.0885 53.1578C19.1779 52.9391 19.2255 52.819 19.2255 52.819C19.0199 52.8126 18.8141 52.8243 18.6105 52.854C18.3702 52.8842 18.132 52.9294 17.8971 52.9892C17.7586 53.0241 17.6096 53.0667 17.4503 53.1168C17.2909 53.1669 17.1375 53.2307 16.9692 53.3021C16.5916 53.4642 16.2262 53.6546 15.8761 53.8718C15.4462 54.1354 15.0422 54.4406 14.6697 54.7832C14.4612 54.9685 14.2498 55.1711 14.0353 55.3908C13.8223 55.6142 13.6242 55.8602 13.4142 56.1261C13.2042 56.3919 12.9987 56.6775 12.7887 56.9874C12.5787 57.2973 12.3985 57.6345 12.2049 57.993C10.4043 61.3077 9.71477 65.6218 9.79519 68.9076C9.17958 63.4803 9.59166 57.983 11.009 52.7142C11.5169 52.6398 12.3494 52.3846 13.4083 51.698C14.5074 51.0265 15.8016 49.9131 17.4637 48.2785C18.4675 47.3048 19.4623 46.1807 20.4914 45.1082L20.8638 44.7011C20.9889 44.5659 21.1214 44.4368 21.2465 44.3031C21.5012 44.0403 21.7469 43.7775 21.9912 43.5177C22.2354 43.258 22.4886 43.018 22.7254 42.7719C22.8431 42.6503 22.9563 42.5258 23.0739 42.4088L23.4254 42.067C23.6567 41.8402 23.8757 41.6204 24.0822 41.4077C24.2887 41.1951 24.4957 40.9996 24.7032 40.8214C24.8998 40.6376 25.0755 40.4538 25.2513 40.2943L25.7368 39.8537C26.0347 39.5848 26.2551 39.36 26.4249 39.2203C26.5947 39.0805 26.678 38.9954 26.678 38.9954C26.5109 38.9062 26.3365 38.832 26.1568 38.7737C25.946 38.7017 25.7312 38.6429 25.5134 38.5974C25.2229 38.5396 24.9288 38.5026 24.6332 38.4866C24.2569 38.4655 23.8796 38.4726 23.5043 38.5078C23.3986 38.5169 23.2914 38.5276 23.1826 38.5428C23.0739 38.558 22.9652 38.5777 22.852 38.599C22.6286 38.643 22.3933 38.6977 22.1476 38.7645C21.9018 38.8314 21.6471 38.9165 21.3806 39.003C21.114 39.0896 20.8548 39.2172 20.5749 39.3479C20.2949 39.4785 20.0104 39.6259 19.714 39.7914C19.4177 39.957 19.1317 40.1545 18.8204 40.3657C17.6691 41.18 16.6132 42.1265 15.6735 43.1866C15.4338 43.4509 15.2148 43.7289 14.9899 44.0023L14.6578 44.417C14.5491 44.5553 14.4389 44.692 14.3406 44.8363C14.1395 45.1188 13.9429 45.4029 13.7449 45.6855L13.4604 46.1062C13.3696 46.2475 13.2862 46.3918 13.2013 46.5331C14.0233 44.6965 14.9687 42.92 16.031 41.2163L16.8501 39.957L17.7184 38.7311C17.8673 38.5245 18.0162 38.3286 18.1652 38.1235L18.6238 37.5311C18.7802 37.3351 18.9217 37.13 19.09 36.9417L19.5725 36.369C19.7766 36.2626 20.0193 36.1305 20.3083 35.9694C20.5972 35.8084 20.9338 35.6398 21.2957 35.4362C21.4774 35.3345 21.6665 35.2266 21.8616 35.1112C22.0567 34.9957 22.2726 34.8879 22.4886 34.7648C22.7045 34.6418 22.9265 34.5172 23.1558 34.382L23.5028 34.1769L23.8692 33.9734C24.1149 33.8336 24.3681 33.6878 24.6228 33.5359L25.0115 33.3035L25.4181 33.0726C25.6921 32.9166 25.9691 32.753 26.2491 32.5819C26.3861 32.4938 26.5321 32.4102 26.678 32.3282L27.1248 32.0715C28.2954 31.3575 29.5822 30.6147 30.9315 29.7716C31.3098 29.5478 31.6807 29.3169 32.044 29.0789C32.4104 28.8495 32.7783 28.6232 33.1327 28.3938C33.3115 28.2814 33.4827 28.1553 33.6629 28.0474C33.8431 27.9396 34.0159 27.8257 34.1901 27.7133L34.7054 27.3745L34.9586 27.2028L35.2133 27.0418C35.5529 26.8276 35.882 26.6119 36.2037 26.3932L36.4435 26.2322L36.6847 26.0802L37.1539 25.7764L37.6111 25.4726C37.76 25.3724 37.9089 25.2691 38.0579 25.1794C38.3557 24.9951 38.6382 24.8133 38.9053 24.6341C39.4444 24.2649 39.9478 23.9642 40.3946 23.6695L41.0216 23.2578L41.5592 22.9206C42.2086 22.5059 42.5765 22.2461 42.5765 22.2461C42.5765 22.2461 42.146 22.1701 41.3686 22.0866L40.7208 22.0243C40.484 22.0091 40.2308 22.003 39.9567 21.9954C39.4087 21.9863 38.7787 21.9666 38.0996 22.0213C37.757 22.0435 37.3996 22.0714 37.0273 22.1048C36.8396 22.1185 36.6535 22.1474 36.4628 22.1747L35.8805 22.2628L35.2848 22.3646L34.9765 22.4193C34.8752 22.439 34.7724 22.4648 34.6697 22.4876C34.2586 22.5848 33.8357 22.6897 33.4053 22.8051L33.0821 22.8932L32.7589 22.998L32.1081 23.2183C31.8891 23.2943 31.6687 23.3702 31.4483 23.4553C31.2279 23.5403 31.0105 23.636 30.7901 23.7287C30.3537 23.9232 29.9084 24.1191 29.4705 24.3363C29.0327 24.5536 28.6052 24.8118 28.1733 25.067C27.9872 25.1734 27.8069 25.2918 27.6312 25.4103L27.1084 25.7658C26.7674 26.0073 26.4249 26.2337 26.1136 26.4919C25.5017 26.9654 24.9155 27.4725 24.3577 28.011C24.0896 28.2692 23.8315 28.5224 23.5833 28.7705C23.335 29.0186 23.1052 29.2784 22.8937 29.5498C22.6748 29.8081 22.4588 30.0542 22.2637 30.3094C22.0686 30.5646 21.8854 30.8167 21.7082 31.0613C20.6747 32.4831 19.8429 34.0464 19.2375 35.7051C18.0545 37.0789 16.9625 38.5313 15.9684 40.0527C16.2663 39.4132 16.6267 38.7706 16.9663 38.0779L18.0668 35.9907C18.457 35.2919 18.8249 34.5521 19.2255 33.8412C19.4221 33.4812 19.6098 33.1121 19.8019 32.749C19.994 32.3859 20.1936 32.0305 20.3797 31.6659C20.4736 31.4821 20.5644 31.3013 20.6508 31.1236C20.7372 30.9458 20.831 30.7788 20.9144 30.6101C21.0842 30.2714 21.2391 29.9417 21.382 29.6212L21.7886 28.7007C21.9137 28.406 22.0279 28.1204 22.1312 27.8439C22.2354 27.5689 22.3233 27.2955 22.4127 27.0449C22.502 26.7942 22.578 26.5512 22.6465 26.3187C22.771 25.8981 22.8739 25.4712 22.9548 25.0397C23.0763 24.4645 23.1397 23.8781 23.1439 23.2897C23.1464 23.0861 23.1304 22.8827 23.0962 22.6821L22.7165 22.9752C22.4752 23.1697 22.1208 23.431 21.6948 23.8153C20.5619 24.7857 19.4918 25.83 18.4913 26.9416C17.202 28.3607 16.0415 29.8962 15.0242 31.5292C14.768 31.9545 14.5198 32.3804 14.2795 32.8067C14.0412 33.2321 13.8327 33.6741 13.6242 34.1025C13.525 34.3182 13.4257 34.5324 13.3264 34.7451C13.2281 34.9562 13.1477 35.1765 13.0628 35.3907C12.896 35.8191 12.7426 36.2398 12.6055 36.65C12.3807 37.3609 12.2213 38.0293 12.0902 38.6354C12.0217 38.9392 11.9845 39.2431 11.9413 39.5195C11.8981 39.796 11.8758 40.0725 11.8534 40.3307C11.8311 40.589 11.8162 40.8335 11.8102 41.0675C11.8043 41.3014 11.8102 41.5232 11.8237 41.7435C11.8412 42.1288 11.8809 42.5128 11.9428 42.8934C11.9711 43.0635 12.0009 43.2246 12.0366 43.3749C12.0724 43.5253 12.117 43.6788 12.1602 43.8064C12.2365 44.0464 12.3285 44.2808 12.4357 44.5082C12.5792 44.8199 12.7631 45.1107 12.9823 45.3725C11.7483 47.977 10.783 50.7052 10.102 53.5133C9.41518 56.3189 9.00458 59.1875 8.8763 62.0763C8.81077 60.3658 8.75566 58.312 8.7646 56.1215C8.77354 53.931 8.85692 51.6053 8.89862 49.3267C8.89862 49.0973 8.89862 48.871 8.89862 48.6522C8.89862 48.4335 8.89862 48.2132 8.89862 48.0036C8.89862 47.5833 8.89418 47.1782 8.88524 46.7883C8.87631 46.3984 8.86041 46.0247 8.83757 45.6672C8.82169 45.3097 8.79836 44.9674 8.76758 44.6403C8.73928 44.3137 8.6961 43.9978 8.66334 43.7031C8.63057 43.4084 8.59185 43.1273 8.54866 42.86C8.47344 42.3776 8.37402 41.8995 8.25079 41.4275C8.10206 40.7926 7.88945 40.1751 7.61635 39.5848C7.52245 39.3795 7.40975 39.1837 7.27976 39L7.04295 39.4876L6.76595 40.0664C6.71383 40.1803 6.65573 40.3019 6.59615 40.431C6.53658 40.5601 6.47999 40.7014 6.41893 40.8487C5.75085 42.3997 5.18902 43.996 4.73749 45.6262C4.45006 46.5924 4.23413 47.6436 4.01222 48.713C3.83499 49.7976 3.65327 50.902 3.5788 52.0185C3.48733 53.1131 3.45702 54.2122 3.48798 55.3103C3.51627 55.8466 3.55351 56.3737 3.59968 56.8841C3.62648 57.1408 3.64436 57.39 3.68458 57.6436C3.72479 57.8973 3.76199 58.1358 3.80518 58.3758C3.88561 58.8224 3.97049 59.2432 4.05836 59.6427C4.14623 60.0423 4.26986 60.419 4.37858 60.7745C4.4873 61.1299 4.60049 61.4626 4.71517 61.7755C4.82985 62.0885 4.96687 62.3832 5.09197 62.6551C5.3167 63.1482 5.5729 63.6257 5.85895 64.0845C6.09853 64.4491 6.36068 64.7977 6.64382 65.1281C7.03463 65.5943 7.49203 65.9979 8.0006 66.3252C8.28888 66.5054 8.60077 66.643 8.92695 66.7338C9.12729 69.9421 9.67675 73.1178 10.5652 76.2022L10.7275 76.7825L10.9166 77.3522L11.2949 78.4945L11.3903 78.7786L11.499 79.0596L11.7149 79.6201L12.1498 80.7397L12.6353 81.838L12.8796 82.3864C12.9198 82.4775 12.9585 82.5702 13.0017 82.6598L13.1372 82.9287L13.6749 84.0012C13.7657 84.1789 13.8521 84.3597 13.9474 84.5359L14.2453 85.0569C13.2028 83.471 11.9279 81.4673 10.6814 79.2282C9.43481 76.9891 8.16737 74.5373 6.92827 72.1387C6.69891 71.683 6.45319 71.2591 6.23426 70.8459C6.01533 70.4328 5.80384 70.0378 5.58788 69.6626C5.47917 69.4742 5.37194 69.2904 5.26323 69.1127C5.15451 68.9349 5.0473 68.7603 4.95049 68.5886C4.75192 68.2483 4.55334 67.9258 4.35477 67.6209C3.70785 66.6051 2.98694 65.6403 2.19821 64.7347C1.8795 64.3792 1.56972 64.083 1.30462 63.8384C1.08578 63.633 0.856633 63.4393 0.61807 63.2582C0.422959 63.1051 0.214018 62.9713 -0.0059433 62.8586C-0.0059433 62.8586 -0.00596802 63.0759 0.00594647 63.4663C0.017861 63.8567 0.0476719 64.4354 0.105755 65.1494C0.135541 65.5064 0.169784 65.8983 0.205527 66.3206C0.215953 66.427 0.226372 66.5333 0.236797 66.6427L0.281484 66.9753C0.314249 67.2017 0.347002 67.4311 0.381256 67.6726C0.451254 68.1496 0.530193 68.6509 0.610616 69.1719C0.691039 69.693 0.828058 70.2353 0.948693 70.7867C1.00975 71.0632 1.0738 71.3427 1.13784 71.6268C1.20188 71.9108 1.28678 72.1949 1.3672 72.482C1.52953 73.0562 1.6993 73.6395 1.87802 74.2259C2.05674 74.8123 2.29205 75.3941 2.50949 75.9789L2.67482 76.4164C2.72992 76.5683 2.78651 76.7081 2.85204 76.8509L3.23331 77.7091C3.36437 77.9917 3.49392 78.2742 3.62498 78.5583L3.82456 78.9761L4.04349 79.3862C4.34135 79.9285 4.63921 80.4602 4.93707 80.9752C5.23494 81.4901 5.58493 81.9732 5.91109 82.4426C6.07491 82.6765 6.23921 82.9054 6.40403 83.1292C6.57381 83.351 6.75253 83.5621 6.92678 83.7687C7.26038 84.1652 7.58357 84.5283 7.8993 84.8731C8.04823 85.0448 8.22099 85.2028 8.38035 85.3562C8.5397 85.5096 8.69909 85.66 8.85546 85.7997C9.16673 86.0823 9.46605 86.3405 9.75647 86.579C10.0469 86.8175 10.3522 87.0196 10.6262 87.211C11.1258 87.5504 11.6472 87.8549 12.187 88.1224C12.6218 88.3272 13.0696 88.5017 13.5274 88.645C13.8851 88.756 14.2506 88.8393 14.6206 88.8941C14.9089 88.9323 15.1997 88.9465 15.4903 88.9366C15.8484 88.9311 16.2037 88.8717 16.5448 88.7604C16.7935 89.1113 17.0318 89.4698 17.2894 89.8147L18.0758 90.8355L18.4704 91.3459L18.8874 91.8366L19.72 92.8179C20.0059 93.1369 20.3038 93.4453 20.5957 93.7597C20.8876 94.0742 21.175 94.3932 21.4893 94.6848L22.4112 95.5811L22.642 95.8044L22.8818 96.0171L23.3628 96.4424C25.9193 98.7411 28.7483 100.704 31.7834 102.285C29.8667 101.486 27.5314 100.409 25.0815 99.1038C22.6316 97.7989 20.0506 96.2829 17.5352 94.7745C16.5969 94.1866 15.678 93.6959 14.8618 93.2205C14.4478 92.9845 14.0422 92.7703 13.6451 92.5779C13.2579 92.3743 12.893 92.1784 12.5311 92.0037C11.076 91.3094 9.87862 90.8021 8.85546 90.4952C8.34314 90.3433 7.90975 90.2188 7.51508 90.1352C7.19004 90.0623 6.86142 90.007 6.53063 89.9696C6.25904 89.9343 5.98479 89.9251 5.71151 89.9423L6.07042 90.5271C6.30573 90.9023 6.63785 91.4538 7.11294 92.1039C7.58803 92.7541 8.1257 93.5471 8.81376 94.3749L9.33651 95.0175C9.51672 95.2347 9.69543 95.4611 9.89649 95.6768C10.2926 96.1158 10.7067 96.5685 11.1371 97.0288C13.013 98.9825 15.0856 100.729 17.3207 102.239C19.5026 103.716 21.8769 104.873 24.3741 105.677C24.9192 105.841 25.4394 105.985 25.9349 106.108C26.4398 106.218 26.9208 106.304 27.378 106.377C27.6059 106.414 27.8248 106.446 28.0437 106.474L28.3655 106.515C28.4712 106.526 28.5784 106.532 28.6812 106.54C29.0997 106.569 29.4943 106.582 29.8726 106.587C30.2509 106.591 30.5949 106.587 30.9256 106.566C31.2562 106.544 31.5764 106.499 31.8713 106.455C32.3948 106.378 32.9124 106.263 33.4202 106.111C34.1287 105.893 34.7994 105.564 35.4084 105.135C35.7335 104.906 36.0236 104.629 36.2692 104.313C38.5198 105.161 40.8364 105.815 43.1945 106.268L44.0792 106.43L44.526 106.511C44.6749 106.535 44.8238 106.55 44.9728 106.572C45.5685 106.648 46.1642 106.724 46.7599 106.799L48.5545 106.938C48.8524 106.968 49.1503 106.967 49.4481 106.976L50.3417 107C50.7051 107.009 51 106.862 51 106.672C51 106.482 50.7021 106.321 50.3521 106.312L49.5032 106.291L49.0788 106.278H48.8658L48.6543 106.262L46.958 106.13L46.7465 106.113L46.5365 106.086L46.1151 106.031L45.2721 105.921C44.7077 105.862 44.1522 105.747 43.5937 105.648C43.532 105.237 43.421 104.836 43.263 104.453C43.1618 104.19 43.0292 103.913 42.8669 103.588C42.6858 103.232 42.4869 102.886 42.2711 102.551C42.0343 102.178 41.7559 101.791 41.4386 101.381C41.1214 100.971 40.764 100.504 40.3589 100.044C40.2576 99.9272 40.1504 99.8163 40.0461 99.6917L39.72 99.3165C39.4981 99.0643 39.2627 98.8076 39.0155 98.557C38.8919 98.4248 38.7623 98.3033 38.6357 98.162C38.5092 98.0207 38.3796 97.881 38.2455 97.7397C37.9789 97.4587 37.699 97.1731 37.4041 96.886C36.1605 95.5917 34.7829 94.2732 33.4738 92.9364C32.1647 91.5996 30.942 90.2522 29.8905 89.0323L29.5063 88.5766L29.3171 88.3609C29.2585 88.285 29.2005 88.2105 29.1429 88.1376C28.912 87.8444 28.6886 87.568 28.4757 87.3097L28.3178 87.1183L28.1689 86.9239L27.8933 86.5563C27.7146 86.3203 27.5483 86.1056 27.3944 85.9122C26.8225 85.0979 26.4606 84.6316 26.4606 84.6316C26.3221 84.8404 26.2015 85.0609 26.1002 85.2909C25.8175 85.9259 25.6172 86.5959 25.5045 87.2839C25.4188 87.7783 25.378 88.2797 25.3824 88.7817C25.3824 89.0597 25.3928 89.3529 25.4166 89.6612C25.4285 89.8132 25.4404 89.9772 25.4628 90.1352C25.4851 90.2932 25.5134 90.4542 25.5432 90.6198C25.6057 90.9494 25.6817 91.2958 25.777 91.6573C25.8262 91.8381 25.8768 92.0249 25.9349 92.2103C25.993 92.3956 26.0659 92.5779 26.1389 92.7678C26.2878 93.146 26.4532 93.541 26.6438 93.9511C26.8344 94.3613 27.0668 94.7562 27.32 95.1801Z" fill="#C5CBD5"/>
</g>
<g clip-path="url(#clip1_57_53696)">
<path d="M153.68 95.1801C152.422 97.243 150.66 99.1555 148.722 100.702C146.923 102.144 144.946 103.34 142.842 104.26C145.895 103.236 148.822 101.86 151.568 100.158C154.304 98.4396 156.843 96.4137 159.137 94.1182C158.978 93.7791 158.859 93.4223 158.781 93.0549C158.644 92.4158 158.576 91.7632 158.58 91.1089C158.58 90.9064 158.584 90.6983 158.593 90.4846C158.593 90.2613 158.607 90.0289 158.622 89.7858C158.653 89.3027 158.708 88.7802 158.794 88.2227C158.881 87.6652 158.955 87.0348 159.092 86.3861C159.128 86.2251 159.155 86.0565 159.185 85.8833L159.281 85.3607C159.35 85.0068 159.43 84.6452 159.517 84.2716C159.843 82.634 160.293 80.9189 160.677 79.2206L160.717 79.0687L160.748 78.9168L160.814 78.5963C160.86 78.3867 160.906 78.1755 160.951 77.9659C160.996 77.7562 161.049 77.5527 161.1 77.3461C161.15 77.1395 161.177 76.9314 161.216 76.7263C161.255 76.5212 161.298 76.3222 161.338 76.1187C161.378 75.9151 161.426 75.7252 161.453 75.5262C161.516 75.1313 161.583 74.75 161.652 74.3824C161.67 74.2912 161.688 74.2001 161.704 74.1105C161.721 74.0208 161.73 73.9282 161.743 73.8385C161.768 73.6593 161.793 73.4831 161.819 73.3099C161.867 72.9666 161.928 72.6415 161.968 72.3301C162.034 71.7042 162.117 71.1543 162.169 70.6956C162.245 69.7689 162.318 69.2205 162.318 69.2205C162.521 69.3205 162.714 69.4379 162.897 69.5714C163.406 69.9381 163.867 70.37 164.268 70.8566C164.399 71.0085 164.539 71.1877 164.665 71.3731C164.792 71.5584 164.918 71.7604 165.044 71.9807C165.323 72.4667 165.564 72.9747 165.764 73.4998C165.986 74.141 166.162 74.798 166.29 75.4655C166.353 75.8316 166.394 76.2159 166.43 76.6245C166.448 76.8281 166.461 77.0377 166.473 77.2534C166.489 77.4723 166.493 77.6918 166.487 77.9112C166.473 78.4626 166.443 79.0262 166.4 79.5974C166.357 80.1685 166.251 80.7245 166.153 81.2957L166.079 81.7225L165.98 82.1433C165.914 82.4228 165.844 82.7024 165.772 82.9819C165.696 83.2598 165.623 83.5439 165.541 83.8158C165.459 84.0877 165.359 84.3581 165.268 84.627L164.972 85.423C164.926 85.5567 164.874 85.6873 164.823 85.8149L164.661 86.1977C164.549 86.4529 164.438 86.7061 164.329 86.9573C164.217 87.2049 164.113 87.4571 163.985 87.6895C163.742 88.1619 163.498 88.6207 163.258 89.0566C163.142 89.28 163.006 89.485 162.881 89.6916L162.504 90.2993C166.215 85.546 168.872 80.0285 170.29 74.1272C169.894 73.8674 169.194 73.2446 168.481 72.0111C168.292 71.7073 168.098 71.3533 167.909 70.966C167.814 70.7715 167.72 70.568 167.626 70.3583C167.532 70.1487 167.447 69.9208 167.342 69.6823C167.137 69.2099 166.938 68.6934 166.746 68.1329C166.658 67.8518 166.54 67.5571 166.438 67.2533C166.335 66.9495 166.23 66.6305 166.131 66.3024C166.031 65.9408 165.9 65.5687 165.787 65.1904C165.673 64.8122 165.566 64.4309 165.466 64.0435C165.367 63.6562 165.234 63.2688 165.128 62.8784C165.073 62.6839 165.03 62.488 164.969 62.2935L164.796 61.7117C164.741 61.5188 164.688 61.3259 164.634 61.133L164.556 60.8443L164.466 60.5603C164.349 60.1805 164.237 59.8058 164.132 59.4362C164.02 59.0685 163.895 58.71 163.788 58.3591C163.734 58.1829 163.682 58.0097 163.629 57.8381C163.575 57.6664 163.511 57.5024 163.454 57.3383C163.341 57.0082 163.235 56.6907 163.137 56.3858C163.023 56.082 162.917 55.7939 162.818 55.5215C162.634 54.9716 162.43 54.4961 162.281 54.0936L162.077 53.5558C162.013 53.4039 161.956 53.2657 161.911 53.1578C161.822 52.9391 161.774 52.819 161.774 52.819C161.98 52.8126 162.186 52.8243 162.39 52.854C162.63 52.8842 162.868 52.9294 163.103 52.9892C163.241 53.0241 163.39 53.0667 163.55 53.1168C163.709 53.1669 163.862 53.2307 164.031 53.3021C164.408 53.4642 164.774 53.6546 165.124 53.8718C165.554 54.1354 165.958 54.4406 166.33 54.7832C166.539 54.9685 166.75 55.1711 166.965 55.3908C167.178 55.6142 167.376 55.8602 167.586 56.1261C167.796 56.3919 168.001 56.6775 168.211 56.9874C168.421 57.2973 168.601 57.6345 168.795 57.993C170.596 61.3077 171.285 65.6218 171.205 68.9076C171.82 63.4803 171.408 57.983 169.991 52.7142C169.483 52.6398 168.651 52.3846 167.592 51.698C166.493 51.0265 165.198 49.9131 163.536 48.2785C162.533 47.3048 161.538 46.1807 160.509 45.1082L160.136 44.7011C160.011 44.5659 159.879 44.4368 159.753 44.3031C159.499 44.0403 159.253 43.7775 159.009 43.5177C158.765 43.258 158.511 43.018 158.275 42.7719C158.157 42.6503 158.044 42.5258 157.926 42.4088L157.575 42.067C157.343 41.8402 157.124 41.6204 156.918 41.4077C156.711 41.1951 156.504 40.9996 156.297 40.8214C156.1 40.6376 155.924 40.4538 155.749 40.2943L155.263 39.8537C154.965 39.5848 154.745 39.36 154.575 39.2203C154.405 39.0805 154.322 38.9954 154.322 38.9954C154.489 38.9062 154.663 38.832 154.843 38.7737C155.054 38.7017 155.269 38.6429 155.487 38.5974C155.777 38.5396 156.071 38.5026 156.367 38.4866C156.743 38.4655 157.12 38.4726 157.496 38.5078C157.601 38.5169 157.709 38.5276 157.817 38.5428C157.926 38.558 158.035 38.5777 158.148 38.599C158.371 38.643 158.607 38.6977 158.852 38.7645C159.098 38.8314 159.353 38.9165 159.619 39.003C159.886 39.0896 160.145 39.2172 160.425 39.3479C160.705 39.4785 160.99 39.6259 161.286 39.7914C161.582 39.957 161.868 40.1545 162.18 40.3657C163.331 41.18 164.387 42.1265 165.326 43.1866C165.566 43.4509 165.785 43.7289 166.01 44.0023L166.342 44.417C166.451 44.5553 166.561 44.692 166.659 44.8363C166.86 45.1188 167.057 45.4029 167.255 45.6855L167.54 46.1062C167.63 46.2475 167.714 46.3918 167.799 46.5331C166.977 44.6965 166.031 42.92 164.969 41.2163L164.15 39.957L163.282 38.7311C163.133 38.5245 162.984 38.3286 162.835 38.1235L162.376 37.5311C162.22 37.3351 162.078 37.13 161.91 36.9417L161.427 36.369C161.223 36.2626 160.981 36.1305 160.692 35.9694C160.403 35.8084 160.066 35.6398 159.704 35.4362C159.523 35.3345 159.333 35.2266 159.138 35.1112C158.943 34.9957 158.727 34.8879 158.511 34.7648C158.295 34.6418 158.074 34.5172 157.844 34.382L157.497 34.1769L157.131 33.9734C156.885 33.8336 156.632 33.6878 156.377 33.5359L155.988 33.3035L155.582 33.0726C155.308 32.9166 155.031 32.753 154.751 32.5819C154.614 32.4938 154.468 32.4102 154.322 32.3282L153.875 32.0715C152.705 31.3575 151.418 30.6147 150.068 29.7716C149.69 29.5478 149.319 29.3169 148.956 29.0789C148.59 28.8495 148.222 28.6232 147.867 28.3938C147.689 28.2814 147.517 28.1553 147.337 28.0474C147.157 27.9396 146.984 27.8257 146.81 27.7133L146.295 27.3745L146.041 27.2028L145.787 27.0418C145.447 26.8276 145.118 26.6119 144.796 26.3932L144.557 26.2322L144.315 26.0802L143.846 25.7764L143.389 25.4726C143.24 25.3724 143.091 25.2691 142.942 25.1794C142.644 24.9951 142.362 24.8133 142.095 24.6341C141.556 24.2649 141.052 23.9642 140.605 23.6695L139.978 23.2578L139.441 22.9206C138.791 22.5059 138.424 22.2461 138.424 22.2461C138.424 22.2461 138.854 22.1701 139.631 22.0866L140.279 22.0243C140.516 22.0091 140.769 22.003 141.043 21.9954C141.591 21.9863 142.221 21.9666 142.9 22.0213C143.243 22.0435 143.6 22.0714 143.973 22.1048C144.16 22.1185 144.347 22.1474 144.537 22.1747L145.119 22.2628L145.715 22.3646L146.024 22.4193C146.125 22.439 146.228 22.4648 146.33 22.4876C146.741 22.5848 147.164 22.6897 147.595 22.8051L147.918 22.8932L148.241 22.998L148.892 23.2183C149.111 23.2943 149.331 23.3702 149.552 23.4553C149.772 23.5403 149.99 23.636 150.21 23.7287C150.646 23.9232 151.092 24.1191 151.529 24.3363C151.967 24.5536 152.395 24.8118 152.827 25.067C153.013 25.1734 153.193 25.2918 153.369 25.4103L153.892 25.7658C154.233 26.0073 154.575 26.2337 154.886 26.4919C155.498 26.9654 156.084 27.4725 156.642 28.011C156.91 28.2692 157.169 28.5224 157.417 28.7705C157.665 29.0186 157.895 29.2784 158.106 29.5498C158.325 29.8081 158.541 30.0542 158.736 30.3094C158.931 30.5646 159.115 30.8167 159.292 31.0613C160.325 32.4831 161.157 34.0464 161.763 35.7051C162.945 37.0789 164.038 38.5313 165.032 40.0527C164.734 39.4132 164.373 38.7706 164.034 38.0779L162.933 35.9907C162.543 35.2919 162.175 34.5521 161.774 33.8412C161.578 33.4812 161.39 33.1121 161.198 32.749C161.006 32.3859 160.806 32.0305 160.62 31.6659C160.526 31.4821 160.436 31.3013 160.349 31.1236C160.263 30.9458 160.169 30.7788 160.086 30.6101C159.916 30.2714 159.761 29.9417 159.618 29.6212L159.211 28.7007C159.086 28.406 158.972 28.1204 158.869 27.8439C158.765 27.5689 158.677 27.2955 158.587 27.0449C158.498 26.7942 158.422 26.5512 158.354 26.3187C158.229 25.8981 158.126 25.4712 158.045 25.0397C157.924 24.4645 157.86 23.8781 157.856 23.2897C157.854 23.0861 157.87 22.8827 157.904 22.6821L158.284 22.9752C158.525 23.1697 158.879 23.431 159.305 23.8153C160.438 24.7857 161.508 25.83 162.509 26.9416C163.798 28.3607 164.959 29.8962 165.976 31.5292C166.232 31.9545 166.48 32.3804 166.72 32.8067C166.959 33.2321 167.167 33.6741 167.376 34.1025C167.475 34.3182 167.574 34.5324 167.674 34.7451C167.772 34.9562 167.852 35.1765 167.937 35.3907C168.104 35.8191 168.257 36.2398 168.394 36.65C168.619 37.3609 168.779 38.0293 168.91 38.6354C168.978 38.9392 169.015 39.2431 169.059 39.5195C169.102 39.796 169.124 40.0725 169.147 40.3307C169.169 40.589 169.184 40.8335 169.19 41.0675C169.196 41.3014 169.19 41.5232 169.176 41.7435C169.159 42.1288 169.119 42.5128 169.057 42.8934C169.029 43.0635 168.999 43.2246 168.963 43.3749C168.928 43.5253 168.883 43.6788 168.84 43.8064C168.763 44.0464 168.671 44.2808 168.564 44.5082C168.421 44.8199 168.237 45.1107 168.018 45.3725C169.252 47.977 170.217 50.7052 170.898 53.5133C171.585 56.3189 171.995 59.1875 172.124 62.0763C172.189 60.3658 172.244 58.312 172.235 56.1215C172.226 53.931 172.143 51.6053 172.101 49.3267C172.101 49.0973 172.101 48.871 172.101 48.6522C172.101 48.4335 172.101 48.2132 172.101 48.0036C172.101 47.5833 172.106 47.1782 172.115 46.7883C172.124 46.3984 172.14 46.0247 172.162 45.6672C172.178 45.3097 172.202 44.9674 172.232 44.6403C172.261 44.3137 172.304 43.9978 172.337 43.7031C172.369 43.4084 172.408 43.1273 172.451 42.86C172.527 42.3776 172.626 41.8995 172.749 41.4275C172.898 40.7926 173.111 40.1751 173.384 39.5848C173.478 39.3795 173.59 39.1837 173.72 39L173.957 39.4876L174.234 40.0664C174.286 40.1803 174.344 40.3019 174.404 40.431C174.463 40.5601 174.52 40.7014 174.581 40.8487C175.249 42.3997 175.811 43.996 176.263 45.6262C176.55 46.5924 176.766 47.6436 176.988 48.713C177.165 49.7976 177.347 50.902 177.421 52.0185C177.513 53.1131 177.543 54.2122 177.512 55.3103C177.484 55.8466 177.446 56.3737 177.4 56.8841C177.374 57.1408 177.356 57.39 177.315 57.6436C177.275 57.8973 177.238 58.1358 177.195 58.3758C177.114 58.8224 177.03 59.2432 176.942 59.6427C176.854 60.0423 176.73 60.419 176.621 60.7745C176.513 61.1299 176.4 61.4626 176.285 61.7755C176.17 62.0885 176.033 62.3832 175.908 62.6551C175.683 63.1482 175.427 63.6257 175.141 64.0845C174.901 64.4491 174.639 64.7977 174.356 65.1281C173.965 65.5943 173.508 65.9979 172.999 66.3252C172.711 66.5054 172.399 66.643 172.073 66.7338C171.873 69.9421 171.323 73.1178 170.435 76.2022L170.272 76.7825L170.083 77.3522L169.705 78.4945L169.61 78.7786L169.501 79.0596L169.285 79.6201L168.85 80.7397L168.365 81.838L168.12 82.3864C168.08 82.4775 168.042 82.5702 167.998 82.6598L167.863 82.9287L167.325 84.0012C167.234 84.1789 167.148 84.3597 167.053 84.5359L166.755 85.0569C167.797 83.471 169.072 81.4673 170.319 79.2282C171.565 76.9891 172.833 74.5373 174.072 72.1387C174.301 71.683 174.547 71.2591 174.766 70.8459C174.985 70.4328 175.196 70.0378 175.412 69.6626C175.521 69.4742 175.628 69.2904 175.737 69.1127C175.845 68.9349 175.953 68.7603 176.05 68.5886C176.248 68.2483 176.447 67.9258 176.645 67.6209C177.292 66.6051 178.013 65.6403 178.802 64.7347C179.121 64.3792 179.43 64.083 179.695 63.8384C179.914 63.633 180.143 63.4393 180.382 63.2582C180.577 63.1051 180.786 62.9713 181.006 62.8586C181.006 62.8586 181.006 63.0759 180.994 63.4663C180.982 63.8567 180.952 64.4354 180.894 65.1494C180.864 65.5064 180.83 65.8983 180.794 66.3206C180.784 66.427 180.774 66.5333 180.763 66.6427L180.719 66.9753C180.686 67.2017 180.653 67.4311 180.619 67.6726C180.549 68.1496 180.47 68.6509 180.389 69.1719C180.309 69.693 180.172 70.2353 180.051 70.7867C179.99 71.0632 179.926 71.3427 179.862 71.6268C179.798 71.9108 179.713 72.1949 179.633 72.482C179.47 73.0562 179.301 73.6395 179.122 74.2259C178.943 74.8123 178.708 75.3941 178.491 75.9789L178.325 76.4164C178.27 76.5683 178.213 76.7081 178.148 76.8509L177.767 77.7091C177.636 77.9917 177.506 78.2742 177.375 78.5583L177.175 78.9761L176.957 79.3862C176.659 79.9285 176.361 80.4602 176.063 80.9752C175.765 81.4901 175.415 81.9732 175.089 82.4426C174.925 82.6765 174.761 82.9054 174.596 83.1292C174.426 83.351 174.247 83.5621 174.073 83.7687C173.74 84.1652 173.416 84.5283 173.101 84.8731C172.952 85.0448 172.779 85.2028 172.62 85.3562C172.46 85.5096 172.301 85.66 172.145 85.7997C171.833 86.0823 171.534 86.3405 171.244 86.579C170.953 86.8175 170.648 87.0196 170.374 87.211C169.874 87.5504 169.353 87.8549 168.813 88.1224C168.378 88.3272 167.93 88.5017 167.473 88.645C167.115 88.756 166.749 88.8393 166.379 88.8941C166.091 88.9323 165.8 88.9465 165.51 88.9366C165.152 88.9311 164.796 88.8717 164.455 88.7604C164.207 89.1113 163.968 89.4698 163.711 89.8147L162.924 90.8355L162.53 91.3459L162.113 91.8366L161.28 92.8179C160.994 93.1369 160.696 93.4453 160.404 93.7597C160.112 94.0742 159.825 94.3932 159.511 94.6848L158.589 95.5811L158.358 95.8044L158.118 96.0171L157.637 96.4424C155.081 98.7411 152.252 100.704 149.217 102.285C151.133 101.486 153.469 100.409 155.918 99.1038C158.368 97.7989 160.949 96.2829 163.465 94.7745C164.403 94.1866 165.322 93.6959 166.138 93.2205C166.552 92.9845 166.958 92.7703 167.355 92.5779C167.742 92.3743 168.107 92.1784 168.469 92.0037C169.924 91.3094 171.121 90.8021 172.145 90.4952C172.657 90.3433 173.09 90.2188 173.485 90.1352C173.81 90.0623 174.139 90.007 174.469 89.9696C174.741 89.9343 175.015 89.9251 175.288 89.9423L174.93 90.5271C174.694 90.9023 174.362 91.4538 173.887 92.1039C173.412 92.7541 172.874 93.5471 172.186 94.3749L171.663 95.0175C171.483 95.2347 171.305 95.4611 171.104 95.6768C170.707 96.1158 170.293 96.5685 169.863 97.0288C167.987 98.9825 165.914 100.729 163.679 102.239C161.497 103.716 159.123 104.873 156.626 105.677C156.081 105.841 155.561 105.985 155.065 106.108C154.56 106.218 154.079 106.304 153.622 106.377C153.394 106.414 153.175 106.446 152.956 106.474L152.635 106.515C152.529 106.526 152.422 106.532 152.319 106.54C151.9 106.569 151.506 106.582 151.127 106.587C150.749 106.591 150.405 106.587 150.074 106.566C149.744 106.544 149.424 106.499 149.129 106.455C148.605 106.378 148.088 106.263 147.58 106.111C146.871 105.893 146.201 105.564 145.592 105.135C145.266 104.906 144.976 104.629 144.731 104.313C142.48 105.161 140.164 105.815 137.805 106.268L136.921 106.43L136.474 106.511C136.325 106.535 136.176 106.55 136.027 106.572C135.432 106.648 134.836 106.724 134.24 106.799L132.445 106.938C132.148 106.968 131.85 106.967 131.552 106.976L130.658 107C130.295 107.009 130 106.862 130 106.672C130 106.482 130.298 106.321 130.648 106.312L131.497 106.291L131.921 106.278H132.134L132.346 106.262L134.042 106.13L134.253 106.113L134.463 106.086L134.885 106.031L135.728 105.921C136.292 105.862 136.848 105.747 137.406 105.648C137.468 105.237 137.579 104.836 137.737 104.453C137.838 104.19 137.971 103.913 138.133 103.588C138.314 103.232 138.513 102.886 138.729 102.551C138.966 102.178 139.244 101.791 139.561 101.381C139.879 100.971 140.236 100.504 140.641 100.044C140.742 99.9272 140.85 99.8163 140.954 99.6917L141.28 99.3165C141.502 99.0643 141.737 98.8076 141.984 98.557C142.108 98.4248 142.238 98.3033 142.364 98.162C142.491 98.0207 142.62 97.881 142.754 97.7397C143.021 97.4587 143.301 97.1731 143.596 96.886C144.839 95.5917 146.217 94.2732 147.526 92.9364C148.835 91.5996 150.058 90.2522 151.109 89.0323L151.494 88.5766L151.683 88.3609C151.741 88.285 151.8 88.2105 151.857 88.1376C152.088 87.8444 152.311 87.568 152.524 87.3097L152.682 87.1183L152.831 86.9239L153.107 86.5563C153.285 86.3203 153.452 86.1056 153.606 85.9122C154.177 85.0979 154.539 84.6316 154.539 84.6316C154.678 84.8404 154.798 85.0609 154.9 85.2909C155.183 85.9259 155.383 86.5959 155.496 87.2839C155.581 87.7783 155.622 88.2797 155.618 88.7817C155.618 89.0597 155.607 89.3529 155.583 89.6612C155.571 89.8132 155.56 89.9772 155.537 90.1352C155.515 90.2932 155.487 90.4542 155.457 90.6198C155.394 90.9494 155.318 91.2958 155.223 91.6573C155.174 91.8381 155.123 92.0249 155.065 92.2103C155.007 92.3956 154.934 92.5779 154.861 92.7678C154.712 93.146 154.547 93.541 154.356 93.9511C154.166 94.3613 153.933 94.7562 153.68 95.1801Z" fill="#C5CBD5"/>
</g>
<defs>
<clipPath id="clip0_57_53696">
<rect width="51" height="85" fill="white" transform="translate(0 22)"/>
</clipPath>
<clipPath id="clip1_57_53696">
<rect width="51" height="85" fill="white" transform="matrix(-1 0 0 1 181 22)"/>
</clipPath>
</defs>
</svg>
