<svg width="201" height="85" viewBox="0 0 201 85" fill="none" xmlns="http://www.w3.org/2000/svg">
<path d="M41.5244 18.8183C43.4964 18.8504 44.1325 20.589 45.0866 23.1325L51.6704 40.6474H52.3065L57.3951 26.4488L62.6428 40.6474H63.2788L69.7993 22.4243C70.4354 20.6534 70.8486 18.9148 72.5662 18.8183V18.1743H66.7139V18.8183C68.3358 19.0758 68.8133 19.3334 68.8133 20.0739C68.8133 20.4925 68.7178 20.9111 68.5271 21.4262L64.0425 34.5302H63.9789L59.1127 21.3941C58.8584 20.75 58.7627 20.2994 58.7627 20.0416C58.7627 19.3013 59.1127 18.9471 61.2435 18.8183V18.1743H52.2744V18.8183C54.5644 19.1079 54.9144 19.7197 55.9002 22.7141L56.5362 24.6135L53.0061 34.4658H52.9426L48.108 21.2974C47.9173 20.7501 47.79 20.3314 47.79 20.0416C47.79 19.3013 48.1718 19.0115 50.0485 18.8183V18.1743H41.5244V18.8183ZM82.5527 39.7137C76.6373 39.7137 74.8241 34.337 74.8241 28.9923C74.8241 23.6799 77.1142 18.8504 82.5527 18.8504C87.9596 18.8504 90.2497 23.6799 90.2497 28.9923C90.2497 34.337 88.4369 39.7137 82.5527 39.7137ZM82.5527 17.6592C75.8422 17.6592 70.9443 22.4243 70.9443 29.4753C70.9443 36.2365 75.9692 40.9049 82.5527 40.9049C89.1046 40.9049 94.1301 36.2365 94.1301 29.4753C94.1301 22.4243 89.2322 17.6592 82.5527 17.6592ZM116.711 39.746C115.28 39.3597 114.771 39.0054 113.912 37.9751L106.915 29.6684C110.35 28.9602 112.736 27.286 112.736 23.6155C112.736 18.432 107.901 18.1743 103.925 18.1743H93.4936V18.8183C96.0377 18.8183 96.9287 19.3334 96.9287 21.9736V36.5907C96.9287 39.2307 96.0377 39.746 93.4936 39.746V40.3898H103.798V39.746C101.254 39.746 100.363 39.2307 100.363 36.5907V30.4734H103.258L111.559 40.3898H116.711V39.746ZM100.363 20.9755C100.363 19.4622 100.745 19.3657 102.845 19.3657C105.993 19.3657 108.855 20.4281 108.855 24.0662C108.855 27.9942 105.579 29.1211 102.144 29.1211H100.363V20.9755ZM118.906 40.3898H137.194L139.134 34.6911L138.37 34.5623C137.035 37.6211 135.444 39.0375 132.041 39.0375H127.493C125.616 39.0375 125.553 37.9751 125.553 36.1721V21.9736C125.553 19.3334 126.444 18.8183 128.988 18.8183V18.1743H118.906V18.8183C121.26 18.9471 122.118 19.3657 122.118 21.9092V36.6551C122.118 39.1986 121.26 39.6172 118.906 39.746V40.3898ZM139.42 40.3898H150.424C155.068 40.3898 163.273 38.2649 163.273 29.3465C163.273 20.4925 156.817 18.1743 150.583 18.1743H139.42V18.8183C141.964 18.8183 142.855 19.3334 142.855 21.9736V36.5907C142.855 39.2307 141.964 39.746 139.42 39.746V40.3898ZM146.29 23.1969C146.29 21.3295 146.29 20.3637 146.576 19.8808C146.862 19.3657 147.657 19.3657 149.279 19.3657C155.163 19.3657 159.393 23.1004 159.393 29.1855C159.393 36.011 155.068 39.1986 148.612 39.1986C146.29 39.1986 146.29 38.5868 146.29 36.8482V23.1969Z" fill="#C30044"/>
<path d="M41.4878 62.2029H49.9631V61.6731C47.8705 61.6731 47.1379 61.2493 47.1379 59.0783V53.1201H51.2973C53.1807 53.1201 53.7299 53.9144 53.8081 55.821H54.3314V49.4923H53.8081C53.7299 51.2401 53.076 52.0078 51.2973 52.0078H47.1379V46.7649C47.1379 45.4408 47.1902 45.0436 48.2627 45.0436H53.3374C55.4302 45.0436 56.0318 46.2616 56.4242 48.1682H56.9475L56.6597 43.9313H41.4878V44.4609C43.5804 44.4609 44.3129 44.8846 44.3129 47.0561V59.0783C44.3129 61.2493 43.5804 61.6731 41.4878 61.6731V62.2029ZM57.9672 62.2029H66.4427V61.6731C64.3501 61.6731 63.6173 61.2493 63.6173 59.0783V47.0561C63.6173 44.8846 64.3501 44.4609 66.4427 44.4609V43.9313H57.9672V44.4609C60.06 44.4609 60.7925 44.8846 60.7925 47.0561V59.0783C60.7925 61.2493 60.06 61.6731 57.9672 61.6731V62.2029ZM68.1688 44.4609C69.6862 44.5404 70.8106 45.9174 70.9678 46.6853V57.9659C70.9678 60.6403 70.9152 61.5406 68.3781 61.6731V62.2029H74.7346V61.6731C72.1974 61.5406 72.1449 60.6403 72.1449 57.9659V47.5591L84.5437 62.2029H84.9887V48.1682C84.9887 45.4937 85.0408 44.5934 87.5784 44.4609V43.9313H81.2219V44.4609C83.7591 44.5934 83.8116 45.4937 83.8116 48.1682V56.9597L72.7985 43.9313H68.1688V44.4609ZM95.7918 47.4796L99.2447 55.0793H92.3913L95.7918 47.4796ZM86.3487 62.2029H92.3392V61.6731H92.1299C90.482 61.6731 90.2464 61.1167 90.2464 60.5609C90.2464 59.8194 91.5803 57.0658 91.8685 56.1916H99.7416C100.187 57.1717 101.547 59.634 101.547 60.5344C101.547 61.0374 101.207 61.6731 99.7158 61.6731H99.454V62.2029H107.171V61.6731C105.627 61.6731 104.921 60.6402 104.372 59.4488L97.0736 43.6666H96.4199L88.991 59.3693C88.232 60.9847 87.866 61.5938 86.3487 61.6731V62.2029ZM108.478 44.4609C109.996 44.5404 111.121 45.9174 111.277 46.6853V57.9659C111.277 60.6403 111.225 61.5406 108.688 61.6731V62.2029H115.044V61.6731C112.507 61.5406 112.455 60.6403 112.455 57.9659V47.5591L124.854 62.2029H125.298V48.1682C125.298 45.4937 125.351 44.5934 127.888 44.4609V43.9313H121.532V44.4609C124.069 44.5934 124.121 45.4937 124.121 48.1682V56.9597L113.109 43.9313H108.478V44.4609ZM143.714 43.693H143.191C142.981 45.7055 140.758 43.5078 137.174 43.5078C131.629 43.5078 127.339 47.5591 127.339 53.2526C127.339 59.502 132.021 62.6262 137.226 62.6262C139.058 62.6262 142.092 62.0436 144.629 58.4692L144.185 58.0452C142.537 60.1105 140.523 61.6465 137.462 61.6465C133.303 61.6465 130.53 58.3099 130.53 52.8289C130.53 48.6449 132.701 44.4875 137.436 44.4875C140.575 44.4875 142.929 46.5529 143.636 49.5982H144.158L143.714 43.693ZM145.571 62.2029H161.632L163.045 57.7274L162.548 57.5422C161.867 59.634 160.402 61.0907 158.048 61.0907H152.529C151.325 61.0907 151.221 60.5344 151.221 58.8663V53.1201H156.74C158.519 53.1201 159.121 53.8878 159.278 55.6356H159.801V49.4923H159.278C159.094 51.2663 158.545 52.0078 156.74 52.0078H151.221V46.8971C151.221 45.3613 151.221 45.0436 152.398 45.0436H157.368C159.539 45.0436 160.664 45.7055 160.952 47.9299H161.475L161.24 43.9313H145.571V44.4609C147.663 44.4609 148.396 44.8846 148.396 47.0561V59.0783C148.396 61.2493 147.663 61.6731 145.571 61.6731V62.2029Z" fill="#C30044"/>
<g clip-path="url(#clip0_57_53700)">
<path d="M27.3199 73.1801C28.5784 75.243 30.3402 77.1555 32.2778 78.7019C34.0773 80.1443 36.054 81.3403 38.1576 82.2596C35.1052 81.2361 32.1776 79.86 29.4317 78.1581C26.6955 76.4396 24.1567 74.4137 21.8631 72.1182C22.022 71.7791 22.1414 71.4223 22.219 71.0549C22.3562 70.4158 22.4236 69.7632 22.4201 69.1089C22.4201 68.9064 22.4156 68.6983 22.4067 68.4846C22.4067 68.2613 22.3932 68.0289 22.3783 67.7858C22.3471 67.3027 22.292 66.7802 22.2056 66.2227C22.1192 65.6652 22.0448 65.0348 21.9077 64.3861C21.872 64.2251 21.8452 64.0565 21.8154 63.8833L21.7186 63.3607C21.6501 63.0068 21.5697 62.6452 21.4833 62.2716C21.1571 60.634 20.7074 58.9189 20.3231 57.2206L20.2829 57.0687L20.2516 56.9168L20.1861 56.5963C20.1399 56.3867 20.0938 56.1755 20.0491 55.9659C20.0044 55.7562 19.9508 55.5527 19.9002 55.3461C19.8495 55.1395 19.8227 54.9314 19.784 54.7263C19.7453 54.5212 19.7021 54.3222 19.6618 54.1187C19.6216 53.9151 19.574 53.7252 19.5472 53.5262C19.4836 53.1313 19.4171 52.75 19.3476 52.3824C19.3298 52.2912 19.3119 52.2001 19.2955 52.1105C19.2791 52.0208 19.2702 51.9282 19.2568 51.8385C19.2319 51.6593 19.2066 51.4831 19.1808 51.3099C19.1331 50.9666 19.0721 50.6415 19.0319 50.3301C18.9663 49.7042 18.883 49.1543 18.8308 48.6956C18.7549 47.7689 18.6819 47.2205 18.6819 47.2205C18.4793 47.3205 18.2855 47.4379 18.1025 47.5714C17.5936 47.9381 17.1332 48.37 16.7324 48.8566C16.6013 49.0085 16.4613 49.1877 16.3347 49.3731C16.2082 49.5584 16.0816 49.7604 15.9565 49.9807C15.6769 50.4667 15.4359 50.9747 15.2356 51.4998C15.0135 52.141 14.8378 52.798 14.7099 53.4655C14.6473 53.8316 14.6056 54.2159 14.5699 54.6245C14.552 54.8281 14.5386 55.0377 14.5267 55.2534C14.511 55.4723 14.5066 55.6918 14.5133 55.9112C14.5267 56.4626 14.5565 57.0262 14.5997 57.5974C14.6429 58.1685 14.7486 58.7245 14.8469 59.2957L14.9214 59.7225L15.0197 60.1433C15.0862 60.4228 15.1557 60.7024 15.2282 60.9819C15.3041 61.2598 15.3771 61.5439 15.459 61.8158C15.5409 62.0877 15.6407 62.3581 15.7316 62.627L16.0279 63.423C16.0741 63.5567 16.1262 63.6873 16.1769 63.8149L16.3392 64.1977C16.4514 64.4529 16.5621 64.7061 16.6713 64.9573C16.783 65.2049 16.8873 65.4571 17.0153 65.6895C17.2581 66.1619 17.5024 66.6207 17.7421 67.0566C17.8583 67.28 17.9938 67.485 18.1189 67.6916L18.4957 68.2993C14.7848 63.546 12.1284 58.0285 10.7096 52.1272C11.1058 51.8674 11.8057 51.2446 12.5191 50.0111C12.7083 49.7073 12.9019 49.3533 13.091 48.966C13.1863 48.7715 13.2801 48.568 13.374 48.3583C13.4678 48.1487 13.5527 47.9208 13.6585 47.6823C13.8625 47.2099 14.0621 46.6934 14.2542 46.1329C14.3421 45.8518 14.4597 45.5571 14.5624 45.2533C14.6652 44.9495 14.7695 44.6305 14.8693 44.3024C14.969 43.9408 15.1001 43.5687 15.2133 43.1904C15.3265 42.8122 15.4337 42.4309 15.5335 42.0435C15.6333 41.6562 15.7658 41.2688 15.8716 40.8784C15.9267 40.6839 15.9699 40.488 16.0309 40.2935L16.2037 39.7117C16.2588 39.5188 16.3124 39.3259 16.366 39.133L16.4435 38.8443L16.5343 38.5603C16.6514 38.1805 16.7626 37.8058 16.8679 37.4362C16.9796 37.0685 17.1047 36.71 17.2119 36.3591C17.2656 36.1829 17.3177 36.0097 17.3713 35.8381C17.4249 35.6664 17.4889 35.5024 17.5455 35.3383C17.6587 35.0082 17.7645 34.6907 17.8628 34.3858C17.977 34.082 18.0832 33.7939 18.1815 33.5215C18.3662 32.9716 18.5702 32.4961 18.7191 32.0936L18.9232 31.5558C18.9872 31.4039 19.0438 31.2657 19.0885 31.1578C19.1778 30.9391 19.2255 30.819 19.2255 30.819C19.0199 30.8126 18.8141 30.8243 18.6104 30.854C18.3702 30.8842 18.1319 30.9294 17.897 30.9892C17.7585 31.0241 17.6096 31.0667 17.4502 31.1168C17.2909 31.1669 17.1375 31.2307 16.9692 31.3021C16.5915 31.4642 16.2261 31.6546 15.876 31.8718C15.4461 32.1354 15.0421 32.4406 14.6697 32.7832C14.4612 32.9685 14.2497 33.1711 14.0353 33.3908C13.8223 33.6142 13.6242 33.8602 13.4142 34.1261C13.2042 34.3919 12.9987 34.6775 12.7887 34.9874C12.5787 35.2973 12.3985 35.6345 12.2049 35.993C10.4043 39.3077 9.71473 43.6218 9.79515 46.9076C9.17954 41.4803 9.59163 35.983 11.009 30.7142C11.5168 30.6398 12.3493 30.3846 13.4082 29.698C14.5073 29.0265 15.8015 27.9131 17.4636 26.2785C18.4674 25.3048 19.4623 24.1807 20.4914 23.1082L20.8637 22.7011C20.9888 22.5659 21.1214 22.4368 21.2465 22.3031C21.5012 22.0403 21.7469 21.7775 21.9911 21.5177C22.2354 21.258 22.4886 21.018 22.7254 20.7719C22.843 20.6503 22.9562 20.5258 23.0739 20.4088L23.4253 20.067C23.6567 19.8402 23.8756 19.6204 24.0821 19.4077C24.2887 19.1951 24.4957 18.9996 24.7032 18.8214C24.8998 18.6376 25.0755 18.4538 25.2512 18.2943L25.7368 17.8537C26.0346 17.5848 26.2551 17.36 26.4248 17.2203C26.5946 17.0805 26.678 16.9954 26.678 16.9954C26.5109 16.9062 26.3365 16.832 26.1568 16.7737C25.946 16.7017 25.7311 16.6429 25.5134 16.5974C25.2229 16.5396 24.9288 16.5026 24.6332 16.4866C24.2569 16.4655 23.8796 16.4726 23.5043 16.5078C23.3985 16.5169 23.2913 16.5276 23.1826 16.5428C23.0739 16.558 22.9652 16.5777 22.852 16.599C22.6286 16.643 22.3933 16.6977 22.1475 16.7645C21.9018 16.8314 21.6471 16.9165 21.3805 17.003C21.1139 17.0896 20.8548 17.2172 20.5748 17.3479C20.2948 17.4785 20.0104 17.6259 19.714 17.7914C19.4176 17.957 19.1317 18.1545 18.8204 18.3657C17.669 19.18 16.6131 20.1265 15.6735 21.1866C15.4337 21.4509 15.2148 21.7289 14.9899 22.0023L14.6578 22.417C14.5491 22.5553 14.4388 22.692 14.3405 22.8363C14.1395 23.1188 13.9429 23.4029 13.7448 23.6855L13.4604 24.1062C13.3695 24.2475 13.2861 24.3918 13.2012 24.5331C14.0232 22.6965 14.9687 20.92 16.0309 19.2163L16.85 17.957L17.7183 16.7311C17.8673 16.5245 18.0162 16.3286 18.1651 16.1235L18.6238 15.5311C18.7802 15.3351 18.9217 15.13 19.09 14.9417L19.5725 14.369C19.7765 14.2626 20.0193 14.1305 20.3082 13.9694C20.5971 13.8084 20.9338 13.6398 21.2957 13.4362C21.4774 13.3345 21.6665 13.2266 21.8616 13.1112C22.0567 12.9957 22.2726 12.8879 22.4886 12.7648C22.7045 12.6418 22.9264 12.5172 23.1558 12.382L23.5028 12.1769L23.8692 11.9734C24.1149 11.8336 24.3681 11.6878 24.6228 11.5359L25.0115 11.3035L25.4181 11.0726C25.6921 10.9166 25.9691 10.753 26.2491 10.5819C26.3861 10.4938 26.5321 10.4102 26.678 10.3282L27.1248 10.0715C28.2954 9.35752 29.5822 8.61469 30.9315 7.7716C31.3098 7.54779 31.6806 7.31689 32.044 7.0789C32.4104 6.84952 32.7782 6.62318 33.1327 6.3938C33.3114 6.28139 33.4827 6.1553 33.6629 6.04745C33.8431 5.93959 34.0158 5.82566 34.1901 5.71325L34.7054 5.3745L34.9586 5.20284L35.2133 5.04182C35.5528 4.82763 35.882 4.61192 36.2036 4.39317L36.4434 4.23215L36.6847 4.08024L37.1538 3.77643L37.611 3.47261C37.76 3.37235 37.9089 3.26906 38.0578 3.17943C38.3557 2.99512 38.6382 2.81333 38.9053 2.63408C39.4444 2.26495 39.9478 1.96417 40.3946 1.66947L41.0216 1.2578L41.5592 0.920562C42.2085 0.505854 42.5764 0.246091 42.5764 0.246091C42.5764 0.246091 42.146 0.170136 41.3686 0.0865872L40.7207 0.0243044C40.4839 0.00911366 40.2307 0.00303929 39.9567 -0.0045561C39.4086 -0.0136706 38.7787 -0.0334189 38.0995 0.0212679C37.757 0.0435478 37.3996 0.0713957 37.0272 0.104815C36.8396 0.118487 36.6534 0.147351 36.4628 0.174694L35.8805 0.262801L35.2848 0.364579L34.9765 0.419266C34.8752 0.439014 34.7724 0.464837 34.6696 0.487624C34.2586 0.584845 33.8356 0.68966 33.4052 0.80511L33.0821 0.893217L32.7589 0.998034L32.108 1.2183C31.8891 1.29425 31.6687 1.37021 31.4483 1.45528C31.2279 1.54035 31.0104 1.63605 30.79 1.72871C30.3536 1.92315 29.9083 2.11911 29.4705 2.33634C29.0326 2.55357 28.6052 2.81181 28.1733 3.06702C27.9871 3.17335 27.8069 3.29184 27.6312 3.41033L27.1084 3.76579C26.7674 4.00733 26.4248 4.23367 26.1136 4.49191C25.5016 4.96537 24.9155 5.47249 24.3577 6.01099C24.0896 6.26923 23.8314 6.52241 23.5832 6.77053C23.335 7.01865 23.1052 7.27841 22.8937 7.54982C22.6748 7.80806 22.4588 8.05415 22.2637 8.30936C22.0686 8.56456 21.8854 8.81673 21.7082 9.0613C20.6746 10.4831 19.8429 12.0464 19.2374 13.7051C18.0545 15.0789 16.9624 16.5313 15.9684 18.0527C16.2662 17.4132 16.6266 16.7706 16.9662 16.0779L18.0668 13.9907C18.457 13.2919 18.8249 12.5521 19.2255 11.8412C19.4221 11.4812 19.6097 11.1121 19.8019 10.749C19.994 10.3859 20.1935 10.0305 20.3797 9.66589C20.4735 9.48208 20.5644 9.30131 20.6508 9.12358C20.7372 8.94585 20.831 8.77875 20.9144 8.61014C21.0842 8.27138 21.239 7.94174 21.382 7.62121L21.7886 6.70065C21.9137 6.40595 22.0279 6.12037 22.1311 5.84389C22.2354 5.56894 22.3233 5.29551 22.4126 5.04486C22.502 4.79421 22.5779 4.55116 22.6464 4.31874C22.7709 3.89814 22.8738 3.47121 22.9547 3.03967C23.0763 2.46448 23.1396 1.87808 23.1439 1.2897C23.1463 1.08609 23.1304 0.882684 23.0962 0.682065L22.7164 0.975249C22.4752 1.16969 22.1207 1.43097 21.6948 1.8153C20.5619 2.78573 19.4918 3.83001 18.4913 4.94156C17.2019 6.36068 16.0415 7.89617 15.0241 9.52918C14.768 9.95452 14.5198 10.3804 14.2795 10.8067C14.0412 11.2321 13.8327 11.6741 13.6242 12.1025C13.5249 12.3182 13.4256 12.5324 13.3263 12.7451C13.228 12.9562 13.1476 13.1765 13.0627 13.3907C12.8959 13.8191 12.7425 14.2398 12.6055 14.65C12.3806 15.3609 12.2213 16.0293 12.0902 16.6354C12.0217 16.9392 11.9845 17.2431 11.9413 17.5195C11.8981 17.796 11.8757 18.0725 11.8534 18.3307C11.8311 18.589 11.8162 18.8335 11.8102 19.0675C11.8042 19.3014 11.8102 19.5232 11.8236 19.7435C11.8411 20.1288 11.8809 20.5128 11.9428 20.8934C11.9711 21.0635 12.0008 21.2246 12.0366 21.3749C12.0723 21.5253 12.117 21.6788 12.1602 21.8064C12.2365 22.0464 12.3285 22.2808 12.4357 22.5082C12.5792 22.8199 12.763 23.1107 12.9823 23.3725C11.7483 25.977 10.7829 28.7052 10.102 31.5133C9.41514 34.3189 9.00454 37.1875 8.87626 40.0763C8.81073 38.3658 8.75563 36.312 8.76456 34.1215C8.7735 31.931 8.85688 29.6053 8.89858 27.3267C8.89858 27.0973 8.89858 26.871 8.89858 26.6522C8.89858 26.4335 8.89858 26.2132 8.89858 26.0036C8.89858 25.5833 8.89414 25.1782 8.8852 24.7883C8.87627 24.3984 8.86037 24.0247 8.83754 23.6672C8.82165 23.3097 8.79832 22.9674 8.76754 22.6403C8.73925 22.3137 8.69606 21.9978 8.6633 21.7031C8.63053 21.4084 8.59181 21.1273 8.54862 20.86C8.4734 20.3776 8.37398 19.8995 8.25076 19.4275C8.10203 18.7926 7.88941 18.1751 7.61631 17.5848C7.52241 17.3795 7.40972 17.1837 7.27972 17L7.04291 17.4876L6.76592 18.0664C6.71379 18.1803 6.65569 18.3019 6.59611 18.431C6.53654 18.5601 6.47996 18.7014 6.41889 18.8487C5.75081 20.3997 5.18898 21.996 4.73746 23.6262C4.45002 24.5924 4.23409 25.6436 4.01218 26.713C3.83495 27.7976 3.65323 28.902 3.57877 30.0185C3.48729 31.1131 3.45698 32.2122 3.48794 33.3103C3.51624 33.8466 3.55347 34.3737 3.59964 34.8841C3.62644 35.1408 3.64433 35.39 3.68454 35.6436C3.72475 35.8973 3.76195 36.1358 3.80514 36.3758C3.88557 36.8224 3.97045 37.2432 4.05832 37.6427C4.14619 38.0423 4.26982 38.419 4.37854 38.7745C4.48726 39.1299 4.60045 39.4626 4.71513 39.7755C4.82981 40.0885 4.96683 40.3832 5.09193 40.6551C5.31666 41.1482 5.57286 41.6257 5.85891 42.0845C6.09849 42.4491 6.36065 42.7977 6.64378 43.1281C7.0346 43.5943 7.49199 43.9979 8.00056 44.3252C8.28884 44.5054 8.60073 44.643 8.92691 44.7338C9.12725 47.9421 9.67671 51.1178 10.5652 54.2022L10.7275 54.7825L10.9166 55.3522L11.2949 56.4945L11.3902 56.7786L11.499 57.0596L11.7149 57.6201L12.1498 58.7397L12.6353 59.838L12.8795 60.3864C12.9198 60.4775 12.9585 60.5702 13.0016 60.6598L13.1372 60.9287L13.6748 62.0012C13.7657 62.1789 13.8521 62.3597 13.9474 62.5359L14.2452 63.0569C13.2027 61.471 11.9279 59.4673 10.6813 57.2282C9.43477 54.9891 8.16734 52.5373 6.92823 50.1387C6.69887 49.683 6.45315 49.2591 6.23422 48.8459C6.01529 48.4328 5.8038 48.0378 5.58785 47.6626C5.47913 47.4742 5.37191 47.2904 5.26319 47.1127C5.15447 46.9349 5.04726 46.7603 4.95045 46.5886C4.75188 46.2483 4.5533 45.9258 4.35473 45.6209C3.70781 44.6051 2.98691 43.6403 2.19817 42.7347C1.87946 42.3792 1.56968 42.083 1.30458 41.8384C1.08574 41.633 0.856595 41.4393 0.618032 41.2582C0.422921 41.1051 0.21398 40.9713 -0.00598144 40.8586C-0.00598144 40.8586 -0.00600617 41.0759 0.00590833 41.4663C0.0178228 41.8567 0.0476338 42.4354 0.105717 43.1494C0.135503 43.5064 0.169746 43.8983 0.205489 44.3206C0.215914 44.427 0.226334 44.5333 0.236759 44.6427L0.281446 44.9753C0.31421 45.2017 0.346964 45.4311 0.381218 45.6726C0.451216 46.1496 0.530155 46.6509 0.610578 47.1719C0.691001 47.693 0.82802 48.2353 0.948654 48.7867C1.00972 49.0632 1.07376 49.3427 1.1378 49.6268C1.20184 49.9108 1.28674 50.1949 1.36716 50.482C1.52949 51.0562 1.69927 51.6395 1.87798 52.2259C2.0567 52.8123 2.29201 53.3941 2.50945 53.9789L2.67478 54.4164C2.72988 54.5683 2.78647 54.7081 2.852 54.8509L3.23327 55.7091C3.36433 55.9917 3.49388 56.2742 3.62494 56.5583L3.82452 56.9761L4.04345 57.3862C4.34131 57.9285 4.63917 58.4602 4.93704 58.9752C5.2349 59.4901 5.58489 59.9732 5.91105 60.4426C6.07488 60.6765 6.23917 60.9054 6.40399 61.1292C6.57377 61.351 6.75249 61.5621 6.92674 61.7687C7.26034 62.1652 7.58353 62.5283 7.89926 62.8731C8.04819 63.0448 8.22095 63.2028 8.38031 63.3562C8.53966 63.5096 8.69905 63.66 8.85542 63.7997C9.16669 64.0823 9.46601 64.3405 9.75643 64.579C10.0468 64.8175 10.3522 65.0196 10.6262 65.211C11.1257 65.5504 11.6472 65.8549 12.187 66.1224C12.6218 66.3272 13.0696 66.5017 13.5274 66.645C13.8851 66.756 14.2505 66.8393 14.6205 66.8941C14.9089 66.9323 15.1997 66.9465 15.4903 66.9366C15.8483 66.9311 16.2036 66.8717 16.5447 66.7604C16.7934 67.1113 17.0317 67.4698 17.2894 67.8147L18.0757 68.8355L18.4704 69.3459L18.8874 69.8366L19.7199 70.8179C20.0059 71.1369 20.3037 71.4453 20.5956 71.7597C20.8876 72.0742 21.175 72.3932 21.4892 72.6848L22.4111 73.5811L22.642 73.8044L22.8818 74.0171L23.3628 74.4424C25.9193 76.7411 28.7482 78.7038 31.7834 80.2848C29.8666 79.4857 27.5314 78.4087 25.0815 77.1038C22.6316 75.7989 20.0506 74.2829 17.5351 72.7745C16.5969 72.1866 15.6779 71.6959 14.8618 71.2205C14.4478 70.9845 14.0422 70.7703 13.645 70.5779C13.2578 70.3743 12.8929 70.1784 12.531 70.0037C11.076 69.3094 9.87858 68.8021 8.85542 68.4952C8.3431 68.3433 7.90971 68.2188 7.51504 68.1352C7.19 68.0623 6.86138 68.007 6.53059 67.9696C6.259 67.9343 5.98475 67.9251 5.71147 67.9423L6.07038 68.5271C6.30569 68.9023 6.63781 69.4538 7.1129 70.1039C7.58799 70.7541 8.12566 71.5471 8.81372 72.3749L9.33647 73.0175C9.51668 73.2347 9.6954 73.4611 9.89645 73.6768C10.2926 74.1158 10.7066 74.5685 11.137 75.0288C13.0129 76.9825 15.0856 78.7289 17.3207 80.2392C19.5026 81.7159 21.8769 82.8731 24.3741 83.6769C24.9191 83.841 25.4394 83.9847 25.9348 84.1083C26.4397 84.2177 26.9208 84.3043 27.378 84.3772C27.6058 84.4136 27.8248 84.4455 28.0437 84.4744L28.3654 84.5154C28.4712 84.526 28.5784 84.5321 28.6811 84.5397C29.0996 84.5686 29.4943 84.5823 29.8726 84.5868C30.2509 84.5914 30.5949 84.5868 30.9255 84.5655C31.2562 84.5443 31.5763 84.4987 31.8712 84.4547C32.3948 84.3776 32.9124 84.2628 33.4201 84.1113C34.1286 83.8931 34.7994 83.5636 35.4083 83.1346C35.7335 82.9055 36.0236 82.6286 36.2692 82.3128C38.5197 83.1615 40.8363 83.8155 43.1945 84.2678L44.0791 84.4303L44.5259 84.5109C44.6749 84.5352 44.8238 84.5503 44.9727 84.5716C45.5685 84.6476 46.1642 84.7235 46.7599 84.7995L48.5545 84.9377C48.8524 84.9681 49.1502 84.9666 49.4481 84.9757L50.3417 85C50.7051 85.0091 51 84.8618 51 84.6719C51 84.482 50.7021 84.321 50.3521 84.3119L49.5032 84.2906L49.0787 84.2784H48.8658L48.6543 84.2617L46.958 84.1296L46.7465 84.1129L46.5365 84.0855L46.115 84.0308L45.2721 83.9215C44.7076 83.8622 44.1521 83.7468 43.5936 83.648C43.532 83.2372 43.421 82.8356 43.263 82.4525C43.1617 82.1897 43.0292 81.9132 42.8668 81.5882C42.6857 81.2322 42.4869 80.8859 42.2711 80.5506C42.0343 80.1785 41.7558 79.7911 41.4386 79.3809C41.1214 78.9708 40.7639 78.5044 40.3588 78.0441C40.2576 77.9272 40.1503 77.8163 40.0461 77.6917L39.7199 77.3165C39.498 77.0643 39.2627 76.8076 39.0155 76.557C38.8919 76.4248 38.7623 76.3033 38.6357 76.162C38.5091 76.0207 38.3795 75.881 38.2455 75.7397C37.9789 75.4587 37.6989 75.1731 37.404 74.886C36.1605 73.5917 34.7828 72.2732 33.4737 70.9364C32.1646 69.5996 30.9419 68.2522 29.8905 67.0323L29.5062 66.5766L29.3171 66.3609C29.2585 66.285 29.2004 66.2105 29.1428 66.1376C28.912 65.8444 28.6886 65.568 28.4756 65.3097L28.3177 65.1183L28.1688 64.9239L27.8933 64.5563C27.7146 64.3203 27.5483 64.1056 27.3944 63.9122C26.8225 63.0979 26.4606 62.6316 26.4606 62.6316C26.3221 62.8404 26.2015 63.0609 26.1001 63.2909C25.8174 63.9259 25.6172 64.5959 25.5044 65.2839C25.4188 65.7783 25.3779 66.2797 25.3823 66.7817C25.3823 67.0597 25.3927 67.3529 25.4166 67.6612C25.4285 67.8132 25.4404 67.9772 25.4627 68.1352C25.4851 68.2932 25.5134 68.4542 25.5431 68.6198C25.6057 68.9494 25.6817 69.2958 25.777 69.6573C25.8261 69.8381 25.8768 70.0249 25.9348 70.2103C25.9929 70.3956 26.0659 70.5779 26.1389 70.7678C26.2878 71.146 26.4531 71.541 26.6438 71.9511C26.8344 72.3613 27.0667 72.7562 27.3199 73.1801Z" fill="#C5CBD5"/>
</g>
<g clip-path="url(#clip1_57_53700)">
<path d="M173.68 73.1801C172.422 75.243 170.66 77.1555 168.722 78.7019C166.923 80.1443 164.946 81.3403 162.842 82.2596C165.895 81.2361 168.822 79.86 171.568 78.1581C174.305 76.4396 176.843 74.4137 179.137 72.1182C178.978 71.7791 178.859 71.4223 178.781 71.0549C178.644 70.4158 178.576 69.7632 178.58 69.1089C178.58 68.9064 178.584 68.6983 178.593 68.4846C178.593 68.2613 178.607 68.0289 178.622 67.7858C178.653 67.3027 178.708 66.7802 178.794 66.2227C178.881 65.6652 178.955 65.0348 179.092 64.3861C179.128 64.2251 179.155 64.0565 179.185 63.8833L179.281 63.3607C179.35 63.0068 179.43 62.6452 179.517 62.2716C179.843 60.634 180.293 58.9189 180.677 57.2206L180.717 57.0687L180.748 56.9168L180.814 56.5963C180.86 56.3867 180.906 56.1755 180.951 55.9659C180.996 55.7562 181.049 55.5527 181.1 55.3461C181.15 55.1395 181.177 54.9314 181.216 54.7263C181.255 54.5212 181.298 54.3222 181.338 54.1187C181.378 53.9151 181.426 53.7252 181.453 53.5262C181.516 53.1313 181.583 52.75 181.652 52.3824C181.67 52.2912 181.688 52.2001 181.705 52.1105C181.721 52.0208 181.73 51.9282 181.743 51.8385C181.768 51.6593 181.793 51.4831 181.819 51.3099C181.867 50.9666 181.928 50.6415 181.968 50.3301C182.034 49.7042 182.117 49.1543 182.169 48.6956C182.245 47.7689 182.318 47.2205 182.318 47.2205C182.521 47.3205 182.715 47.4379 182.897 47.5714C183.406 47.9381 183.867 48.37 184.268 48.8566C184.399 49.0085 184.539 49.1877 184.665 49.3731C184.792 49.5584 184.918 49.7604 185.044 49.9807C185.323 50.4667 185.564 50.9747 185.764 51.4998C185.986 52.141 186.162 52.798 186.29 53.4655C186.353 53.8316 186.394 54.2159 186.43 54.6245C186.448 54.8281 186.461 55.0377 186.473 55.2534C186.489 55.4723 186.493 55.6918 186.487 55.9112C186.473 56.4626 186.444 57.0262 186.4 57.5974C186.357 58.1685 186.251 58.7245 186.153 59.2957L186.079 59.7225L185.98 60.1433C185.914 60.4228 185.844 60.7024 185.772 60.9819C185.696 61.2598 185.623 61.5439 185.541 61.8158C185.459 62.0877 185.359 62.3581 185.268 62.627L184.972 63.423C184.926 63.5567 184.874 63.6873 184.823 63.8149L184.661 64.1977C184.549 64.4529 184.438 64.7061 184.329 64.9573C184.217 65.2049 184.113 65.4571 183.985 65.6895C183.742 66.1619 183.498 66.6207 183.258 67.0566C183.142 67.28 183.006 67.485 182.881 67.6916L182.504 68.2993C186.215 63.546 188.872 58.0285 190.29 52.1272C189.894 51.8674 189.194 51.2446 188.481 50.0111C188.292 49.7073 188.098 49.3533 187.909 48.966C187.814 48.7715 187.72 48.568 187.626 48.3583C187.532 48.1487 187.447 47.9208 187.342 47.6823C187.138 47.2099 186.938 46.6934 186.746 46.1329C186.658 45.8518 186.54 45.5571 186.438 45.2533C186.335 44.9495 186.231 44.6305 186.131 44.3024C186.031 43.9408 185.9 43.5687 185.787 43.1904C185.674 42.8122 185.566 42.4309 185.467 42.0435C185.367 41.6562 185.234 41.2688 185.128 40.8784C185.073 40.6839 185.03 40.488 184.969 40.2935L184.796 39.7117C184.741 39.5188 184.688 39.3259 184.634 39.133L184.557 38.8443L184.466 38.5603C184.349 38.1805 184.237 37.8058 184.132 37.4362C184.02 37.0685 183.895 36.71 183.788 36.3591C183.734 36.1829 183.682 36.0097 183.629 35.8381C183.575 35.6664 183.511 35.5024 183.454 35.3383C183.341 35.0082 183.236 34.6907 183.137 34.3858C183.023 34.082 182.917 33.7939 182.819 33.5215C182.634 32.9716 182.43 32.4961 182.281 32.0936L182.077 31.5558C182.013 31.4039 181.956 31.2657 181.912 31.1578C181.822 30.9391 181.775 30.819 181.775 30.819C181.98 30.8126 182.186 30.8243 182.39 30.854C182.63 30.8842 182.868 30.9294 183.103 30.9892C183.241 31.0241 183.39 31.0667 183.55 31.1168C183.709 31.1669 183.863 31.2307 184.031 31.3021C184.408 31.4642 184.774 31.6546 185.124 31.8718C185.554 32.1354 185.958 32.4406 186.33 32.7832C186.539 32.9685 186.75 33.1711 186.965 33.3908C187.178 33.6142 187.376 33.8602 187.586 34.1261C187.796 34.3919 188.001 34.6775 188.211 34.9874C188.421 35.2973 188.602 35.6345 188.795 35.993C190.596 39.3077 191.285 43.6218 191.205 46.9076C191.82 41.4803 191.408 35.983 189.991 30.7142C189.483 30.6398 188.651 30.3846 187.592 29.698C186.493 29.0265 185.198 27.9131 183.536 26.2785C182.533 25.3048 181.538 24.1807 180.509 23.1082L180.136 22.7011C180.011 22.5659 179.879 22.4368 179.754 22.3031C179.499 22.0403 179.253 21.7775 179.009 21.5177C178.765 21.258 178.511 21.018 178.275 20.7719C178.157 20.6503 178.044 20.5258 177.926 20.4088L177.575 20.067C177.343 19.8402 177.124 19.6204 176.918 19.4077C176.711 19.1951 176.504 18.9996 176.297 18.8214C176.1 18.6376 175.924 18.4538 175.749 18.2943L175.263 17.8537C174.965 17.5848 174.745 17.36 174.575 17.2203C174.405 17.0805 174.322 16.9954 174.322 16.9954C174.489 16.9062 174.664 16.832 174.843 16.7737C175.054 16.7017 175.269 16.6429 175.487 16.5974C175.777 16.5396 176.071 16.5026 176.367 16.4866C176.743 16.4655 177.12 16.4726 177.496 16.5078C177.601 16.5169 177.709 16.5276 177.817 16.5428C177.926 16.558 178.035 16.5777 178.148 16.599C178.371 16.643 178.607 16.6977 178.852 16.7645C179.098 16.8314 179.353 16.9165 179.619 17.003C179.886 17.0896 180.145 17.2172 180.425 17.3479C180.705 17.4785 180.99 17.6259 181.286 17.7914C181.582 17.957 181.868 18.1545 182.18 18.3657C183.331 19.18 184.387 20.1265 185.326 21.1866C185.566 21.4509 185.785 21.7289 186.01 22.0023L186.342 22.417C186.451 22.5553 186.561 22.692 186.659 22.8363C186.861 23.1188 187.057 23.4029 187.255 23.6855L187.54 24.1062C187.63 24.2475 187.714 24.3918 187.799 24.5331C186.977 22.6965 186.031 20.92 184.969 19.2163L184.15 17.957L183.282 16.7311C183.133 16.5245 182.984 16.3286 182.835 16.1235L182.376 15.5311C182.22 15.3351 182.078 15.13 181.91 14.9417L181.427 14.369C181.223 14.2626 180.981 14.1305 180.692 13.9694C180.403 13.8084 180.066 13.6398 179.704 13.4362C179.523 13.3345 179.334 13.2266 179.138 13.1112C178.943 12.9957 178.727 12.8879 178.511 12.7648C178.295 12.6418 178.074 12.5172 177.844 12.382L177.497 12.1769L177.131 11.9734C176.885 11.8336 176.632 11.6878 176.377 11.5359L175.989 11.3035L175.582 11.0726C175.308 10.9166 175.031 10.753 174.751 10.5819C174.614 10.4938 174.468 10.4102 174.322 10.3282L173.875 10.0715C172.705 9.35752 171.418 8.61469 170.069 7.7716C169.69 7.54779 169.319 7.31689 168.956 7.0789C168.59 6.84952 168.222 6.62318 167.867 6.3938C167.689 6.28139 167.517 6.1553 167.337 6.04745C167.157 5.93959 166.984 5.82566 166.81 5.71325L166.295 5.3745L166.041 5.20284L165.787 5.04182C165.447 4.82763 165.118 4.61192 164.796 4.39317L164.557 4.23215L164.315 4.08024L163.846 3.77643L163.389 3.47261C163.24 3.37235 163.091 3.26906 162.942 3.17943C162.644 2.99512 162.362 2.81333 162.095 2.63408C161.556 2.26495 161.052 1.96417 160.605 1.66947L159.978 1.2578L159.441 0.920562C158.791 0.505854 158.424 0.246091 158.424 0.246091C158.424 0.246091 158.854 0.170136 159.631 0.0865872L160.279 0.0243044C160.516 0.00911366 160.769 0.00303929 161.043 -0.0045561C161.591 -0.0136706 162.221 -0.0334189 162.9 0.0212679C163.243 0.0435478 163.6 0.0713957 163.973 0.104815C164.16 0.118487 164.347 0.147351 164.537 0.174694L165.12 0.262801L165.715 0.364579L166.024 0.419266C166.125 0.439014 166.228 0.464837 166.33 0.487624C166.741 0.584845 167.164 0.68966 167.595 0.80511L167.918 0.893217L168.241 0.998034L168.892 1.2183C169.111 1.29425 169.331 1.37021 169.552 1.45528C169.772 1.54035 169.99 1.63605 170.21 1.72871C170.646 1.92315 171.092 2.11911 171.53 2.33634C171.967 2.55357 172.395 2.81181 172.827 3.06702C173.013 3.17335 173.193 3.29184 173.369 3.41033L173.892 3.76579C174.233 4.00733 174.575 4.23367 174.886 4.49191C175.498 4.96537 176.085 5.47249 176.642 6.01099C176.91 6.26923 177.169 6.52241 177.417 6.77053C177.665 7.01865 177.895 7.27841 178.106 7.54982C178.325 7.80806 178.541 8.05415 178.736 8.30936C178.931 8.56456 179.115 8.81673 179.292 9.0613C180.325 10.4831 181.157 12.0464 181.763 13.7051C182.945 15.0789 184.038 16.5313 185.032 18.0527C184.734 17.4132 184.373 16.7706 184.034 16.0779L182.933 13.9907C182.543 13.2919 182.175 12.5521 181.775 11.8412C181.578 11.4812 181.39 11.1121 181.198 10.749C181.006 10.3859 180.806 10.0305 180.62 9.66589C180.526 9.48208 180.436 9.30131 180.349 9.12358C180.263 8.94585 180.169 8.77875 180.086 8.61014C179.916 8.27138 179.761 7.94174 179.618 7.62121L179.211 6.70065C179.086 6.40595 178.972 6.12037 178.869 5.84389C178.765 5.56894 178.677 5.29551 178.587 5.04486C178.498 4.79421 178.422 4.55116 178.354 4.31874C178.229 3.89814 178.126 3.47121 178.045 3.03967C177.924 2.46448 177.86 1.87808 177.856 1.2897C177.854 1.08609 177.87 0.882684 177.904 0.682065L178.284 0.975249C178.525 1.16969 178.879 1.43097 179.305 1.8153C180.438 2.78573 181.508 3.83001 182.509 4.94156C183.798 6.36068 184.959 7.89617 185.976 9.52918C186.232 9.95452 186.48 10.3804 186.721 10.8067C186.959 11.2321 187.167 11.6741 187.376 12.1025C187.475 12.3182 187.574 12.5324 187.674 12.7451C187.772 12.9562 187.852 13.1765 187.937 13.3907C188.104 13.8191 188.257 14.2398 188.394 14.65C188.619 15.3609 188.779 16.0293 188.91 16.6354C188.978 16.9392 189.016 17.2431 189.059 17.5195C189.102 17.796 189.124 18.0725 189.147 18.3307C189.169 18.589 189.184 18.8335 189.19 19.0675C189.196 19.3014 189.19 19.5232 189.176 19.7435C189.159 20.1288 189.119 20.5128 189.057 20.8934C189.029 21.0635 188.999 21.2246 188.963 21.3749C188.928 21.5253 188.883 21.6788 188.84 21.8064C188.764 22.0464 188.672 22.2808 188.564 22.5082C188.421 22.8199 188.237 23.1107 188.018 23.3725C189.252 25.977 190.217 28.7052 190.898 31.5133C191.585 34.3189 191.995 37.1875 192.124 40.0763C192.189 38.3658 192.244 36.312 192.235 34.1215C192.227 31.931 192.143 29.6053 192.101 27.3267C192.101 27.0973 192.101 26.871 192.101 26.6522C192.101 26.4335 192.101 26.2132 192.101 26.0036C192.101 25.5833 192.106 25.1782 192.115 24.7883C192.124 24.3984 192.14 24.0247 192.162 23.6672C192.178 23.3097 192.202 22.9674 192.232 22.6403C192.261 22.3137 192.304 21.9978 192.337 21.7031C192.369 21.4084 192.408 21.1273 192.451 20.86C192.527 20.3776 192.626 19.8995 192.749 19.4275C192.898 18.7926 193.111 18.1751 193.384 17.5848C193.478 17.3795 193.59 17.1837 193.72 17L193.957 17.4876L194.234 18.0664C194.286 18.1803 194.344 18.3019 194.404 18.431C194.463 18.5601 194.52 18.7014 194.581 18.8487C195.249 20.3997 195.811 21.996 196.263 23.6262C196.55 24.5924 196.766 25.6436 196.988 26.713C197.165 27.7976 197.347 28.902 197.421 30.0185C197.513 31.1131 197.543 32.2122 197.512 33.3103C197.484 33.8466 197.447 34.3737 197.4 34.8841C197.374 35.1408 197.356 35.39 197.315 35.6436C197.275 35.8973 197.238 36.1358 197.195 36.3758C197.114 36.8224 197.03 37.2432 196.942 37.6427C196.854 38.0423 196.73 38.419 196.621 38.7745C196.513 39.1299 196.4 39.4626 196.285 39.7755C196.17 40.0885 196.033 40.3832 195.908 40.6551C195.683 41.1482 195.427 41.6257 195.141 42.0845C194.902 42.4491 194.639 42.7977 194.356 43.1281C193.965 43.5943 193.508 43.9979 192.999 44.3252C192.711 44.5054 192.399 44.643 192.073 44.7338C191.873 47.9421 191.323 51.1178 190.435 54.2022L190.273 54.7825L190.083 55.3522L189.705 56.4945L189.61 56.7786L189.501 57.0596L189.285 57.6201L188.85 58.7397L188.365 59.838L188.12 60.3864C188.08 60.4775 188.042 60.5702 187.998 60.6598L187.863 60.9287L187.325 62.0012C187.234 62.1789 187.148 62.3597 187.053 62.5359L186.755 63.0569C187.797 61.471 189.072 59.4673 190.319 57.2282C191.565 54.9891 192.833 52.5373 194.072 50.1387C194.301 49.683 194.547 49.2591 194.766 48.8459C194.985 48.4328 195.196 48.0378 195.412 47.6626C195.521 47.4742 195.628 47.2904 195.737 47.1127C195.846 46.9349 195.953 46.7603 196.05 46.5886C196.248 46.2483 196.447 45.9258 196.645 45.6209C197.292 44.6051 198.013 43.6403 198.802 42.7347C199.121 42.3792 199.43 42.083 199.695 41.8384C199.914 41.633 200.143 41.4393 200.382 41.2582C200.577 41.1051 200.786 40.9713 201.006 40.8586C201.006 40.8586 201.006 41.0759 200.994 41.4663C200.982 41.8567 200.952 42.4354 200.894 43.1494C200.864 43.5064 200.83 43.8983 200.795 44.3206C200.784 44.427 200.774 44.5333 200.763 44.6427L200.719 44.9753C200.686 45.2017 200.653 45.4311 200.619 45.6726C200.549 46.1496 200.47 46.6509 200.389 47.1719C200.309 47.693 200.172 48.2353 200.051 48.7867C199.99 49.0632 199.926 49.3427 199.862 49.6268C199.798 49.9108 199.713 50.1949 199.633 50.482C199.471 51.0562 199.301 51.6395 199.122 52.2259C198.943 52.8123 198.708 53.3941 198.491 53.9789L198.325 54.4164C198.27 54.5683 198.214 54.7081 198.148 54.8509L197.767 55.7091C197.636 55.9917 197.506 56.2742 197.375 56.5583L197.175 56.9761L196.957 57.3862C196.659 57.9285 196.361 58.4602 196.063 58.9752C195.765 59.4901 195.415 59.9732 195.089 60.4426C194.925 60.6765 194.761 60.9054 194.596 61.1292C194.426 61.351 194.248 61.5621 194.073 61.7687C193.74 62.1652 193.416 62.5283 193.101 62.8731C192.952 63.0448 192.779 63.2028 192.62 63.3562C192.46 63.5096 192.301 63.66 192.145 63.7997C191.833 64.0823 191.534 64.3405 191.244 64.579C190.953 64.8175 190.648 65.0196 190.374 65.211C189.874 65.5504 189.353 65.8549 188.813 66.1224C188.378 66.3272 187.93 66.5017 187.473 66.645C187.115 66.756 186.749 66.8393 186.379 66.8941C186.091 66.9323 185.8 66.9465 185.51 66.9366C185.152 66.9311 184.796 66.8717 184.455 66.7604C184.207 67.1113 183.968 67.4698 183.711 67.8147L182.924 68.8355L182.53 69.3459L182.113 69.8366L181.28 70.8179C180.994 71.1369 180.696 71.4453 180.404 71.7597C180.112 72.0742 179.825 72.3932 179.511 72.6848L178.589 73.5811L178.358 73.8044L178.118 74.0171L177.637 74.4424C175.081 76.7411 172.252 78.7038 169.217 80.2848C171.133 79.4857 173.469 78.4087 175.919 77.1038C178.368 75.7989 180.949 74.2829 183.465 72.7745C184.403 72.1866 185.322 71.6959 186.138 71.2205C186.552 70.9845 186.958 70.7703 187.355 70.5779C187.742 70.3743 188.107 70.1784 188.469 70.0037C189.924 69.3094 191.121 68.8021 192.145 68.4952C192.657 68.3433 193.09 68.2188 193.485 68.1352C193.81 68.0623 194.139 68.007 194.469 67.9696C194.741 67.9343 195.015 67.9251 195.289 67.9423L194.93 68.5271C194.694 68.9023 194.362 69.4538 193.887 70.1039C193.412 70.7541 192.874 71.5471 192.186 72.3749L191.664 73.0175C191.483 73.2347 191.305 73.4611 191.104 73.6768C190.707 74.1158 190.293 74.5685 189.863 75.0288C187.987 76.9825 185.914 78.7289 183.679 80.2392C181.497 81.7159 179.123 82.8731 176.626 83.6769C176.081 83.841 175.561 83.9847 175.065 84.1083C174.56 84.2177 174.079 84.3043 173.622 84.3772C173.394 84.4136 173.175 84.4455 172.956 84.4744L172.635 84.5154C172.529 84.526 172.422 84.5321 172.319 84.5397C171.9 84.5686 171.506 84.5823 171.127 84.5868C170.749 84.5914 170.405 84.5868 170.074 84.5655C169.744 84.5443 169.424 84.4987 169.129 84.4547C168.605 84.3776 168.088 84.2628 167.58 84.1113C166.871 83.8931 166.201 83.5636 165.592 83.1346C165.266 82.9055 164.976 82.6286 164.731 82.3128C162.48 83.1615 160.164 83.8155 157.806 84.2678L156.921 84.4303L156.474 84.5109C156.325 84.5352 156.176 84.5503 156.027 84.5716C155.432 84.6476 154.836 84.7235 154.24 84.7995L152.445 84.9377C152.148 84.9681 151.85 84.9666 151.552 84.9757L150.658 85C150.295 85.0091 150 84.8618 150 84.6719C150 84.482 150.298 84.321 150.648 84.3119L151.497 84.2906L151.921 84.2784H152.134L152.346 84.2617L154.042 84.1296L154.254 84.1129L154.463 84.0855L154.885 84.0308L155.728 83.9215C156.292 83.8622 156.848 83.7468 157.406 83.648C157.468 83.2372 157.579 82.8356 157.737 82.4525C157.838 82.1897 157.971 81.9132 158.133 81.5882C158.314 81.2322 158.513 80.8859 158.729 80.5506C158.966 80.1785 159.244 79.7911 159.561 79.3809C159.879 78.9708 160.236 78.5044 160.641 78.0441C160.742 77.9272 160.85 77.8163 160.954 77.6917L161.28 77.3165C161.502 77.0643 161.737 76.8076 161.985 76.557C162.108 76.4248 162.238 76.3033 162.364 76.162C162.491 76.0207 162.62 75.881 162.755 75.7397C163.021 75.4587 163.301 75.1731 163.596 74.886C164.84 73.5917 166.217 72.2732 167.526 70.9364C168.835 69.5996 170.058 68.2522 171.11 67.0323L171.494 66.5766L171.683 66.3609C171.742 66.285 171.8 66.2105 171.857 66.1376C172.088 65.8444 172.311 65.568 172.524 65.3097L172.682 65.1183L172.831 64.9239L173.107 64.5563C173.285 64.3203 173.452 64.1056 173.606 63.9122C174.178 63.0979 174.539 62.6316 174.539 62.6316C174.678 62.8404 174.799 63.0609 174.9 63.2909C175.183 63.9259 175.383 64.5959 175.496 65.2839C175.581 65.7783 175.622 66.2797 175.618 66.7817C175.618 67.0597 175.607 67.3529 175.583 67.6612C175.572 67.8132 175.56 67.9772 175.537 68.1352C175.515 68.2932 175.487 68.4542 175.457 68.6198C175.394 68.9494 175.318 69.2958 175.223 69.6573C175.174 69.8381 175.123 70.0249 175.065 70.2103C175.007 70.3956 174.934 70.5779 174.861 70.7678C174.712 71.146 174.547 71.541 174.356 71.9511C174.166 72.3613 173.933 72.7562 173.68 73.1801Z" fill="#C5CBD5"/>
</g>
<defs>
<clipPath id="clip0_57_53700">
<rect width="51" height="85" fill="white"/>
</clipPath>
<clipPath id="clip1_57_53700">
<rect width="51" height="85" fill="white" transform="matrix(-1 0 0 1 201 0)"/>
</clipPath>
</defs>
</svg>
