<svg width="29" height="37" viewBox="0 0 29 37" fill="none" xmlns="http://www.w3.org/2000/svg">
<path fill-rule="evenodd" clip-rule="evenodd" d="M13.9444 0.89535C14.3037 0.768241 14.6963 0.768241 15.0556 0.89535L27.9037 5.4408C28.5611 5.6734 29 6.29029 29 6.98184V20.6182C29 25.8013 26.1217 29.8488 23.0478 32.5285C21.5011 33.8767 19.8596 34.9216 18.4014 35.6361C17.0112 36.3173 15.5816 36.8 14.5 36.8C13.4184 36.8 11.9889 36.3173 10.5986 35.6361C9.14041 34.9216 7.49887 33.8767 5.95222 32.5285C2.87826 29.8488 0 25.8013 0 20.6182V6.98184C0 6.29029 0.438861 5.6734 1.09631 5.4408L13.9444 0.89535ZM3.3038 8.13501V20.6182C3.3038 24.526 5.473 27.7512 8.1348 30.0716C9.45603 31.2233 10.8544 32.1103 12.0634 32.7026C13.3403 33.3282 14.205 33.5273 14.5 33.5273C14.795 33.5273 15.6597 33.3282 16.9366 32.7026C18.1456 32.1103 19.544 31.2233 20.8652 30.0716C23.527 27.7512 25.6962 24.526 25.6962 20.6182V8.13501L14.5 4.17397L3.3038 8.13501Z" fill="url(#paint0_linear_2013_642)"/>
<path fill-rule="evenodd" clip-rule="evenodd" d="M22.0921 14.0066C22.7372 14.6456 22.7372 15.6817 22.0921 16.3207L13.8326 24.5026C13.1875 25.1416 12.1416 25.1416 11.4965 24.5026L6.90788 19.9571C6.26277 19.3181 6.26277 18.282 6.90788 17.6429C7.55299 17.0039 8.59891 17.0039 9.24402 17.6429L12.6646 21.0313L19.756 14.0066C20.4011 13.3675 21.447 13.3675 22.0921 14.0066Z" fill="url(#paint1_linear_2013_642)"/>
<defs>
<linearGradient id="paint0_linear_2013_642" x1="14.5" y1="0.800018" x2="14.5" y2="36.8" gradientUnits="userSpaceOnUse">
<stop stop-color="#D30044"/>
<stop offset="1" stop-color="white"/>
</linearGradient>
<linearGradient id="paint1_linear_2013_642" x1="14.5" y1="0.800018" x2="14.5" y2="36.8" gradientUnits="userSpaceOnUse">
<stop stop-color="#D30044"/>
<stop offset="1" stop-color="white"/>
</linearGradient>
</defs>
</svg>
