<svg width="31" height="37" viewBox="0 0 31 37" fill="none" xmlns="http://www.w3.org/2000/svg">
<path fill-rule="evenodd" clip-rule="evenodd" d="M10.71 0.299805C12.3181 0.299805 13.9295 0.924299 15.1416 2.17773L15.2822 2.3291C15.3353 2.38905 15.3858 2.45076 15.4355 2.5127C15.5281 2.3975 15.6266 2.28504 15.7314 2.17676L15.9629 1.9502C17.1442 0.850277 18.655 0.299805 20.1631 0.299805C21.7711 0.299923 23.3828 0.92441 24.5947 2.17773L24.8086 2.41016C26.627 4.48706 26.8862 7.48582 25.5889 9.82715H26.5068C28.9067 9.82715 30.8681 11.8027 30.8682 14.1992V32.3311C30.8682 34.7266 28.9062 36.7002 26.5068 36.7002H4.36328C1.96447 36.7002 0 34.7287 0 32.3311V14.1992C6.55723e-05 11.8023 1.96376 9.82715 4.36328 9.82715H5.28027C3.93364 7.39702 4.26366 4.25856 6.27539 2.17773L6.50781 1.9502C7.68904 0.850423 9.19908 0.299879 10.707 0.299805H10.71ZM3.81055 35.957C3.93058 35.9755 4.05236 35.9888 4.17578 35.9951L3.99023 35.9805C3.92988 35.9743 3.87003 35.9662 3.81055 35.957ZM17.1602 33.2432H26.5078C27.0225 33.2429 27.4102 32.8575 27.4102 32.332V14.2002C27.41 13.6749 27.0224 13.2903 26.5078 13.29H17.1602V33.2432ZM4.3252 13.29C3.82927 13.3083 3.46016 13.6857 3.45996 14.1982V32.3301C3.45996 32.8557 3.84834 33.2412 4.36328 33.2412H13.7021V13.29H4.3252ZM3.87793 10.5605C3.91521 10.5555 3.95262 10.5508 3.99023 10.5469L3.99609 10.5459C3.95649 10.5499 3.91716 10.5552 3.87793 10.5605ZM27.0469 10.5674C26.931 10.5499 26.8134 10.5384 26.6943 10.5322L26.8799 10.5469C26.9359 10.5527 26.9916 10.5591 27.0469 10.5674ZM20.1602 3.73047C19.4716 3.73047 18.7738 4.00557 18.2168 4.58105C18.2146 4.58361 18.2087 4.59115 18.1992 4.60449C18.1863 4.62272 18.1692 4.6481 18.1494 4.68262C18.1092 4.75277 18.0631 4.84736 18.0127 4.9668C17.9116 5.20626 17.8053 5.5177 17.7051 5.87988C17.5297 6.51378 17.3797 7.26847 17.2949 8.00195L17.2627 8.31543C17.2003 9.00496 17.1871 9.44178 17.1855 9.80371C17.5242 9.80218 17.9302 9.79 18.5664 9.72852L19.167 9.6543C19.77 9.5657 20.3702 9.43464 20.8848 9.28418C21.2279 9.18386 21.5215 9.07871 21.7461 8.97754C21.8578 8.92719 21.945 8.88059 22.0098 8.84082C22.0418 8.82113 22.0664 8.80469 22.083 8.79199C22.0964 8.78177 22.103 8.77585 22.1045 8.77441L22.2051 8.66406C23.182 7.54382 23.1819 5.80968 22.2051 4.68945L22.1045 4.5791C21.5547 4.00973 20.8635 3.73557 20.1807 3.73047H20.1602ZM10.667 3.72949C9.99163 3.74003 9.30977 4.01299 8.76367 4.57715L8.76465 4.57812C7.68793 5.69203 7.65359 7.50555 8.66309 8.66309L8.76465 8.77246L8.78613 8.79102C8.8026 8.80362 8.82648 8.8202 8.8584 8.83984C8.92291 8.87954 9.01039 8.92522 9.12207 8.97559C9.34635 9.07669 9.6394 9.1829 9.98242 9.2832C10.6685 9.4838 11.5074 9.64985 12.3027 9.72656L13.0078 9.7832C13.2735 9.79912 13.4874 9.80184 13.6797 9.80273C13.679 9.59242 13.6768 9.35705 13.6602 9.06152L13.6045 8.31348C13.5297 7.4851 13.3624 6.60333 13.1621 5.87891C13.062 5.51667 12.9566 5.20518 12.8555 4.96582C12.805 4.84628 12.759 4.75173 12.7188 4.68164C12.6989 4.64712 12.6819 4.6217 12.6689 4.60352L12.6504 4.5791C12.0954 4.00435 11.3962 3.72949 10.707 3.72949H10.667ZM22.3223 9.46777C22.3408 9.45712 22.3596 9.44814 22.377 9.4375L22.3857 9.43164C22.3657 9.44413 22.344 9.45527 22.3223 9.46777ZM22.8486 8.98438C22.8112 9.03198 22.7726 9.07899 22.7324 9.125L22.8486 8.98438C22.8862 8.93668 22.9231 8.88805 22.958 8.83887L22.8486 8.98438ZM7.81055 8.6875C7.83305 8.72285 7.85705 8.7573 7.88086 8.79199C7.82285 8.7075 7.76801 8.62149 7.71777 8.5332L7.81055 8.6875ZM23.1504 8.53516C23.121 8.58681 23.0907 8.63808 23.0586 8.68848L23.1504 8.53516C23.1798 8.4834 23.2086 8.43084 23.2354 8.37793L23.1504 8.53516ZM23.4277 7.92188C23.3931 8.02151 23.3547 8.12003 23.3115 8.2168L23.3809 8.05371C23.3978 8.01022 23.4124 7.96589 23.4277 7.92188ZM23.3799 5.2998C23.3898 5.32534 23.3988 5.35123 23.4082 5.37695C23.3787 5.29598 23.3468 5.21574 23.3115 5.13672L23.3799 5.2998ZM23.1504 4.81836C23.1799 4.87025 23.2085 4.92253 23.2354 4.97559L23.1504 4.81836C23.1208 4.76632 23.0909 4.71482 23.0586 4.66406L23.1504 4.81836ZM6.08789 3.5332C5.80491 3.9714 5.58884 4.44141 5.43652 4.92773C5.61562 4.35612 5.88357 3.80729 6.24316 3.30566L6.08789 3.5332ZM22.8486 4.36914C22.8863 4.41699 22.923 4.4653 22.958 4.51465L22.8486 4.36914C22.811 4.32138 22.7727 4.27468 22.7324 4.22852L22.8486 4.36914ZM18.2617 3.62793C18.0689 3.76094 17.8858 3.91709 17.7139 4.09473C17.6579 4.15282 17.6 4.23373 17.542 4.33496L17.6289 4.19922C17.6576 4.15888 17.6858 4.12383 17.7139 4.09473C17.9286 3.87281 18.162 3.68563 18.4082 3.5332L18.2617 3.62793ZM13.1533 4.09277C13.2094 4.1508 13.2671 4.23192 13.3252 4.33301L13.2393 4.19727C13.2105 4.15686 13.1815 4.12191 13.1533 4.09277ZM11.6865 3.17871C12.1131 3.3114 12.5218 3.53211 12.8877 3.84277L12.749 3.73047C12.3729 3.44207 11.9571 3.24335 11.5264 3.13281L11.6865 3.17871ZM21.6113 3.36523C21.7137 3.41506 21.8145 3.47029 21.9131 3.53125L21.7646 3.44434C21.6639 3.38884 21.5612 3.33927 21.457 3.29492L21.6113 3.36523ZM18.8643 3.2959C18.7604 3.34014 18.6581 3.38997 18.5576 3.44531L18.71 3.36719C18.8123 3.31726 18.9161 3.2722 19.0215 3.2334L18.8643 3.2959ZM21.1406 3.17871C21.194 3.1953 21.2471 3.21305 21.2998 3.23242L21.1406 3.17871C21.0872 3.16207 21.0345 3.14667 20.9805 3.13281L21.1406 3.17871ZM7.64453 1.93652C7.33746 2.14448 7.04677 2.38683 6.77832 2.66406L6.98438 2.46289C7.19365 2.26803 7.41434 2.09245 7.64453 1.93652ZM7.87793 1.78613C7.8544 1.80037 7.83196 1.81643 7.80859 1.83105C7.91008 1.7675 8.0126 1.70664 8.11719 1.65039L7.87793 1.78613ZM9.90625 1.05859C9.89322 1.06051 9.8802 1.06244 9.86719 1.06445C9.96875 1.04876 10.0707 1.03633 10.1729 1.02637L9.90625 1.05859Z" fill="url(#paint0_linear_2034_83173)"/>
<defs>
<linearGradient id="paint0_linear_2034_83173" x1="15.7002" y1="3.5" x2="24.465" y2="34.5238" gradientUnits="userSpaceOnUse">
<stop stop-color="#D40548"/>
<stop offset="1" stop-color="white"/>
</linearGradient>
</defs>
</svg>
