<svg width="37" height="37" viewBox="0 0 37 37" fill="none" xmlns="http://www.w3.org/2000/svg">
<path fill-rule="evenodd" clip-rule="evenodd" d="M5.41852 5.41852C8.76454 2.07251 13.3918 0 18.5 0C23.6082 0 28.2355 2.07251 31.5815 5.41852C34.9275 8.76454 37 13.3918 37 18.5C37 23.6082 34.9275 28.2355 31.5815 31.5815C28.2355 34.9275 23.6082 37 18.5 37C13.3918 37 8.76454 34.9275 5.41852 31.5815C2.07251 28.2355 0 23.6082 0 18.5C0 13.3918 2.07251 8.76454 5.41852 5.41852ZM18.5 3.33C14.3105 3.33 10.5202 5.02614 7.77319 7.77319C5.02614 10.5202 3.33 14.3105 3.33 18.5C3.33 22.6895 5.02614 26.4798 7.77319 29.2268C10.5202 31.9739 14.3105 33.67 18.5 33.67C22.6895 33.67 26.4798 31.9739 29.2268 29.2268C31.9739 26.4798 33.67 22.6895 33.67 18.5C33.67 14.3105 31.9739 10.5202 29.2268 7.77319C26.4798 5.02614 22.6895 3.33 18.5 3.33Z" fill="url(#paint0_linear_2034_83181)"/>
<path fill-rule="evenodd" clip-rule="evenodd" d="M18.5 7.40865C19.7706 7.40865 20.9311 8.12881 21.4934 9.26633L22.9437 12.2L26.1867 12.6704C27.4441 12.8528 28.4888 13.7321 28.8815 14.9385C29.2741 16.145 28.9467 17.4693 28.0368 18.3548L25.6901 20.6383L26.2441 23.8627C26.4589 25.113 25.9441 26.3766 24.9161 27.1222C23.8881 27.8678 22.5252 27.9661 21.4005 27.3758L18.5 25.8535L15.5994 27.3758C14.4747 27.9661 13.1118 27.8678 12.0838 27.1222C11.0558 26.3766 10.541 25.113 10.7558 23.8627L11.3098 20.6383L8.96315 18.3548C8.05325 17.4693 7.72578 16.145 8.11843 14.9385C8.51109 13.7321 9.55577 12.8528 10.8132 12.6704L14.0562 12.2L15.5065 9.26633C16.0688 8.12881 17.2293 7.40865 18.5 7.40865ZM18.5 10.7412L20.7269 15.246L25.7067 15.9684L22.1033 19.4748L22.9539 24.4261L18.5 22.0884L14.046 24.4261L14.8966 19.4748L11.2932 15.9684L16.273 15.246L18.5 10.7412Z" fill="url(#paint1_linear_2034_83181)"/>
<defs>
<linearGradient id="paint0_linear_2034_83181" x1="18.5" y1="0" x2="18.5" y2="37" gradientUnits="userSpaceOnUse">
<stop stop-color="#D40447"/>
<stop offset="1" stop-color="white"/>
</linearGradient>
<linearGradient id="paint1_linear_2034_83181" x1="18.5" y1="0" x2="18.5" y2="37" gradientUnits="userSpaceOnUse">
<stop stop-color="#D40447"/>
<stop offset="1" stop-color="white"/>
</linearGradient>
</defs>
</svg>
