<svg width="26" height="25" viewBox="0 0 26 25" fill="none" xmlns="http://www.w3.org/2000/svg">
<path d="M10.3406 4.95916C11.3493 2.45805 11.8537 1.2075 12.6732 1.03418C12.8886 0.988607 13.1113 0.988607 13.3268 1.03418C14.1463 1.2075 14.6507 2.45805 15.6594 4.95916C16.2331 6.38149 16.5199 7.09265 17.0567 7.57636C17.2072 7.71203 17.3706 7.83286 17.5446 7.93716C18.1649 8.309 18.9393 8.37798 20.4881 8.51592C23.1099 8.74944 24.4208 8.8662 24.8212 9.60956C24.9041 9.76352 24.9604 9.93021 24.9879 10.1027C25.1206 10.9356 24.1569 11.8075 22.2295 13.5515L21.6943 14.0358C20.7932 14.8511 20.3426 15.2588 20.082 15.7676C19.9257 16.0727 19.8209 16.4014 19.7717 16.7404C19.6899 17.3056 19.8218 17.897 20.0857 19.0798L20.18 19.5024C20.6532 21.6235 20.8898 22.6841 20.5944 23.2054C20.3291 23.6737 19.8404 23.9735 19.3006 23.9991C18.6996 24.0277 17.8528 23.3414 16.1592 21.9689C15.0434 21.0647 14.4854 20.6125 13.8661 20.4359C13.3001 20.2745 12.6999 20.2745 12.1339 20.4359C11.5146 20.6125 10.9566 21.0647 9.84083 21.9689C8.14721 23.3414 7.3004 24.0277 6.69941 23.9991C6.15958 23.9735 5.67089 23.6737 5.40558 23.2054C5.11022 22.6841 5.34683 21.6235 5.82004 19.5024L5.91432 19.0798C6.1782 17.897 6.31013 17.3056 6.22826 16.7404C6.17914 16.4014 6.07432 16.0727 5.918 15.7676C5.65739 15.2588 5.20684 14.8511 4.30573 14.0358L3.7705 13.5515C1.84307 11.8075 0.879361 10.9356 1.01208 10.1027C1.03957 9.93021 1.09594 9.76352 1.17884 9.60956C1.57916 8.8662 2.89007 8.74944 5.51189 8.51592C7.06067 8.37798 7.83506 8.309 8.45539 7.93716C8.62939 7.83286 8.79281 7.71203 8.94335 7.57636C9.48006 7.09265 9.7669 6.38149 10.3406 4.95916Z" fill="#040714" stroke="#040714" stroke-width="2"/>
</svg>
