<svg width="9" height="16" viewBox="0 0 9 16" fill="none" xmlns="http://www.w3.org/2000/svg">
<path d="M8.26444 0.00307897L6.20452 0C3.89052 0 2.39474 1.53521 2.39474 3.91098V5.71446H0.32349C0.145208 5.71446 0 5.85888 0 6.03805V8.6512C0 8.82958 0.145208 8.97479 0.32349 8.97479H2.39474V15.5678C2.39474 15.7461 2.53995 15.8913 2.71903 15.8913H5.42027C5.59935 15.8913 5.74456 15.746 5.74456 15.5678V8.97479H8.16592C8.34499 8.97479 8.4896 8.82948 8.4896 8.6512L8.49109 6.03805C8.49109 5.95254 8.45643 5.8702 8.39585 5.80892C8.33536 5.74833 8.25312 5.71446 8.16681 5.71446H5.74466V4.18561C5.74466 3.45093 5.91976 3.07797 6.87593 3.07797L8.26375 3.07718C8.44282 3.07718 8.58724 2.93187 8.58724 2.75359V0.327761C8.58724 0.148386 8.44262 0.00397286 8.26444 0.00307897Z" fill="#13151D"/>
</svg>
