<svg width="17" height="16" viewBox="0 0 17 16" fill="none" xmlns="http://www.w3.org/2000/svg">
<path d="M11.3663 0.000100002H4.9432C2.33274 0.000100002 0.209045 2.12379 0.209045 4.73426V11.1574C0.209045 13.7678 2.33274 15.8915 4.9432 15.8915H11.3663C13.9768 15.8915 16.1005 13.7678 16.1005 11.1574V4.73416C16.1005 2.12369 13.9767 0.000100002 11.3663 0.000100002ZM14.5018 11.1574C14.5018 12.889 13.098 14.2929 11.3663 14.2929H4.9432C3.21153 14.2929 1.80772 12.889 1.80772 11.1574V4.73416C1.80772 3.00249 3.21153 1.59868 4.9432 1.59868H11.3663C13.098 1.59868 14.5018 3.00249 14.5018 4.73416V11.1574Z" fill="#13151D"/>
<path d="M8.15486 3.83594C5.88854 3.83594 4.04474 5.67974 4.04474 7.94596C4.04474 10.2122 5.88854 12.0561 8.15486 12.0561C10.4212 12.0561 12.265 10.2123 12.265 7.94596C12.265 5.67964 10.4212 3.83594 8.15486 3.83594ZM8.15486 10.4574C6.76784 10.4574 5.64341 9.33298 5.64341 7.94596C5.64341 6.55893 6.76784 5.43452 8.15486 5.43452C9.54188 5.43452 10.6663 6.55893 10.6663 7.94596C10.6663 9.33298 9.54188 10.4574 8.15486 10.4574Z" fill="#13151D"/>
<path d="M12.2728 4.85159C12.8167 4.85159 13.2577 4.41065 13.2577 3.86672C13.2577 3.32279 12.8167 2.88184 12.2728 2.88184C11.7289 2.88184 11.2879 3.32279 11.2879 3.86672C11.2879 4.41065 11.7289 4.85159 12.2728 4.85159Z" fill="#13151D"/>
</svg>
