<svg width="18" height="16" viewBox="0 0 18 16" fill="none" xmlns="http://www.w3.org/2000/svg">
<path d="M17.209 9.74265V15.8914H13.6459V10.1549C13.6459 8.71407 13.1311 7.73059 11.8415 7.73059C10.8567 7.73059 10.2714 8.39277 10.0136 9.03418C9.91986 9.26332 9.89542 9.58184 9.89542 9.90315V15.8914H6.33168C6.33168 15.8914 6.37945 6.17492 6.33168 5.16899H9.89542V6.68831C9.88828 6.70013 9.87834 6.71185 9.87208 6.72347H9.89542V6.68831C10.3689 5.95939 11.2138 4.91721 13.1067 4.91721C15.4515 4.91721 17.209 6.44934 17.209 9.74265ZM2.60355 0C1.38438 0 0.587219 0.800333 0.587219 1.85245C0.587219 2.88191 1.36173 3.70559 2.55667 3.70559H2.58021C3.82292 3.70559 4.59554 2.88191 4.59554 1.85245C4.5722 0.800333 3.82292 0 2.60355 0ZM0.799166 15.8914H4.36134V5.16899H0.799166V15.8914Z" fill="#13151D"/>
</svg>
