<svg width="19" height="16" viewBox="0 0 19 16" fill="none" xmlns="http://www.w3.org/2000/svg">
<path d="M16.5021 0.509595L0.762886 6.7457C0.252741 6.91396 0.307894 7.65365 0.818039 7.82191L4.79526 9.07061L6.38615 14.057C6.41442 14.1465 6.46523 14.2273 6.53371 14.2917C6.6022 14.3561 6.68607 14.4018 6.77735 14.4247C6.86862 14.4475 6.96423 14.4466 7.05505 14.4221C7.14587 14.3975 7.22887 14.3501 7.29612 14.2845L9.62942 12.131L14.0616 15.3639C14.1405 15.4166 14.2309 15.4497 14.3252 15.4607C14.4195 15.4717 14.515 15.46 14.604 15.4269C14.6929 15.3937 14.7726 15.3398 14.8365 15.2698C14.9005 15.1998 14.9468 15.1156 14.9716 15.0242L18.0399 1.87257C18.2043 0.908533 17.3527 0.17308 16.5021 0.509595ZM7.29824 10.0336L6.78491 12.9807L5.64689 8.89811L16.7259 1.64189L7.29824 10.0336Z" fill="#231F20"/>
</svg>
