<svg width="20" height="14" viewBox="0 0 20 14" fill="none" xmlns="http://www.w3.org/2000/svg">
<path d="M18.7527 3.16707C18.7527 3.16707 18.5921 1.88157 18.0009 1.29167C17.3026 0.541511 16.4972 0.541531 16.1213 0.48811C13.4898 0.274428 9.51422 0.274414 9.51422 0.274414C9.51422 0.274414 5.54087 0.274428 2.90716 0.48811C2.53124 0.541531 1.72472 0.541511 1.02756 1.29167C0.436343 1.88157 0.275712 3.16707 0.275712 3.16707C0.140317 4.18 0.0684232 5.2004 0.0604248 6.22227V7.66917C0.0713401 8.69055 0.143222 9.71036 0.275712 10.7232C0.275712 10.7232 0.436343 12.0087 1.02756 12.5986C1.72472 13.3488 2.69184 13.3488 3.1213 13.4022C4.62498 13.5636 9.56662 13.617 9.56662 13.617C9.56662 13.617 13.54 13.617 16.1737 13.4022C16.5496 13.3488 17.3561 13.3488 18.0544 12.5986C18.6445 12.0087 18.8063 10.7232 18.8063 10.7232C18.9409 9.7106 19.0124 8.69063 19.0204 7.66917V6.22227C18.968 4.72196 18.7527 3.16707 18.7527 3.16707ZM7.58223 9.38315V4.07863L12.6845 6.75761L7.58223 9.38315Z" fill="#231F20"/>
</svg>
